{"glyphs":{"0":{"ha":1407,"x_min":69,"x_max":1338,"o":"m 357 514 q 347 569 347 539 l 347 715 q 357 771 347 742 q 370 792 363 782 q 388 811 378 803 q 431 838 407 829 q 481 847 454 847 q 532 838 507 847 q 576 811 557 829 q 606 768 597 796 q 615 715 615 740 l 615 569 q 577 474 615 511 q 481 436 539 436 q 431 444 454 436 q 388 472 407 453 q 357 514 368 489 m 492 1258 q 546 1250 525 1258 q 624 1132 624 1214 q 557 1019 624 1056 l 631 865 l 531 865 l 467 1007 l 444 1007 l 444 865 l 353 865 l 353 1258 l 492 1258 m 760 839 l 850 628 l 850 839 l 938 839 l 938 446 l 846 446 l 754 660 l 754 446 l 667 446 l 667 839 l 760 839 m 886 1258 l 1006 1258 l 1089 865 l 999 865 l 986 929 l 906 929 l 893 865 l 803 865 l 886 1258 m 1313 1356 l 1313 1301 l 79 1301 l 79 1356 l 1313 1356 m 1313 408 l 1313 357 l 79 357 l 79 408 l 1313 408 m 92 839 l 315 839 l 315 750 l 182 750 l 182 679 l 301 679 l 301 592 l 182 592 l 182 446 l 92 446 l 92 839 m 975 750 l 975 839 l 1219 839 l 1219 750 l 1143 750 l 1143 446 l 1051 446 l 1051 750 l 975 750 m 69 1258 l 313 1258 l 313 1171 l 238 1171 l 238 865 l 146 865 l 146 1171 l 69 1171 l 69 1258 m 1132 1258 l 1222 1258 l 1222 953 l 1338 953 l 1338 865 l 1132 865 l 1132 1258 m 760 1258 l 760 865 l 669 865 l 669 1258 l 760 1258 m 876 197 q 894 252 876 232 q 939 272 913 272 q 983 251 969 272 l 983 335 l 1008 335 l 1008 165 q 1008 147 1008 156 q 1010 129 1008 138 l 986 129 l 985 154 q 938 128 972 128 q 894 147 911 128 q 876 197 876 165 m 439 569 q 481 525 439 525 q 522 567 522 525 l 522 715 q 510 747 522 736 q 481 760 497 760 q 451 747 464 760 q 439 715 439 736 l 439 569 m 1107 197 q 1127 253 1107 233 q 1178 272 1147 272 q 1225 253 1207 272 q 1243 201 1243 233 q 1222 144 1243 161 q 1175 128 1200 128 q 1127 147 1147 128 q 1107 197 1107 165 m 775 128 q 742 139 758 128 q 726 189 726 150 l 726 269 l 753 269 l 753 192 q 783 149 753 149 q 809 159 799 149 q 819 185 819 169 l 819 269 l 844 269 l 844 167 q 845 149 844 158 q 846 129 846 139 l 824 129 l 821 151 q 806 135 818 143 q 775 128 794 128 m 1133 200 q 1144 161 1133 176 q 1175 146 1156 146 q 1206 161 1194 146 q 1217 200 1217 176 q 1208 235 1217 218 q 1175 253 1199 253 q 1144 237 1154 253 q 1133 200 1133 221 m 944 253 q 913 238 924 253 q 903 200 903 222 q 913 163 903 179 q 943 146 922 146 q 967 153 957 146 q 981 176 978 161 q 982 183 981 181 q 983 189 983 185 l 983 213 q 982 219 983 217 q 981 222 981 221 q 944 253 974 253 m 260 10 q 282 65 260 46 q 331 83 304 83 q 379 65 361 83 q 397 13 397 46 q 375 -43 397 -25 q 328 -61 353 -61 q 281 -42 301 -61 q 260 10 260 -24 m 218 297 l 218 318 l 336 318 l 336 300 l 254 129 l 228 129 l 310 297 l 218 297 m 485 318 l 485 300 l 403 129 l 376 129 l 458 297 l 364 297 l 364 318 l 485 318 m 515 156 q 547 146 528 146 q 576 167 576 146 q 549 192 576 181 q 513 232 513 206 q 525 260 513 249 q 561 272 538 272 q 594 264 579 272 l 589 246 q 561 253 578 253 q 536 233 536 253 q 542 221 536 225 q 563 211 549 217 q 600 169 600 196 q 547 128 600 128 q 507 138 526 128 l 515 156 m 486 1086 q 528 1128 528 1086 q 486 1171 528 1171 l 444 1171 l 444 1086 l 486 1086 m 615 269 l 639 269 l 639 303 l 664 310 l 664 269 l 700 269 l 700 251 l 664 251 l 664 175 q 682 149 664 149 q 697 150 693 149 l 697 131 q 675 128 690 128 q 645 141 651 128 q 639 175 639 154 l 639 251 l 615 251 l 615 269 m 122 318 l 146 318 l 146 129 l 121 129 l 121 293 l 86 276 l 83 294 l 122 318 m 429 42 q 429 63 429 53 q 428 82 429 72 l 449 82 l 449 57 q 466 76 456 68 q 496 83 476 83 q 533 57 521 83 q 549 74 539 64 q 582 83 561 83 q 611 72 594 83 q 628 25 628 61 l 628 -60 l 600 -60 l 600 22 q 572 64 600 64 q 552 56 561 64 q 542 40 543 49 q 540 34 542 36 q 539 26 539 32 l 539 -60 l 515 -60 l 515 25 q 486 64 515 64 q 467 56 475 64 q 456 40 458 49 q 454 25 454 35 l 454 -60 l 429 -60 l 429 42 m 921 1013 l 972 1013 l 944 1151 l 921 1013 m 1050 129 l 1050 269 l 1075 269 l 1075 129 l 1050 129 m 328 67 q 297 49 307 67 q 286 10 286 31 q 298 -28 286 -11 q 328 -44 310 -44 q 359 -28 347 -44 q 371 13 371 -11 q 361 49 371 31 q 328 67 351 67 m 138 10 q 158 63 138 42 q 210 83 178 83 q 244 74 235 83 l 240 57 q 228 61 238 58 q 210 64 219 64 q 172 48 186 64 q 158 10 158 32 q 174 -26 158 -11 q 210 -42 189 -42 q 228 -39 219 -42 q 240 -35 238 -36 l 243 -51 q 229 -58 239 -56 q 207 -61 219 -61 q 156 -42 174 -61 q 138 10 138 -24 m 1063 293 q 1046 308 1046 293 q 1063 325 1046 325 q 1078 308 1078 325 q 1063 293 1078 293 m 99 -61 q 85 -56 89 -61 q 81 -44 81 -50 q 99 -26 81 -26 q 115 -44 115 -26 q 110 -56 115 -50 q 99 -61 106 -61 z "},"1":{"ha":579,"x_min":18,"x_max":506,"o":"m 258 1044 q 208 1014 232 1029 q 161 983 185 999 q 81 933 121 958 q 18 893 42 907 l 18 1206 l 258 1357 l 506 1357 l 506 0 l 258 0 l 258 1044 z "},"2":{"ha":1407,"x_min":69,"x_max":1338,"o":"m 357 514 q 347 569 347 539 l 347 715 q 357 771 347 742 q 370 792 363 782 q 388 811 378 803 q 431 838 407 829 q 481 847 454 847 q 532 838 507 847 q 576 811 557 829 q 606 768 597 796 q 615 715 615 740 l 615 569 q 577 474 615 511 q 481 436 539 436 q 431 444 454 436 q 388 472 407 453 q 357 514 368 489 m 492 1258 q 546 1250 525 1258 q 624 1132 624 1214 q 557 1019 624 1056 l 631 865 l 531 865 l 467 1007 l 444 1007 l 444 865 l 353 865 l 353 1258 l 492 1258 m 760 839 l 850 628 l 850 839 l 938 839 l 938 446 l 846 446 l 754 660 l 754 446 l 667 446 l 667 839 l 760 839 m 886 1258 l 1006 1258 l 1089 865 l 999 865 l 986 929 l 906 929 l 893 865 l 803 865 l 886 1258 m 1313 1356 l 1313 1301 l 79 1301 l 79 1356 l 1313 1356 m 1313 408 l 1313 357 l 79 357 l 79 408 l 1313 408 m 92 839 l 315 839 l 315 750 l 182 750 l 182 679 l 301 679 l 301 592 l 182 592 l 182 446 l 92 446 l 92 839 m 975 750 l 975 839 l 1219 839 l 1219 750 l 1143 750 l 1143 446 l 1051 446 l 1051 750 l 975 750 m 69 1258 l 313 1258 l 313 1171 l 238 1171 l 238 865 l 146 865 l 146 1171 l 69 1171 l 69 1258 m 1132 1258 l 1222 1258 l 1222 953 l 1338 953 l 1338 865 l 1132 865 l 1132 1258 m 760 1258 l 760 865 l 669 865 l 669 1258 l 760 1258 m 876 197 q 894 252 876 232 q 939 272 913 272 q 983 251 969 272 l 983 335 l 1008 335 l 1008 165 q 1008 147 1008 156 q 1010 129 1008 138 l 986 129 l 985 154 q 938 128 972 128 q 894 147 911 128 q 876 197 876 165 m 439 569 q 481 525 439 525 q 522 567 522 525 l 522 715 q 510 747 522 736 q 481 760 497 760 q 451 747 464 760 q 439 715 439 736 l 439 569 m 1107 197 q 1127 253 1107 233 q 1178 272 1147 272 q 1225 253 1207 272 q 1243 201 1243 233 q 1222 144 1243 161 q 1175 128 1200 128 q 1127 147 1147 128 q 1107 197 1107 165 m 775 128 q 742 139 758 128 q 726 189 726 150 l 726 269 l 753 269 l 753 192 q 783 149 753 149 q 809 159 799 149 q 819 185 819 169 l 819 269 l 844 269 l 844 167 q 845 149 844 158 q 846 129 846 139 l 824 129 l 821 151 q 806 135 818 143 q 775 128 794 128 m 1133 200 q 1144 161 1133 176 q 1175 146 1156 146 q 1206 161 1194 146 q 1217 200 1217 176 q 1208 235 1217 218 q 1175 253 1199 253 q 1144 237 1154 253 q 1133 200 1133 221 m 944 253 q 913 238 924 253 q 903 200 903 222 q 913 163 903 179 q 943 146 922 146 q 967 153 957 146 q 981 176 978 161 q 982 183 981 181 q 983 189 983 185 l 983 213 q 982 219 983 217 q 981 222 981 221 q 944 253 974 253 m 260 10 q 282 65 260 46 q 331 83 304 83 q 379 65 361 83 q 397 13 397 46 q 375 -43 397 -25 q 328 -61 353 -61 q 281 -42 301 -61 q 260 10 260 -24 m 218 297 l 218 318 l 336 318 l 336 300 l 254 129 l 228 129 l 310 297 l 218 297 m 485 318 l 485 300 l 403 129 l 376 129 l 458 297 l 364 297 l 364 318 l 485 318 m 515 156 q 547 146 528 146 q 576 167 576 146 q 549 192 576 181 q 513 232 513 206 q 525 260 513 249 q 561 272 538 272 q 594 264 579 272 l 589 246 q 561 253 578 253 q 536 233 536 253 q 542 221 536 225 q 563 211 549 217 q 600 169 600 196 q 547 128 600 128 q 507 138 526 128 l 515 156 m 486 1086 q 528 1128 528 1086 q 486 1171 528 1171 l 444 1171 l 444 1086 l 486 1086 m 615 269 l 639 269 l 639 303 l 664 310 l 664 269 l 700 269 l 700 251 l 664 251 l 664 175 q 682 149 664 149 q 697 150 693 149 l 697 131 q 675 128 690 128 q 645 141 651 128 q 639 175 639 154 l 639 251 l 615 251 l 615 269 m 122 318 l 146 318 l 146 129 l 121 129 l 121 293 l 86 276 l 83 294 l 122 318 m 429 42 q 429 63 429 53 q 428 82 429 72 l 449 82 l 449 57 q 466 76 456 68 q 496 83 476 83 q 533 57 521 83 q 549 74 539 64 q 582 83 561 83 q 611 72 594 83 q 628 25 628 61 l 628 -60 l 600 -60 l 600 22 q 572 64 600 64 q 552 56 561 64 q 542 40 543 49 q 540 34 542 36 q 539 26 539 32 l 539 -60 l 515 -60 l 515 25 q 486 64 515 64 q 467 56 475 64 q 456 40 458 49 q 454 25 454 35 l 454 -60 l 429 -60 l 429 42 m 921 1013 l 972 1013 l 944 1151 l 921 1013 m 1050 129 l 1050 269 l 1075 269 l 1075 129 l 1050 129 m 328 67 q 297 49 307 67 q 286 10 286 31 q 298 -28 286 -11 q 328 -44 310 -44 q 359 -28 347 -44 q 371 13 371 -11 q 361 49 371 31 q 328 67 351 67 m 138 10 q 158 63 138 42 q 210 83 178 83 q 244 74 235 83 l 240 57 q 228 61 238 58 q 210 64 219 64 q 172 48 186 64 q 158 10 158 32 q 174 -26 158 -11 q 210 -42 189 -42 q 228 -39 219 -42 q 240 -35 238 -36 l 243 -51 q 229 -58 239 -56 q 207 -61 219 -61 q 156 -42 174 -61 q 138 10 138 -24 m 1063 293 q 1046 308 1046 293 q 1063 325 1046 325 q 1078 308 1078 325 q 1063 293 1078 293 m 99 -61 q 85 -56 89 -61 q 81 -44 81 -50 q 99 -26 81 -26 q 115 -44 115 -26 q 110 -56 115 -50 q 99 -61 106 -61 z "},"3":{"ha":1407,"x_min":69,"x_max":1338,"o":"m 357 514 q 347 569 347 539 l 347 715 q 357 771 347 742 q 370 792 363 782 q 388 811 378 803 q 431 838 407 829 q 481 847 454 847 q 532 838 507 847 q 576 811 557 829 q 606 768 597 796 q 615 715 615 740 l 615 569 q 577 474 615 511 q 481 436 539 436 q 431 444 454 436 q 388 472 407 453 q 357 514 368 489 m 492 1258 q 546 1250 525 1258 q 624 1132 624 1214 q 557 1019 624 1056 l 631 865 l 531 865 l 467 1007 l 444 1007 l 444 865 l 353 865 l 353 1258 l 492 1258 m 760 839 l 850 628 l 850 839 l 938 839 l 938 446 l 846 446 l 754 660 l 754 446 l 667 446 l 667 839 l 760 839 m 886 1258 l 1006 1258 l 1089 865 l 999 865 l 986 929 l 906 929 l 893 865 l 803 865 l 886 1258 m 1313 1356 l 1313 1301 l 79 1301 l 79 1356 l 1313 1356 m 1313 408 l 1313 357 l 79 357 l 79 408 l 1313 408 m 92 839 l 315 839 l 315 750 l 182 750 l 182 679 l 301 679 l 301 592 l 182 592 l 182 446 l 92 446 l 92 839 m 975 750 l 975 839 l 1219 839 l 1219 750 l 1143 750 l 1143 446 l 1051 446 l 1051 750 l 975 750 m 69 1258 l 313 1258 l 313 1171 l 238 1171 l 238 865 l 146 865 l 146 1171 l 69 1171 l 69 1258 m 1132 1258 l 1222 1258 l 1222 953 l 1338 953 l 1338 865 l 1132 865 l 1132 1258 m 760 1258 l 760 865 l 669 865 l 669 1258 l 760 1258 m 876 197 q 894 252 876 232 q 939 272 913 272 q 983 251 969 272 l 983 335 l 1008 335 l 1008 165 q 1008 147 1008 156 q 1010 129 1008 138 l 986 129 l 985 154 q 938 128 972 128 q 894 147 911 128 q 876 197 876 165 m 439 569 q 481 525 439 525 q 522 567 522 525 l 522 715 q 510 747 522 736 q 481 760 497 760 q 451 747 464 760 q 439 715 439 736 l 439 569 m 1107 197 q 1127 253 1107 233 q 1178 272 1147 272 q 1225 253 1207 272 q 1243 201 1243 233 q 1222 144 1243 161 q 1175 128 1200 128 q 1127 147 1147 128 q 1107 197 1107 165 m 775 128 q 742 139 758 128 q 726 189 726 150 l 726 269 l 753 269 l 753 192 q 783 149 753 149 q 809 159 799 149 q 819 185 819 169 l 819 269 l 844 269 l 844 167 q 845 149 844 158 q 846 129 846 139 l 824 129 l 821 151 q 806 135 818 143 q 775 128 794 128 m 1133 200 q 1144 161 1133 176 q 1175 146 1156 146 q 1206 161 1194 146 q 1217 200 1217 176 q 1208 235 1217 218 q 1175 253 1199 253 q 1144 237 1154 253 q 1133 200 1133 221 m 944 253 q 913 238 924 253 q 903 200 903 222 q 913 163 903 179 q 943 146 922 146 q 967 153 957 146 q 981 176 978 161 q 982 183 981 181 q 983 189 983 185 l 983 213 q 982 219 983 217 q 981 222 981 221 q 944 253 974 253 m 260 10 q 282 65 260 46 q 331 83 304 83 q 379 65 361 83 q 397 13 397 46 q 375 -43 397 -25 q 328 -61 353 -61 q 281 -42 301 -61 q 260 10 260 -24 m 218 297 l 218 318 l 336 318 l 336 300 l 254 129 l 228 129 l 310 297 l 218 297 m 485 318 l 485 300 l 403 129 l 376 129 l 458 297 l 364 297 l 364 318 l 485 318 m 515 156 q 547 146 528 146 q 576 167 576 146 q 549 192 576 181 q 513 232 513 206 q 525 260 513 249 q 561 272 538 272 q 594 264 579 272 l 589 246 q 561 253 578 253 q 536 233 536 253 q 542 221 536 225 q 563 211 549 217 q 600 169 600 196 q 547 128 600 128 q 507 138 526 128 l 515 156 m 486 1086 q 528 1128 528 1086 q 486 1171 528 1171 l 444 1171 l 444 1086 l 486 1086 m 615 269 l 639 269 l 639 303 l 664 310 l 664 269 l 700 269 l 700 251 l 664 251 l 664 175 q 682 149 664 149 q 697 150 693 149 l 697 131 q 675 128 690 128 q 645 141 651 128 q 639 175 639 154 l 639 251 l 615 251 l 615 269 m 122 318 l 146 318 l 146 129 l 121 129 l 121 293 l 86 276 l 83 294 l 122 318 m 429 42 q 429 63 429 53 q 428 82 429 72 l 449 82 l 449 57 q 466 76 456 68 q 496 83 476 83 q 533 57 521 83 q 549 74 539 64 q 582 83 561 83 q 611 72 594 83 q 628 25 628 61 l 628 -60 l 600 -60 l 600 22 q 572 64 600 64 q 552 56 561 64 q 542 40 543 49 q 540 34 542 36 q 539 26 539 32 l 539 -60 l 515 -60 l 515 25 q 486 64 515 64 q 467 56 475 64 q 456 40 458 49 q 454 25 454 35 l 454 -60 l 429 -60 l 429 42 m 921 1013 l 972 1013 l 944 1151 l 921 1013 m 1050 129 l 1050 269 l 1075 269 l 1075 129 l 1050 129 m 328 67 q 297 49 307 67 q 286 10 286 31 q 298 -28 286 -11 q 328 -44 310 -44 q 359 -28 347 -44 q 371 13 371 -11 q 361 49 371 31 q 328 67 351 67 m 138 10 q 158 63 138 42 q 210 83 178 83 q 244 74 235 83 l 240 57 q 228 61 238 58 q 210 64 219 64 q 172 48 186 64 q 158 10 158 32 q 174 -26 158 -11 q 210 -42 189 -42 q 228 -39 219 -42 q 240 -35 238 -36 l 243 -51 q 229 -58 239 -56 q 207 -61 219 -61 q 156 -42 174 -61 q 138 10 138 -24 m 1063 293 q 1046 308 1046 293 q 1063 325 1046 325 q 1078 308 1078 325 q 1063 293 1078 293 m 99 -61 q 85 -56 89 -61 q 81 -44 81 -50 q 99 -26 81 -26 q 115 -44 115 -26 q 110 -56 115 -50 q 99 -61 106 -61 z "},"4":{"ha":1407,"x_min":69,"x_max":1338,"o":"m 357 514 q 347 569 347 539 l 347 715 q 357 771 347 742 q 370 792 363 782 q 388 811 378 803 q 431 838 407 829 q 481 847 454 847 q 532 838 507 847 q 576 811 557 829 q 606 768 597 796 q 615 715 615 740 l 615 569 q 577 474 615 511 q 481 436 539 436 q 431 444 454 436 q 388 472 407 453 q 357 514 368 489 m 492 1258 q 546 1250 525 1258 q 624 1132 624 1214 q 557 1019 624 1056 l 631 865 l 531 865 l 467 1007 l 444 1007 l 444 865 l 353 865 l 353 1258 l 492 1258 m 760 839 l 850 628 l 850 839 l 938 839 l 938 446 l 846 446 l 754 660 l 754 446 l 667 446 l 667 839 l 760 839 m 886 1258 l 1006 1258 l 1089 865 l 999 865 l 986 929 l 906 929 l 893 865 l 803 865 l 886 1258 m 1313 1356 l 1313 1301 l 79 1301 l 79 1356 l 1313 1356 m 1313 408 l 1313 357 l 79 357 l 79 408 l 1313 408 m 92 839 l 315 839 l 315 750 l 182 750 l 182 679 l 301 679 l 301 592 l 182 592 l 182 446 l 92 446 l 92 839 m 975 750 l 975 839 l 1219 839 l 1219 750 l 1143 750 l 1143 446 l 1051 446 l 1051 750 l 975 750 m 69 1258 l 313 1258 l 313 1171 l 238 1171 l 238 865 l 146 865 l 146 1171 l 69 1171 l 69 1258 m 1132 1258 l 1222 1258 l 1222 953 l 1338 953 l 1338 865 l 1132 865 l 1132 1258 m 760 1258 l 760 865 l 669 865 l 669 1258 l 760 1258 m 876 197 q 894 252 876 232 q 939 272 913 272 q 983 251 969 272 l 983 335 l 1008 335 l 1008 165 q 1008 147 1008 156 q 1010 129 1008 138 l 986 129 l 985 154 q 938 128 972 128 q 894 147 911 128 q 876 197 876 165 m 439 569 q 481 525 439 525 q 522 567 522 525 l 522 715 q 510 747 522 736 q 481 760 497 760 q 451 747 464 760 q 439 715 439 736 l 439 569 m 1107 197 q 1127 253 1107 233 q 1178 272 1147 272 q 1225 253 1207 272 q 1243 201 1243 233 q 1222 144 1243 161 q 1175 128 1200 128 q 1127 147 1147 128 q 1107 197 1107 165 m 775 128 q 742 139 758 128 q 726 189 726 150 l 726 269 l 753 269 l 753 192 q 783 149 753 149 q 809 159 799 149 q 819 185 819 169 l 819 269 l 844 269 l 844 167 q 845 149 844 158 q 846 129 846 139 l 824 129 l 821 151 q 806 135 818 143 q 775 128 794 128 m 1133 200 q 1144 161 1133 176 q 1175 146 1156 146 q 1206 161 1194 146 q 1217 200 1217 176 q 1208 235 1217 218 q 1175 253 1199 253 q 1144 237 1154 253 q 1133 200 1133 221 m 944 253 q 913 238 924 253 q 903 200 903 222 q 913 163 903 179 q 943 146 922 146 q 967 153 957 146 q 981 176 978 161 q 982 183 981 181 q 983 189 983 185 l 983 213 q 982 219 983 217 q 981 222 981 221 q 944 253 974 253 m 260 10 q 282 65 260 46 q 331 83 304 83 q 379 65 361 83 q 397 13 397 46 q 375 -43 397 -25 q 328 -61 353 -61 q 281 -42 301 -61 q 260 10 260 -24 m 218 297 l 218 318 l 336 318 l 336 300 l 254 129 l 228 129 l 310 297 l 218 297 m 485 318 l 485 300 l 403 129 l 376 129 l 458 297 l 364 297 l 364 318 l 485 318 m 515 156 q 547 146 528 146 q 576 167 576 146 q 549 192 576 181 q 513 232 513 206 q 525 260 513 249 q 561 272 538 272 q 594 264 579 272 l 589 246 q 561 253 578 253 q 536 233 536 253 q 542 221 536 225 q 563 211 549 217 q 600 169 600 196 q 547 128 600 128 q 507 138 526 128 l 515 156 m 486 1086 q 528 1128 528 1086 q 486 1171 528 1171 l 444 1171 l 444 1086 l 486 1086 m 615 269 l 639 269 l 639 303 l 664 310 l 664 269 l 700 269 l 700 251 l 664 251 l 664 175 q 682 149 664 149 q 697 150 693 149 l 697 131 q 675 128 690 128 q 645 141 651 128 q 639 175 639 154 l 639 251 l 615 251 l 615 269 m 122 318 l 146 318 l 146 129 l 121 129 l 121 293 l 86 276 l 83 294 l 122 318 m 429 42 q 429 63 429 53 q 428 82 429 72 l 449 82 l 449 57 q 466 76 456 68 q 496 83 476 83 q 533 57 521 83 q 549 74 539 64 q 582 83 561 83 q 611 72 594 83 q 628 25 628 61 l 628 -60 l 600 -60 l 600 22 q 572 64 600 64 q 552 56 561 64 q 542 40 543 49 q 540 34 542 36 q 539 26 539 32 l 539 -60 l 515 -60 l 515 25 q 486 64 515 64 q 467 56 475 64 q 456 40 458 49 q 454 25 454 35 l 454 -60 l 429 -60 l 429 42 m 921 1013 l 972 1013 l 944 1151 l 921 1013 m 1050 129 l 1050 269 l 1075 269 l 1075 129 l 1050 129 m 328 67 q 297 49 307 67 q 286 10 286 31 q 298 -28 286 -11 q 328 -44 310 -44 q 359 -28 347 -44 q 371 13 371 -11 q 361 49 371 31 q 328 67 351 67 m 138 10 q 158 63 138 42 q 210 83 178 83 q 244 74 235 83 l 240 57 q 228 61 238 58 q 210 64 219 64 q 172 48 186 64 q 158 10 158 32 q 174 -26 158 -11 q 210 -42 189 -42 q 228 -39 219 -42 q 240 -35 238 -36 l 243 -51 q 229 -58 239 -56 q 207 -61 219 -61 q 156 -42 174 -61 q 138 10 138 -24 m 1063 293 q 1046 308 1046 293 q 1063 325 1046 325 q 1078 308 1078 325 q 1063 293 1078 293 m 99 -61 q 85 -56 89 -61 q 81 -44 81 -50 q 99 -26 81 -26 q 115 -44 115 -26 q 110 -56 115 -50 q 99 -61 106 -61 z "},"5":{"ha":1407,"x_min":69,"x_max":1338,"o":"m 357 514 q 347 569 347 539 l 347 715 q 357 771 347 742 q 370 792 363 782 q 388 811 378 803 q 431 838 407 829 q 481 847 454 847 q 532 838 507 847 q 576 811 557 829 q 606 768 597 796 q 615 715 615 740 l 615 569 q 577 474 615 511 q 481 436 539 436 q 431 444 454 436 q 388 472 407 453 q 357 514 368 489 m 492 1258 q 546 1250 525 1258 q 624 1132 624 1214 q 557 1019 624 1056 l 631 865 l 531 865 l 467 1007 l 444 1007 l 444 865 l 353 865 l 353 1258 l 492 1258 m 760 839 l 850 628 l 850 839 l 938 839 l 938 446 l 846 446 l 754 660 l 754 446 l 667 446 l 667 839 l 760 839 m 886 1258 l 1006 1258 l 1089 865 l 999 865 l 986 929 l 906 929 l 893 865 l 803 865 l 886 1258 m 1313 1356 l 1313 1301 l 79 1301 l 79 1356 l 1313 1356 m 1313 408 l 1313 357 l 79 357 l 79 408 l 1313 408 m 92 839 l 315 839 l 315 750 l 182 750 l 182 679 l 301 679 l 301 592 l 182 592 l 182 446 l 92 446 l 92 839 m 975 750 l 975 839 l 1219 839 l 1219 750 l 1143 750 l 1143 446 l 1051 446 l 1051 750 l 975 750 m 69 1258 l 313 1258 l 313 1171 l 238 1171 l 238 865 l 146 865 l 146 1171 l 69 1171 l 69 1258 m 1132 1258 l 1222 1258 l 1222 953 l 1338 953 l 1338 865 l 1132 865 l 1132 1258 m 760 1258 l 760 865 l 669 865 l 669 1258 l 760 1258 m 876 197 q 894 252 876 232 q 939 272 913 272 q 983 251 969 272 l 983 335 l 1008 335 l 1008 165 q 1008 147 1008 156 q 1010 129 1008 138 l 986 129 l 985 154 q 938 128 972 128 q 894 147 911 128 q 876 197 876 165 m 439 569 q 481 525 439 525 q 522 567 522 525 l 522 715 q 510 747 522 736 q 481 760 497 760 q 451 747 464 760 q 439 715 439 736 l 439 569 m 1107 197 q 1127 253 1107 233 q 1178 272 1147 272 q 1225 253 1207 272 q 1243 201 1243 233 q 1222 144 1243 161 q 1175 128 1200 128 q 1127 147 1147 128 q 1107 197 1107 165 m 775 128 q 742 139 758 128 q 726 189 726 150 l 726 269 l 753 269 l 753 192 q 783 149 753 149 q 809 159 799 149 q 819 185 819 169 l 819 269 l 844 269 l 844 167 q 845 149 844 158 q 846 129 846 139 l 824 129 l 821 151 q 806 135 818 143 q 775 128 794 128 m 1133 200 q 1144 161 1133 176 q 1175 146 1156 146 q 1206 161 1194 146 q 1217 200 1217 176 q 1208 235 1217 218 q 1175 253 1199 253 q 1144 237 1154 253 q 1133 200 1133 221 m 944 253 q 913 238 924 253 q 903 200 903 222 q 913 163 903 179 q 943 146 922 146 q 967 153 957 146 q 981 176 978 161 q 982 183 981 181 q 983 189 983 185 l 983 213 q 982 219 983 217 q 981 222 981 221 q 944 253 974 253 m 260 10 q 282 65 260 46 q 331 83 304 83 q 379 65 361 83 q 397 13 397 46 q 375 -43 397 -25 q 328 -61 353 -61 q 281 -42 301 -61 q 260 10 260 -24 m 218 297 l 218 318 l 336 318 l 336 300 l 254 129 l 228 129 l 310 297 l 218 297 m 485 318 l 485 300 l 403 129 l 376 129 l 458 297 l 364 297 l 364 318 l 485 318 m 515 156 q 547 146 528 146 q 576 167 576 146 q 549 192 576 181 q 513 232 513 206 q 525 260 513 249 q 561 272 538 272 q 594 264 579 272 l 589 246 q 561 253 578 253 q 536 233 536 253 q 542 221 536 225 q 563 211 549 217 q 600 169 600 196 q 547 128 600 128 q 507 138 526 128 l 515 156 m 486 1086 q 528 1128 528 1086 q 486 1171 528 1171 l 444 1171 l 444 1086 l 486 1086 m 615 269 l 639 269 l 639 303 l 664 310 l 664 269 l 700 269 l 700 251 l 664 251 l 664 175 q 682 149 664 149 q 697 150 693 149 l 697 131 q 675 128 690 128 q 645 141 651 128 q 639 175 639 154 l 639 251 l 615 251 l 615 269 m 122 318 l 146 318 l 146 129 l 121 129 l 121 293 l 86 276 l 83 294 l 122 318 m 429 42 q 429 63 429 53 q 428 82 429 72 l 449 82 l 449 57 q 466 76 456 68 q 496 83 476 83 q 533 57 521 83 q 549 74 539 64 q 582 83 561 83 q 611 72 594 83 q 628 25 628 61 l 628 -60 l 600 -60 l 600 22 q 572 64 600 64 q 552 56 561 64 q 542 40 543 49 q 540 34 542 36 q 539 26 539 32 l 539 -60 l 515 -60 l 515 25 q 486 64 515 64 q 467 56 475 64 q 456 40 458 49 q 454 25 454 35 l 454 -60 l 429 -60 l 429 42 m 921 1013 l 972 1013 l 944 1151 l 921 1013 m 1050 129 l 1050 269 l 1075 269 l 1075 129 l 1050 129 m 328 67 q 297 49 307 67 q 286 10 286 31 q 298 -28 286 -11 q 328 -44 310 -44 q 359 -28 347 -44 q 371 13 371 -11 q 361 49 371 31 q 328 67 351 67 m 138 10 q 158 63 138 42 q 210 83 178 83 q 244 74 235 83 l 240 57 q 228 61 238 58 q 210 64 219 64 q 172 48 186 64 q 158 10 158 32 q 174 -26 158 -11 q 210 -42 189 -42 q 228 -39 219 -42 q 240 -35 238 -36 l 243 -51 q 229 -58 239 -56 q 207 -61 219 -61 q 156 -42 174 -61 q 138 10 138 -24 m 1063 293 q 1046 308 1046 293 q 1063 325 1046 325 q 1078 308 1078 325 q 1063 293 1078 293 m 99 -61 q 85 -56 89 -61 q 81 -44 81 -50 q 99 -26 81 -26 q 115 -44 115 -26 q 110 -56 115 -50 q 99 -61 106 -61 z "},"6":{"ha":1407,"x_min":69,"x_max":1338,"o":"m 357 514 q 347 569 347 539 l 347 715 q 357 771 347 742 q 370 792 363 782 q 388 811 378 803 q 431 838 407 829 q 481 847 454 847 q 532 838 507 847 q 576 811 557 829 q 606 768 597 796 q 615 715 615 740 l 615 569 q 577 474 615 511 q 481 436 539 436 q 431 444 454 436 q 388 472 407 453 q 357 514 368 489 m 492 1258 q 546 1250 525 1258 q 624 1132 624 1214 q 557 1019 624 1056 l 631 865 l 531 865 l 467 1007 l 444 1007 l 444 865 l 353 865 l 353 1258 l 492 1258 m 760 839 l 850 628 l 850 839 l 938 839 l 938 446 l 846 446 l 754 660 l 754 446 l 667 446 l 667 839 l 760 839 m 886 1258 l 1006 1258 l 1089 865 l 999 865 l 986 929 l 906 929 l 893 865 l 803 865 l 886 1258 m 1313 1356 l 1313 1301 l 79 1301 l 79 1356 l 1313 1356 m 1313 408 l 1313 357 l 79 357 l 79 408 l 1313 408 m 92 839 l 315 839 l 315 750 l 182 750 l 182 679 l 301 679 l 301 592 l 182 592 l 182 446 l 92 446 l 92 839 m 975 750 l 975 839 l 1219 839 l 1219 750 l 1143 750 l 1143 446 l 1051 446 l 1051 750 l 975 750 m 69 1258 l 313 1258 l 313 1171 l 238 1171 l 238 865 l 146 865 l 146 1171 l 69 1171 l 69 1258 m 1132 1258 l 1222 1258 l 1222 953 l 1338 953 l 1338 865 l 1132 865 l 1132 1258 m 760 1258 l 760 865 l 669 865 l 669 1258 l 760 1258 m 876 197 q 894 252 876 232 q 939 272 913 272 q 983 251 969 272 l 983 335 l 1008 335 l 1008 165 q 1008 147 1008 156 q 1010 129 1008 138 l 986 129 l 985 154 q 938 128 972 128 q 894 147 911 128 q 876 197 876 165 m 439 569 q 481 525 439 525 q 522 567 522 525 l 522 715 q 510 747 522 736 q 481 760 497 760 q 451 747 464 760 q 439 715 439 736 l 439 569 m 1107 197 q 1127 253 1107 233 q 1178 272 1147 272 q 1225 253 1207 272 q 1243 201 1243 233 q 1222 144 1243 161 q 1175 128 1200 128 q 1127 147 1147 128 q 1107 197 1107 165 m 775 128 q 742 139 758 128 q 726 189 726 150 l 726 269 l 753 269 l 753 192 q 783 149 753 149 q 809 159 799 149 q 819 185 819 169 l 819 269 l 844 269 l 844 167 q 845 149 844 158 q 846 129 846 139 l 824 129 l 821 151 q 806 135 818 143 q 775 128 794 128 m 1133 200 q 1144 161 1133 176 q 1175 146 1156 146 q 1206 161 1194 146 q 1217 200 1217 176 q 1208 235 1217 218 q 1175 253 1199 253 q 1144 237 1154 253 q 1133 200 1133 221 m 944 253 q 913 238 924 253 q 903 200 903 222 q 913 163 903 179 q 943 146 922 146 q 967 153 957 146 q 981 176 978 161 q 982 183 981 181 q 983 189 983 185 l 983 213 q 982 219 983 217 q 981 222 981 221 q 944 253 974 253 m 260 10 q 282 65 260 46 q 331 83 304 83 q 379 65 361 83 q 397 13 397 46 q 375 -43 397 -25 q 328 -61 353 -61 q 281 -42 301 -61 q 260 10 260 -24 m 218 297 l 218 318 l 336 318 l 336 300 l 254 129 l 228 129 l 310 297 l 218 297 m 485 318 l 485 300 l 403 129 l 376 129 l 458 297 l 364 297 l 364 318 l 485 318 m 515 156 q 547 146 528 146 q 576 167 576 146 q 549 192 576 181 q 513 232 513 206 q 525 260 513 249 q 561 272 538 272 q 594 264 579 272 l 589 246 q 561 253 578 253 q 536 233 536 253 q 542 221 536 225 q 563 211 549 217 q 600 169 600 196 q 547 128 600 128 q 507 138 526 128 l 515 156 m 486 1086 q 528 1128 528 1086 q 486 1171 528 1171 l 444 1171 l 444 1086 l 486 1086 m 615 269 l 639 269 l 639 303 l 664 310 l 664 269 l 700 269 l 700 251 l 664 251 l 664 175 q 682 149 664 149 q 697 150 693 149 l 697 131 q 675 128 690 128 q 645 141 651 128 q 639 175 639 154 l 639 251 l 615 251 l 615 269 m 122 318 l 146 318 l 146 129 l 121 129 l 121 293 l 86 276 l 83 294 l 122 318 m 429 42 q 429 63 429 53 q 428 82 429 72 l 449 82 l 449 57 q 466 76 456 68 q 496 83 476 83 q 533 57 521 83 q 549 74 539 64 q 582 83 561 83 q 611 72 594 83 q 628 25 628 61 l 628 -60 l 600 -60 l 600 22 q 572 64 600 64 q 552 56 561 64 q 542 40 543 49 q 540 34 542 36 q 539 26 539 32 l 539 -60 l 515 -60 l 515 25 q 486 64 515 64 q 467 56 475 64 q 456 40 458 49 q 454 25 454 35 l 454 -60 l 429 -60 l 429 42 m 921 1013 l 972 1013 l 944 1151 l 921 1013 m 1050 129 l 1050 269 l 1075 269 l 1075 129 l 1050 129 m 328 67 q 297 49 307 67 q 286 10 286 31 q 298 -28 286 -11 q 328 -44 310 -44 q 359 -28 347 -44 q 371 13 371 -11 q 361 49 371 31 q 328 67 351 67 m 138 10 q 158 63 138 42 q 210 83 178 83 q 244 74 235 83 l 240 57 q 228 61 238 58 q 210 64 219 64 q 172 48 186 64 q 158 10 158 32 q 174 -26 158 -11 q 210 -42 189 -42 q 228 -39 219 -42 q 240 -35 238 -36 l 243 -51 q 229 -58 239 -56 q 207 -61 219 -61 q 156 -42 174 -61 q 138 10 138 -24 m 1063 293 q 1046 308 1046 293 q 1063 325 1046 325 q 1078 308 1078 325 q 1063 293 1078 293 m 99 -61 q 85 -56 89 -61 q 81 -44 81 -50 q 99 -26 81 -26 q 115 -44 115 -26 q 110 -56 115 -50 q 99 -61 106 -61 z "},"7":{"ha":1224,"x_min":49,"x_max":1207,"o":"m 1207 1357 l 1207 1108 l 354 0 l 49 0 l 903 1110 l 196 1110 l 196 1357 l 1207 1357 z "},"8":{"ha":1407,"x_min":69,"x_max":1338,"o":"m 357 514 q 347 569 347 539 l 347 715 q 357 771 347 742 q 370 792 363 782 q 388 811 378 803 q 431 838 407 829 q 481 847 454 847 q 532 838 507 847 q 576 811 557 829 q 606 768 597 796 q 615 715 615 740 l 615 569 q 577 474 615 511 q 481 436 539 436 q 431 444 454 436 q 388 472 407 453 q 357 514 368 489 m 492 1258 q 546 1250 525 1258 q 624 1132 624 1214 q 557 1019 624 1056 l 631 865 l 531 865 l 467 1007 l 444 1007 l 444 865 l 353 865 l 353 1258 l 492 1258 m 760 839 l 850 628 l 850 839 l 938 839 l 938 446 l 846 446 l 754 660 l 754 446 l 667 446 l 667 839 l 760 839 m 886 1258 l 1006 1258 l 1089 865 l 999 865 l 986 929 l 906 929 l 893 865 l 803 865 l 886 1258 m 1313 1356 l 1313 1301 l 79 1301 l 79 1356 l 1313 1356 m 1313 408 l 1313 357 l 79 357 l 79 408 l 1313 408 m 92 839 l 315 839 l 315 750 l 182 750 l 182 679 l 301 679 l 301 592 l 182 592 l 182 446 l 92 446 l 92 839 m 975 750 l 975 839 l 1219 839 l 1219 750 l 1143 750 l 1143 446 l 1051 446 l 1051 750 l 975 750 m 69 1258 l 313 1258 l 313 1171 l 238 1171 l 238 865 l 146 865 l 146 1171 l 69 1171 l 69 1258 m 1132 1258 l 1222 1258 l 1222 953 l 1338 953 l 1338 865 l 1132 865 l 1132 1258 m 760 1258 l 760 865 l 669 865 l 669 1258 l 760 1258 m 876 197 q 894 252 876 232 q 939 272 913 272 q 983 251 969 272 l 983 335 l 1008 335 l 1008 165 q 1008 147 1008 156 q 1010 129 1008 138 l 986 129 l 985 154 q 938 128 972 128 q 894 147 911 128 q 876 197 876 165 m 439 569 q 481 525 439 525 q 522 567 522 525 l 522 715 q 510 747 522 736 q 481 760 497 760 q 451 747 464 760 q 439 715 439 736 l 439 569 m 1107 197 q 1127 253 1107 233 q 1178 272 1147 272 q 1225 253 1207 272 q 1243 201 1243 233 q 1222 144 1243 161 q 1175 128 1200 128 q 1127 147 1147 128 q 1107 197 1107 165 m 775 128 q 742 139 758 128 q 726 189 726 150 l 726 269 l 753 269 l 753 192 q 783 149 753 149 q 809 159 799 149 q 819 185 819 169 l 819 269 l 844 269 l 844 167 q 845 149 844 158 q 846 129 846 139 l 824 129 l 821 151 q 806 135 818 143 q 775 128 794 128 m 1133 200 q 1144 161 1133 176 q 1175 146 1156 146 q 1206 161 1194 146 q 1217 200 1217 176 q 1208 235 1217 218 q 1175 253 1199 253 q 1144 237 1154 253 q 1133 200 1133 221 m 944 253 q 913 238 924 253 q 903 200 903 222 q 913 163 903 179 q 943 146 922 146 q 967 153 957 146 q 981 176 978 161 q 982 183 981 181 q 983 189 983 185 l 983 213 q 982 219 983 217 q 981 222 981 221 q 944 253 974 253 m 260 10 q 282 65 260 46 q 331 83 304 83 q 379 65 361 83 q 397 13 397 46 q 375 -43 397 -25 q 328 -61 353 -61 q 281 -42 301 -61 q 260 10 260 -24 m 218 297 l 218 318 l 336 318 l 336 300 l 254 129 l 228 129 l 310 297 l 218 297 m 485 318 l 485 300 l 403 129 l 376 129 l 458 297 l 364 297 l 364 318 l 485 318 m 515 156 q 547 146 528 146 q 576 167 576 146 q 549 192 576 181 q 513 232 513 206 q 525 260 513 249 q 561 272 538 272 q 594 264 579 272 l 589 246 q 561 253 578 253 q 536 233 536 253 q 542 221 536 225 q 563 211 549 217 q 600 169 600 196 q 547 128 600 128 q 507 138 526 128 l 515 156 m 486 1086 q 528 1128 528 1086 q 486 1171 528 1171 l 444 1171 l 444 1086 l 486 1086 m 615 269 l 639 269 l 639 303 l 664 310 l 664 269 l 700 269 l 700 251 l 664 251 l 664 175 q 682 149 664 149 q 697 150 693 149 l 697 131 q 675 128 690 128 q 645 141 651 128 q 639 175 639 154 l 639 251 l 615 251 l 615 269 m 122 318 l 146 318 l 146 129 l 121 129 l 121 293 l 86 276 l 83 294 l 122 318 m 429 42 q 429 63 429 53 q 428 82 429 72 l 449 82 l 449 57 q 466 76 456 68 q 496 83 476 83 q 533 57 521 83 q 549 74 539 64 q 582 83 561 83 q 611 72 594 83 q 628 25 628 61 l 628 -60 l 600 -60 l 600 22 q 572 64 600 64 q 552 56 561 64 q 542 40 543 49 q 540 34 542 36 q 539 26 539 32 l 539 -60 l 515 -60 l 515 25 q 486 64 515 64 q 467 56 475 64 q 456 40 458 49 q 454 25 454 35 l 454 -60 l 429 -60 l 429 42 m 921 1013 l 972 1013 l 944 1151 l 921 1013 m 1050 129 l 1050 269 l 1075 269 l 1075 129 l 1050 129 m 328 67 q 297 49 307 67 q 286 10 286 31 q 298 -28 286 -11 q 328 -44 310 -44 q 359 -28 347 -44 q 371 13 371 -11 q 361 49 371 31 q 328 67 351 67 m 138 10 q 158 63 138 42 q 210 83 178 83 q 244 74 235 83 l 240 57 q 228 61 238 58 q 210 64 219 64 q 172 48 186 64 q 158 10 158 32 q 174 -26 158 -11 q 210 -42 189 -42 q 228 -39 219 -42 q 240 -35 238 -36 l 243 -51 q 229 -58 239 -56 q 207 -61 219 -61 q 156 -42 174 -61 q 138 10 138 -24 m 1063 293 q 1046 308 1046 293 q 1063 325 1046 325 q 1078 308 1078 325 q 1063 293 1078 293 m 99 -61 q 85 -56 89 -61 q 81 -44 81 -50 q 99 -26 81 -26 q 115 -44 115 -26 q 110 -56 115 -50 q 99 -61 106 -61 z "},"9":{"ha":1407,"x_min":69,"x_max":1338,"o":"m 357 514 q 347 569 347 539 l 347 715 q 357 771 347 742 q 370 792 363 782 q 388 811 378 803 q 431 838 407 829 q 481 847 454 847 q 532 838 507 847 q 576 811 557 829 q 606 768 597 796 q 615 715 615 740 l 615 569 q 577 474 615 511 q 481 436 539 436 q 431 444 454 436 q 388 472 407 453 q 357 514 368 489 m 492 1258 q 546 1250 525 1258 q 624 1132 624 1214 q 557 1019 624 1056 l 631 865 l 531 865 l 467 1007 l 444 1007 l 444 865 l 353 865 l 353 1258 l 492 1258 m 760 839 l 850 628 l 850 839 l 938 839 l 938 446 l 846 446 l 754 660 l 754 446 l 667 446 l 667 839 l 760 839 m 886 1258 l 1006 1258 l 1089 865 l 999 865 l 986 929 l 906 929 l 893 865 l 803 865 l 886 1258 m 1313 1356 l 1313 1301 l 79 1301 l 79 1356 l 1313 1356 m 1313 408 l 1313 357 l 79 357 l 79 408 l 1313 408 m 92 839 l 315 839 l 315 750 l 182 750 l 182 679 l 301 679 l 301 592 l 182 592 l 182 446 l 92 446 l 92 839 m 975 750 l 975 839 l 1219 839 l 1219 750 l 1143 750 l 1143 446 l 1051 446 l 1051 750 l 975 750 m 69 1258 l 313 1258 l 313 1171 l 238 1171 l 238 865 l 146 865 l 146 1171 l 69 1171 l 69 1258 m 1132 1258 l 1222 1258 l 1222 953 l 1338 953 l 1338 865 l 1132 865 l 1132 1258 m 760 1258 l 760 865 l 669 865 l 669 1258 l 760 1258 m 876 197 q 894 252 876 232 q 939 272 913 272 q 983 251 969 272 l 983 335 l 1008 335 l 1008 165 q 1008 147 1008 156 q 1010 129 1008 138 l 986 129 l 985 154 q 938 128 972 128 q 894 147 911 128 q 876 197 876 165 m 439 569 q 481 525 439 525 q 522 567 522 525 l 522 715 q 510 747 522 736 q 481 760 497 760 q 451 747 464 760 q 439 715 439 736 l 439 569 m 1107 197 q 1127 253 1107 233 q 1178 272 1147 272 q 1225 253 1207 272 q 1243 201 1243 233 q 1222 144 1243 161 q 1175 128 1200 128 q 1127 147 1147 128 q 1107 197 1107 165 m 775 128 q 742 139 758 128 q 726 189 726 150 l 726 269 l 753 269 l 753 192 q 783 149 753 149 q 809 159 799 149 q 819 185 819 169 l 819 269 l 844 269 l 844 167 q 845 149 844 158 q 846 129 846 139 l 824 129 l 821 151 q 806 135 818 143 q 775 128 794 128 m 1133 200 q 1144 161 1133 176 q 1175 146 1156 146 q 1206 161 1194 146 q 1217 200 1217 176 q 1208 235 1217 218 q 1175 253 1199 253 q 1144 237 1154 253 q 1133 200 1133 221 m 944 253 q 913 238 924 253 q 903 200 903 222 q 913 163 903 179 q 943 146 922 146 q 967 153 957 146 q 981 176 978 161 q 982 183 981 181 q 983 189 983 185 l 983 213 q 982 219 983 217 q 981 222 981 221 q 944 253 974 253 m 260 10 q 282 65 260 46 q 331 83 304 83 q 379 65 361 83 q 397 13 397 46 q 375 -43 397 -25 q 328 -61 353 -61 q 281 -42 301 -61 q 260 10 260 -24 m 218 297 l 218 318 l 336 318 l 336 300 l 254 129 l 228 129 l 310 297 l 218 297 m 485 318 l 485 300 l 403 129 l 376 129 l 458 297 l 364 297 l 364 318 l 485 318 m 515 156 q 547 146 528 146 q 576 167 576 146 q 549 192 576 181 q 513 232 513 206 q 525 260 513 249 q 561 272 538 272 q 594 264 579 272 l 589 246 q 561 253 578 253 q 536 233 536 253 q 542 221 536 225 q 563 211 549 217 q 600 169 600 196 q 547 128 600 128 q 507 138 526 128 l 515 156 m 486 1086 q 528 1128 528 1086 q 486 1171 528 1171 l 444 1171 l 444 1086 l 486 1086 m 615 269 l 639 269 l 639 303 l 664 310 l 664 269 l 700 269 l 700 251 l 664 251 l 664 175 q 682 149 664 149 q 697 150 693 149 l 697 131 q 675 128 690 128 q 645 141 651 128 q 639 175 639 154 l 639 251 l 615 251 l 615 269 m 122 318 l 146 318 l 146 129 l 121 129 l 121 293 l 86 276 l 83 294 l 122 318 m 429 42 q 429 63 429 53 q 428 82 429 72 l 449 82 l 449 57 q 466 76 456 68 q 496 83 476 83 q 533 57 521 83 q 549 74 539 64 q 582 83 561 83 q 611 72 594 83 q 628 25 628 61 l 628 -60 l 600 -60 l 600 22 q 572 64 600 64 q 552 56 561 64 q 542 40 543 49 q 540 34 542 36 q 539 26 539 32 l 539 -60 l 515 -60 l 515 25 q 486 64 515 64 q 467 56 475 64 q 456 40 458 49 q 454 25 454 35 l 454 -60 l 429 -60 l 429 42 m 921 1013 l 972 1013 l 944 1151 l 921 1013 m 1050 129 l 1050 269 l 1075 269 l 1075 129 l 1050 129 m 328 67 q 297 49 307 67 q 286 10 286 31 q 298 -28 286 -11 q 328 -44 310 -44 q 359 -28 347 -44 q 371 13 371 -11 q 361 49 371 31 q 328 67 351 67 m 138 10 q 158 63 138 42 q 210 83 178 83 q 244 74 235 83 l 240 57 q 228 61 238 58 q 210 64 219 64 q 172 48 186 64 q 158 10 158 32 q 174 -26 158 -11 q 210 -42 189 -42 q 228 -39 219 -42 q 240 -35 238 -36 l 243 -51 q 229 -58 239 -56 q 207 -61 219 -61 q 156 -42 174 -61 q 138 10 138 -24 m 1063 293 q 1046 308 1046 293 q 1063 325 1046 325 q 1078 308 1078 325 q 1063 293 1078 293 m 99 -61 q 85 -56 89 -61 q 81 -44 81 -50 q 99 -26 81 -26 q 115 -44 115 -26 q 110 -56 115 -50 q 99 -61 106 -61 z "},"\u0000":{"ha":0,"x_min":0,"x_max":0,"o":""},"\r":{"ha":0,"x_min":0,"x_max":0,"o":""}," ":{"ha":554,"x_min":0,"x_max":0,"o":""},"\n":{"ha":0,"x_min":0,"x_max":0,"o":""},"!":{"ha":1407,"x_min":69,"x_max":1338,"o":"m 357 514 q 347 569 347 539 l 347 715 q 357 771 347 742 q 370 792 363 782 q 388 811 378 803 q 431 838 407 829 q 481 847 454 847 q 532 838 507 847 q 576 811 557 829 q 606 768 597 796 q 615 715 615 740 l 615 569 q 577 474 615 511 q 481 436 539 436 q 431 444 454 436 q 388 472 407 453 q 357 514 368 489 m 492 1258 q 546 1250 525 1258 q 624 1132 624 1214 q 557 1019 624 1056 l 631 865 l 531 865 l 467 1007 l 444 1007 l 444 865 l 353 865 l 353 1258 l 492 1258 m 760 839 l 850 628 l 850 839 l 938 839 l 938 446 l 846 446 l 754 660 l 754 446 l 667 446 l 667 839 l 760 839 m 886 1258 l 1006 1258 l 1089 865 l 999 865 l 986 929 l 906 929 l 893 865 l 803 865 l 886 1258 m 1313 1356 l 1313 1301 l 79 1301 l 79 1356 l 1313 1356 m 1313 408 l 1313 357 l 79 357 l 79 408 l 1313 408 m 92 839 l 315 839 l 315 750 l 182 750 l 182 679 l 301 679 l 301 592 l 182 592 l 182 446 l 92 446 l 92 839 m 975 750 l 975 839 l 1219 839 l 1219 750 l 1143 750 l 1143 446 l 1051 446 l 1051 750 l 975 750 m 69 1258 l 313 1258 l 313 1171 l 238 1171 l 238 865 l 146 865 l 146 1171 l 69 1171 l 69 1258 m 1132 1258 l 1222 1258 l 1222 953 l 1338 953 l 1338 865 l 1132 865 l 1132 1258 m 760 1258 l 760 865 l 669 865 l 669 1258 l 760 1258 m 876 197 q 894 252 876 232 q 939 272 913 272 q 983 251 969 272 l 983 335 l 1008 335 l 1008 165 q 1008 147 1008 156 q 1010 129 1008 138 l 986 129 l 985 154 q 938 128 972 128 q 894 147 911 128 q 876 197 876 165 m 439 569 q 481 525 439 525 q 522 567 522 525 l 522 715 q 510 747 522 736 q 481 760 497 760 q 451 747 464 760 q 439 715 439 736 l 439 569 m 1107 197 q 1127 253 1107 233 q 1178 272 1147 272 q 1225 253 1207 272 q 1243 201 1243 233 q 1222 144 1243 161 q 1175 128 1200 128 q 1127 147 1147 128 q 1107 197 1107 165 m 775 128 q 742 139 758 128 q 726 189 726 150 l 726 269 l 753 269 l 753 192 q 783 149 753 149 q 809 159 799 149 q 819 185 819 169 l 819 269 l 844 269 l 844 167 q 845 149 844 158 q 846 129 846 139 l 824 129 l 821 151 q 806 135 818 143 q 775 128 794 128 m 1133 200 q 1144 161 1133 176 q 1175 146 1156 146 q 1206 161 1194 146 q 1217 200 1217 176 q 1208 235 1217 218 q 1175 253 1199 253 q 1144 237 1154 253 q 1133 200 1133 221 m 944 253 q 913 238 924 253 q 903 200 903 222 q 913 163 903 179 q 943 146 922 146 q 967 153 957 146 q 981 176 978 161 q 982 183 981 181 q 983 189 983 185 l 983 213 q 982 219 983 217 q 981 222 981 221 q 944 253 974 253 m 260 10 q 282 65 260 46 q 331 83 304 83 q 379 65 361 83 q 397 13 397 46 q 375 -43 397 -25 q 328 -61 353 -61 q 281 -42 301 -61 q 260 10 260 -24 m 218 297 l 218 318 l 336 318 l 336 300 l 254 129 l 228 129 l 310 297 l 218 297 m 485 318 l 485 300 l 403 129 l 376 129 l 458 297 l 364 297 l 364 318 l 485 318 m 515 156 q 547 146 528 146 q 576 167 576 146 q 549 192 576 181 q 513 232 513 206 q 525 260 513 249 q 561 272 538 272 q 594 264 579 272 l 589 246 q 561 253 578 253 q 536 233 536 253 q 542 221 536 225 q 563 211 549 217 q 600 169 600 196 q 547 128 600 128 q 507 138 526 128 l 515 156 m 486 1086 q 528 1128 528 1086 q 486 1171 528 1171 l 444 1171 l 444 1086 l 486 1086 m 615 269 l 639 269 l 639 303 l 664 310 l 664 269 l 700 269 l 700 251 l 664 251 l 664 175 q 682 149 664 149 q 697 150 693 149 l 697 131 q 675 128 690 128 q 645 141 651 128 q 639 175 639 154 l 639 251 l 615 251 l 615 269 m 122 318 l 146 318 l 146 129 l 121 129 l 121 293 l 86 276 l 83 294 l 122 318 m 429 42 q 429 63 429 53 q 428 82 429 72 l 449 82 l 449 57 q 466 76 456 68 q 496 83 476 83 q 533 57 521 83 q 549 74 539 64 q 582 83 561 83 q 611 72 594 83 q 628 25 628 61 l 628 -60 l 600 -60 l 600 22 q 572 64 600 64 q 552 56 561 64 q 542 40 543 49 q 540 34 542 36 q 539 26 539 32 l 539 -60 l 515 -60 l 515 25 q 486 64 515 64 q 467 56 475 64 q 456 40 458 49 q 454 25 454 35 l 454 -60 l 429 -60 l 429 42 m 921 1013 l 972 1013 l 944 1151 l 921 1013 m 1050 129 l 1050 269 l 1075 269 l 1075 129 l 1050 129 m 328 67 q 297 49 307 67 q 286 10 286 31 q 298 -28 286 -11 q 328 -44 310 -44 q 359 -28 347 -44 q 371 13 371 -11 q 361 49 371 31 q 328 67 351 67 m 138 10 q 158 63 138 42 q 210 83 178 83 q 244 74 235 83 l 240 57 q 228 61 238 58 q 210 64 219 64 q 172 48 186 64 q 158 10 158 32 q 174 -26 158 -11 q 210 -42 189 -42 q 228 -39 219 -42 q 240 -35 238 -36 l 243 -51 q 229 -58 239 -56 q 207 -61 219 -61 q 156 -42 174 -61 q 138 10 138 -24 m 1063 293 q 1046 308 1046 293 q 1063 325 1046 325 q 1078 308 1078 325 q 1063 293 1078 293 m 99 -61 q 85 -56 89 -61 q 81 -44 81 -50 q 99 -26 81 -26 q 115 -44 115 -26 q 110 -56 115 -50 q 99 -61 106 -61 z "},"\"":{"ha":631,"x_min":61,"x_max":567,"o":"m 61 1236 q 69 1282 61 1260 q 92 1321 78 1304 q 128 1348 107 1338 q 174 1358 149 1358 q 253 1322 221 1358 q 286 1236 286 1288 q 250 1099 286 1161 q 146 1006 214 1038 q 174 1113 174 1053 q 128 1123 149 1113 q 92 1150 107 1133 q 69 1189 78 1167 q 61 1236 61 1211 m 343 1236 q 375 1322 343 1288 q 454 1358 407 1358 q 499 1348 479 1358 q 535 1321 519 1338 q 558 1282 550 1304 q 567 1236 567 1260 q 531 1099 567 1161 q 428 1006 496 1038 q 454 1113 454 1054 q 375 1149 407 1113 q 343 1236 343 1183 z "},"#":{"ha":1068,"x_min":81,"x_max":982,"o":"m 325 928 q 343 991 335 960 q 358 1051 351 1022 q 385 1153 372 1101 q 407 1233 399 1204 q 408 1235 407 1235 q 408 1238 408 1236 l 642 1238 q 622 1162 635 1213 q 594 1058 608 1111 q 578 995 588 1028 q 560 928 569 963 l 668 928 q 687 995 678 963 q 703 1058 696 1028 q 716 1111 710 1085 q 728 1162 722 1138 q 740 1206 735 1186 q 750 1238 746 1225 l 982 1238 q 965 1169 978 1219 q 938 1065 951 1119 q 920 999 929 1033 q 901 928 911 964 l 982 928 l 982 681 l 835 681 l 804 556 l 982 556 l 982 308 l 738 308 q 719 244 728 275 q 704 182 711 213 q 677 80 690 132 q 656 0 664 28 l 421 0 q 442 74 428 24 q 469 178 456 125 q 485 241 476 208 q 504 308 494 274 l 396 308 q 377 239 386 272 q 361 175 368 206 q 347 122 354 149 q 333 71 340 94 q 322 28 326 47 q 314 0 317 10 l 81 0 q 100 76 89 33 q 122 161 111 118 q 144 243 133 204 q 161 308 154 282 l 81 308 l 81 556 l 228 556 l 260 681 l 81 681 l 81 928 l 325 928 m 568 556 l 601 679 l 493 679 l 461 556 l 568 556 z "},"$":{"ha":911,"x_min":67,"x_max":853,"o":"m 432 583 q 67 943 67 617 q 94 1092 67 1026 q 167 1204 121 1157 q 274 1280 213 1251 q 404 1318 336 1308 l 404 1468 l 515 1468 l 515 1092 q 432 1088 472 1096 q 360 1062 392 1081 q 310 1013 329 1043 q 292 943 292 983 q 300 894 292 917 q 330 856 308 872 q 388 828 351 839 q 483 814 425 818 q 764 696 675 792 q 853 449 853 600 q 826 303 853 368 q 754 190 800 238 q 647 114 708 143 q 515 76 585 85 l 515 -76 l 404 -76 l 404 293 l 415 293 q 499 301 460 290 q 566 331 538 311 q 611 381 594 351 q 628 449 628 411 q 585 539 628 503 q 432 583 542 575 z "},"%":{"ha":757,"x_min":65,"x_max":693,"o":"m 101 8 q 126 106 110 43 q 165 250 143 168 q 211 426 186 332 q 263 618 236 521 q 314 810 289 715 q 360 985 339 904 q 399 1130 382 1067 q 424 1226 415 1193 l 656 1226 q 642 1172 656 1225 q 605 1033 628 1118 q 553 838 582 947 q 494 615 524 729 q 435 392 464 501 q 383 199 406 283 q 347 61 361 114 q 333 8 333 8 l 101 8 m 178 908 q 133 919 153 908 q 97 946 113 929 q 74 985 82 963 q 65 1032 65 1007 q 97 1119 65 1082 q 178 1156 129 1156 q 258 1119 226 1156 q 290 1032 290 1082 q 282 985 290 1007 q 258 946 274 963 q 222 919 243 929 q 178 908 201 908 m 581 81 q 500 117 532 81 q 468 203 468 153 q 476 250 468 228 q 500 289 485 272 q 535 316 515 306 q 581 326 556 326 q 624 316 604 326 q 660 289 644 306 q 684 250 675 272 q 693 203 693 228 q 660 117 693 153 q 581 81 628 81 z "},"&":{"ha":1108,"x_min":79,"x_max":1038,"o":"m 118 208 q 88 306 97 253 q 85 413 79 358 q 110 520 90 467 q 167 617 129 574 q 82 865 82 714 q 113 1021 82 951 q 197 1140 143 1090 q 322 1216 250 1189 q 476 1243 393 1243 q 678 1194 589 1243 q 815 1067 768 1144 l 643 889 q 574 967 621 939 q 469 994 528 994 q 412 987 440 994 q 360 963 383 979 q 322 923 336 947 q 307 865 307 899 q 326 797 307 821 q 376 760 344 772 q 451 747 408 749 q 540 744 493 744 l 1038 744 l 1038 497 l 851 497 q 868 374 868 439 q 883 316 868 340 q 924 276 899 292 q 978 252 949 260 q 1038 244 1008 244 l 1038 0 q 756 103 867 0 q 631 26 703 51 q 485 -1 560 1 q 381 8 435 -4 q 277 46 326 19 q 186 113 228 72 q 118 208 144 153 m 307 374 q 322 314 307 339 q 362 274 338 289 q 416 253 386 260 q 476 246 446 246 q 536 253 506 246 q 590 275 567 260 q 629 315 614 290 q 644 374 644 339 q 610 456 644 424 q 526 496 575 489 q 426 496 476 503 q 342 458 378 489 q 307 374 307 426 z "},"'":{"ha":349,"x_min":61,"x_max":286,"o":"m 174 1085 q 128 1095 149 1085 q 92 1122 107 1106 q 69 1161 78 1139 q 61 1208 61 1183 q 69 1254 61 1232 q 92 1293 78 1276 q 128 1320 107 1310 q 174 1331 149 1331 q 253 1294 221 1331 q 286 1208 286 1260 q 250 1072 286 1133 q 146 978 214 1010 q 174 1085 174 1025 z "},"(":{"ha":589,"x_min":82,"x_max":531,"o":"m 82 681 q 90 860 82 764 q 119 1051 99 956 q 174 1236 140 1147 q 257 1394 207 1325 q 374 1503 307 1463 q 531 1544 442 1544 l 531 1299 q 453 1266 486 1297 q 394 1185 419 1235 q 353 1070 369 1135 q 326 938 336 1006 q 311 803 315 869 q 307 681 307 736 q 310 562 307 628 q 322 428 313 496 q 346 294 331 360 q 386 178 361 229 q 447 97 411 128 q 531 64 482 65 l 531 -185 q 370 -133 439 -176 q 251 -24 301 -90 q 169 128 201 43 q 117 308 136 214 q 90 497 97 401 q 82 681 82 593 z "},")":{"ha":590,"x_min":56,"x_max":506,"o":"m 56 1575 q 213 1534 144 1575 q 331 1424 281 1493 q 415 1267 381 1356 q 469 1082 449 1178 q 497 890 489 986 q 506 710 506 793 q 498 526 506 622 q 471 337 490 431 q 419 158 451 243 q 336 6 386 72 q 217 -104 286 -61 q 56 -156 147 -147 l 56 93 q 141 126 106 94 q 201 209 176 158 q 242 325 226 260 q 266 458 257 390 q 278 592 275 526 q 281 711 281 658 q 276 833 281 767 q 260 968 271 900 q 233 1101 250 1036 q 192 1215 217 1165 q 133 1297 167 1265 q 56 1329 99 1328 l 56 1575 z "},"*":{"ha":474,"x_min":63,"x_max":411,"o":"m 68 1122 q 67 1126 68 1125 q 65 1130 65 1129 q 63 1133 64 1131 q 66 1136 65 1135 q 69 1139 67 1138 q 74 1140 71 1140 l 125 1172 l 63 1213 l 119 1319 q 126 1315 124 1318 q 129 1314 128 1314 l 181 1281 l 181 1357 l 293 1357 l 293 1281 l 343 1314 l 354 1319 l 358 1311 q 360 1307 360 1310 l 411 1213 q 406 1209 408 1210 q 403 1207 404 1208 l 349 1172 l 403 1139 q 411 1133 407 1135 q 409 1130 410 1131 q 407 1126 408 1129 q 406 1122 406 1125 l 354 1026 q 346 1031 349 1029 l 293 1067 l 293 986 l 181 986 l 181 1067 l 129 1032 q 126 1031 128 1032 q 119 1026 124 1028 l 68 1122 z "},"+":{"ha":460,"x_min":61,"x_max":399,"o":"m 61 675 l 61 799 l 174 799 l 174 921 l 286 921 l 286 799 l 399 799 l 399 675 l 286 675 l 286 551 l 174 551 l 174 675 l 61 675 z "},",":{"ha":1407,"x_min":69,"x_max":1338,"o":"m 357 514 q 347 569 347 539 l 347 715 q 357 771 347 742 q 370 792 363 782 q 388 811 378 803 q 431 838 407 829 q 481 847 454 847 q 532 838 507 847 q 576 811 557 829 q 606 768 597 796 q 615 715 615 740 l 615 569 q 577 474 615 511 q 481 436 539 436 q 431 444 454 436 q 388 472 407 453 q 357 514 368 489 m 492 1258 q 546 1250 525 1258 q 624 1132 624 1214 q 557 1019 624 1056 l 631 865 l 531 865 l 467 1007 l 444 1007 l 444 865 l 353 865 l 353 1258 l 492 1258 m 760 839 l 850 628 l 850 839 l 938 839 l 938 446 l 846 446 l 754 660 l 754 446 l 667 446 l 667 839 l 760 839 m 886 1258 l 1006 1258 l 1089 865 l 999 865 l 986 929 l 906 929 l 893 865 l 803 865 l 886 1258 m 1313 1356 l 1313 1301 l 79 1301 l 79 1356 l 1313 1356 m 1313 408 l 1313 357 l 79 357 l 79 408 l 1313 408 m 92 839 l 315 839 l 315 750 l 182 750 l 182 679 l 301 679 l 301 592 l 182 592 l 182 446 l 92 446 l 92 839 m 975 750 l 975 839 l 1219 839 l 1219 750 l 1143 750 l 1143 446 l 1051 446 l 1051 750 l 975 750 m 69 1258 l 313 1258 l 313 1171 l 238 1171 l 238 865 l 146 865 l 146 1171 l 69 1171 l 69 1258 m 1132 1258 l 1222 1258 l 1222 953 l 1338 953 l 1338 865 l 1132 865 l 1132 1258 m 760 1258 l 760 865 l 669 865 l 669 1258 l 760 1258 m 876 197 q 894 252 876 232 q 939 272 913 272 q 983 251 969 272 l 983 335 l 1008 335 l 1008 165 q 1008 147 1008 156 q 1010 129 1008 138 l 986 129 l 985 154 q 938 128 972 128 q 894 147 911 128 q 876 197 876 165 m 439 569 q 481 525 439 525 q 522 567 522 525 l 522 715 q 510 747 522 736 q 481 760 497 760 q 451 747 464 760 q 439 715 439 736 l 439 569 m 1107 197 q 1127 253 1107 233 q 1178 272 1147 272 q 1225 253 1207 272 q 1243 201 1243 233 q 1222 144 1243 161 q 1175 128 1200 128 q 1127 147 1147 128 q 1107 197 1107 165 m 775 128 q 742 139 758 128 q 726 189 726 150 l 726 269 l 753 269 l 753 192 q 783 149 753 149 q 809 159 799 149 q 819 185 819 169 l 819 269 l 844 269 l 844 167 q 845 149 844 158 q 846 129 846 139 l 824 129 l 821 151 q 806 135 818 143 q 775 128 794 128 m 1133 200 q 1144 161 1133 176 q 1175 146 1156 146 q 1206 161 1194 146 q 1217 200 1217 176 q 1208 235 1217 218 q 1175 253 1199 253 q 1144 237 1154 253 q 1133 200 1133 221 m 944 253 q 913 238 924 253 q 903 200 903 222 q 913 163 903 179 q 943 146 922 146 q 967 153 957 146 q 981 176 978 161 q 982 183 981 181 q 983 189 983 185 l 983 213 q 982 219 983 217 q 981 222 981 221 q 944 253 974 253 m 260 10 q 282 65 260 46 q 331 83 304 83 q 379 65 361 83 q 397 13 397 46 q 375 -43 397 -25 q 328 -61 353 -61 q 281 -42 301 -61 q 260 10 260 -24 m 218 297 l 218 318 l 336 318 l 336 300 l 254 129 l 228 129 l 310 297 l 218 297 m 485 318 l 485 300 l 403 129 l 376 129 l 458 297 l 364 297 l 364 318 l 485 318 m 515 156 q 547 146 528 146 q 576 167 576 146 q 549 192 576 181 q 513 232 513 206 q 525 260 513 249 q 561 272 538 272 q 594 264 579 272 l 589 246 q 561 253 578 253 q 536 233 536 253 q 542 221 536 225 q 563 211 549 217 q 600 169 600 196 q 547 128 600 128 q 507 138 526 128 l 515 156 m 486 1086 q 528 1128 528 1086 q 486 1171 528 1171 l 444 1171 l 444 1086 l 486 1086 m 615 269 l 639 269 l 639 303 l 664 310 l 664 269 l 700 269 l 700 251 l 664 251 l 664 175 q 682 149 664 149 q 697 150 693 149 l 697 131 q 675 128 690 128 q 645 141 651 128 q 639 175 639 154 l 639 251 l 615 251 l 615 269 m 122 318 l 146 318 l 146 129 l 121 129 l 121 293 l 86 276 l 83 294 l 122 318 m 429 42 q 429 63 429 53 q 428 82 429 72 l 449 82 l 449 57 q 466 76 456 68 q 496 83 476 83 q 533 57 521 83 q 549 74 539 64 q 582 83 561 83 q 611 72 594 83 q 628 25 628 61 l 628 -60 l 600 -60 l 600 22 q 572 64 600 64 q 552 56 561 64 q 542 40 543 49 q 540 34 542 36 q 539 26 539 32 l 539 -60 l 515 -60 l 515 25 q 486 64 515 64 q 467 56 475 64 q 456 40 458 49 q 454 25 454 35 l 454 -60 l 429 -60 l 429 42 m 921 1013 l 972 1013 l 944 1151 l 921 1013 m 1050 129 l 1050 269 l 1075 269 l 1075 129 l 1050 129 m 328 67 q 297 49 307 67 q 286 10 286 31 q 298 -28 286 -11 q 328 -44 310 -44 q 359 -28 347 -44 q 371 13 371 -11 q 361 49 371 31 q 328 67 351 67 m 138 10 q 158 63 138 42 q 210 83 178 83 q 244 74 235 83 l 240 57 q 228 61 238 58 q 210 64 219 64 q 172 48 186 64 q 158 10 158 32 q 174 -26 158 -11 q 210 -42 189 -42 q 228 -39 219 -42 q 240 -35 238 -36 l 243 -51 q 229 -58 239 -56 q 207 -61 219 -61 q 156 -42 174 -61 q 138 10 138 -24 m 1063 293 q 1046 308 1046 293 q 1063 325 1046 325 q 1078 308 1078 325 q 1063 293 1078 293 m 99 -61 q 85 -56 89 -61 q 81 -44 81 -50 q 99 -26 81 -26 q 115 -44 115 -26 q 110 -56 115 -50 q 99 -61 106 -61 z "},"-":{"ha":1407,"x_min":69,"x_max":1338,"o":"m 357 514 q 347 569 347 539 l 347 715 q 357 771 347 742 q 370 792 363 782 q 388 811 378 803 q 431 838 407 829 q 481 847 454 847 q 532 838 507 847 q 576 811 557 829 q 606 768 597 796 q 615 715 615 740 l 615 569 q 577 474 615 511 q 481 436 539 436 q 431 444 454 436 q 388 472 407 453 q 357 514 368 489 m 492 1258 q 546 1250 525 1258 q 624 1132 624 1214 q 557 1019 624 1056 l 631 865 l 531 865 l 467 1007 l 444 1007 l 444 865 l 353 865 l 353 1258 l 492 1258 m 760 839 l 850 628 l 850 839 l 938 839 l 938 446 l 846 446 l 754 660 l 754 446 l 667 446 l 667 839 l 760 839 m 886 1258 l 1006 1258 l 1089 865 l 999 865 l 986 929 l 906 929 l 893 865 l 803 865 l 886 1258 m 1313 1356 l 1313 1301 l 79 1301 l 79 1356 l 1313 1356 m 1313 408 l 1313 357 l 79 357 l 79 408 l 1313 408 m 92 839 l 315 839 l 315 750 l 182 750 l 182 679 l 301 679 l 301 592 l 182 592 l 182 446 l 92 446 l 92 839 m 975 750 l 975 839 l 1219 839 l 1219 750 l 1143 750 l 1143 446 l 1051 446 l 1051 750 l 975 750 m 69 1258 l 313 1258 l 313 1171 l 238 1171 l 238 865 l 146 865 l 146 1171 l 69 1171 l 69 1258 m 1132 1258 l 1222 1258 l 1222 953 l 1338 953 l 1338 865 l 1132 865 l 1132 1258 m 760 1258 l 760 865 l 669 865 l 669 1258 l 760 1258 m 876 197 q 894 252 876 232 q 939 272 913 272 q 983 251 969 272 l 983 335 l 1008 335 l 1008 165 q 1008 147 1008 156 q 1010 129 1008 138 l 986 129 l 985 154 q 938 128 972 128 q 894 147 911 128 q 876 197 876 165 m 439 569 q 481 525 439 525 q 522 567 522 525 l 522 715 q 510 747 522 736 q 481 760 497 760 q 451 747 464 760 q 439 715 439 736 l 439 569 m 1107 197 q 1127 253 1107 233 q 1178 272 1147 272 q 1225 253 1207 272 q 1243 201 1243 233 q 1222 144 1243 161 q 1175 128 1200 128 q 1127 147 1147 128 q 1107 197 1107 165 m 775 128 q 742 139 758 128 q 726 189 726 150 l 726 269 l 753 269 l 753 192 q 783 149 753 149 q 809 159 799 149 q 819 185 819 169 l 819 269 l 844 269 l 844 167 q 845 149 844 158 q 846 129 846 139 l 824 129 l 821 151 q 806 135 818 143 q 775 128 794 128 m 1133 200 q 1144 161 1133 176 q 1175 146 1156 146 q 1206 161 1194 146 q 1217 200 1217 176 q 1208 235 1217 218 q 1175 253 1199 253 q 1144 237 1154 253 q 1133 200 1133 221 m 944 253 q 913 238 924 253 q 903 200 903 222 q 913 163 903 179 q 943 146 922 146 q 967 153 957 146 q 981 176 978 161 q 982 183 981 181 q 983 189 983 185 l 983 213 q 982 219 983 217 q 981 222 981 221 q 944 253 974 253 m 260 10 q 282 65 260 46 q 331 83 304 83 q 379 65 361 83 q 397 13 397 46 q 375 -43 397 -25 q 328 -61 353 -61 q 281 -42 301 -61 q 260 10 260 -24 m 218 297 l 218 318 l 336 318 l 336 300 l 254 129 l 228 129 l 310 297 l 218 297 m 485 318 l 485 300 l 403 129 l 376 129 l 458 297 l 364 297 l 364 318 l 485 318 m 515 156 q 547 146 528 146 q 576 167 576 146 q 549 192 576 181 q 513 232 513 206 q 525 260 513 249 q 561 272 538 272 q 594 264 579 272 l 589 246 q 561 253 578 253 q 536 233 536 253 q 542 221 536 225 q 563 211 549 217 q 600 169 600 196 q 547 128 600 128 q 507 138 526 128 l 515 156 m 486 1086 q 528 1128 528 1086 q 486 1171 528 1171 l 444 1171 l 444 1086 l 486 1086 m 615 269 l 639 269 l 639 303 l 664 310 l 664 269 l 700 269 l 700 251 l 664 251 l 664 175 q 682 149 664 149 q 697 150 693 149 l 697 131 q 675 128 690 128 q 645 141 651 128 q 639 175 639 154 l 639 251 l 615 251 l 615 269 m 122 318 l 146 318 l 146 129 l 121 129 l 121 293 l 86 276 l 83 294 l 122 318 m 429 42 q 429 63 429 53 q 428 82 429 72 l 449 82 l 449 57 q 466 76 456 68 q 496 83 476 83 q 533 57 521 83 q 549 74 539 64 q 582 83 561 83 q 611 72 594 83 q 628 25 628 61 l 628 -60 l 600 -60 l 600 22 q 572 64 600 64 q 552 56 561 64 q 542 40 543 49 q 540 34 542 36 q 539 26 539 32 l 539 -60 l 515 -60 l 515 25 q 486 64 515 64 q 467 56 475 64 q 456 40 458 49 q 454 25 454 35 l 454 -60 l 429 -60 l 429 42 m 921 1013 l 972 1013 l 944 1151 l 921 1013 m 1050 129 l 1050 269 l 1075 269 l 1075 129 l 1050 129 m 328 67 q 297 49 307 67 q 286 10 286 31 q 298 -28 286 -11 q 328 -44 310 -44 q 359 -28 347 -44 q 371 13 371 -11 q 361 49 371 31 q 328 67 351 67 m 138 10 q 158 63 138 42 q 210 83 178 83 q 244 74 235 83 l 240 57 q 228 61 238 58 q 210 64 219 64 q 172 48 186 64 q 158 10 158 32 q 174 -26 158 -11 q 210 -42 189 -42 q 228 -39 219 -42 q 240 -35 238 -36 l 243 -51 q 229 -58 239 -56 q 207 -61 219 -61 q 156 -42 174 -61 q 138 10 138 -24 m 1063 293 q 1046 308 1046 293 q 1063 325 1046 325 q 1078 308 1078 325 q 1063 293 1078 293 m 99 -61 q 85 -56 89 -61 q 81 -44 81 -50 q 99 -26 81 -26 q 115 -44 115 -26 q 110 -56 115 -50 q 99 -61 106 -61 z "},".":{"ha":1407,"x_min":69,"x_max":1338,"o":"m 357 514 q 347 569 347 539 l 347 715 q 357 771 347 742 q 370 792 363 782 q 388 811 378 803 q 431 838 407 829 q 481 847 454 847 q 532 838 507 847 q 576 811 557 829 q 606 768 597 796 q 615 715 615 740 l 615 569 q 577 474 615 511 q 481 436 539 436 q 431 444 454 436 q 388 472 407 453 q 357 514 368 489 m 492 1258 q 546 1250 525 1258 q 624 1132 624 1214 q 557 1019 624 1056 l 631 865 l 531 865 l 467 1007 l 444 1007 l 444 865 l 353 865 l 353 1258 l 492 1258 m 760 839 l 850 628 l 850 839 l 938 839 l 938 446 l 846 446 l 754 660 l 754 446 l 667 446 l 667 839 l 760 839 m 886 1258 l 1006 1258 l 1089 865 l 999 865 l 986 929 l 906 929 l 893 865 l 803 865 l 886 1258 m 1313 1356 l 1313 1301 l 79 1301 l 79 1356 l 1313 1356 m 1313 408 l 1313 357 l 79 357 l 79 408 l 1313 408 m 92 839 l 315 839 l 315 750 l 182 750 l 182 679 l 301 679 l 301 592 l 182 592 l 182 446 l 92 446 l 92 839 m 975 750 l 975 839 l 1219 839 l 1219 750 l 1143 750 l 1143 446 l 1051 446 l 1051 750 l 975 750 m 69 1258 l 313 1258 l 313 1171 l 238 1171 l 238 865 l 146 865 l 146 1171 l 69 1171 l 69 1258 m 1132 1258 l 1222 1258 l 1222 953 l 1338 953 l 1338 865 l 1132 865 l 1132 1258 m 760 1258 l 760 865 l 669 865 l 669 1258 l 760 1258 m 876 197 q 894 252 876 232 q 939 272 913 272 q 983 251 969 272 l 983 335 l 1008 335 l 1008 165 q 1008 147 1008 156 q 1010 129 1008 138 l 986 129 l 985 154 q 938 128 972 128 q 894 147 911 128 q 876 197 876 165 m 439 569 q 481 525 439 525 q 522 567 522 525 l 522 715 q 510 747 522 736 q 481 760 497 760 q 451 747 464 760 q 439 715 439 736 l 439 569 m 1107 197 q 1127 253 1107 233 q 1178 272 1147 272 q 1225 253 1207 272 q 1243 201 1243 233 q 1222 144 1243 161 q 1175 128 1200 128 q 1127 147 1147 128 q 1107 197 1107 165 m 775 128 q 742 139 758 128 q 726 189 726 150 l 726 269 l 753 269 l 753 192 q 783 149 753 149 q 809 159 799 149 q 819 185 819 169 l 819 269 l 844 269 l 844 167 q 845 149 844 158 q 846 129 846 139 l 824 129 l 821 151 q 806 135 818 143 q 775 128 794 128 m 1133 200 q 1144 161 1133 176 q 1175 146 1156 146 q 1206 161 1194 146 q 1217 200 1217 176 q 1208 235 1217 218 q 1175 253 1199 253 q 1144 237 1154 253 q 1133 200 1133 221 m 944 253 q 913 238 924 253 q 903 200 903 222 q 913 163 903 179 q 943 146 922 146 q 967 153 957 146 q 981 176 978 161 q 982 183 981 181 q 983 189 983 185 l 983 213 q 982 219 983 217 q 981 222 981 221 q 944 253 974 253 m 260 10 q 282 65 260 46 q 331 83 304 83 q 379 65 361 83 q 397 13 397 46 q 375 -43 397 -25 q 328 -61 353 -61 q 281 -42 301 -61 q 260 10 260 -24 m 218 297 l 218 318 l 336 318 l 336 300 l 254 129 l 228 129 l 310 297 l 218 297 m 485 318 l 485 300 l 403 129 l 376 129 l 458 297 l 364 297 l 364 318 l 485 318 m 515 156 q 547 146 528 146 q 576 167 576 146 q 549 192 576 181 q 513 232 513 206 q 525 260 513 249 q 561 272 538 272 q 594 264 579 272 l 589 246 q 561 253 578 253 q 536 233 536 253 q 542 221 536 225 q 563 211 549 217 q 600 169 600 196 q 547 128 600 128 q 507 138 526 128 l 515 156 m 486 1086 q 528 1128 528 1086 q 486 1171 528 1171 l 444 1171 l 444 1086 l 486 1086 m 615 269 l 639 269 l 639 303 l 664 310 l 664 269 l 700 269 l 700 251 l 664 251 l 664 175 q 682 149 664 149 q 697 150 693 149 l 697 131 q 675 128 690 128 q 645 141 651 128 q 639 175 639 154 l 639 251 l 615 251 l 615 269 m 122 318 l 146 318 l 146 129 l 121 129 l 121 293 l 86 276 l 83 294 l 122 318 m 429 42 q 429 63 429 53 q 428 82 429 72 l 449 82 l 449 57 q 466 76 456 68 q 496 83 476 83 q 533 57 521 83 q 549 74 539 64 q 582 83 561 83 q 611 72 594 83 q 628 25 628 61 l 628 -60 l 600 -60 l 600 22 q 572 64 600 64 q 552 56 561 64 q 542 40 543 49 q 540 34 542 36 q 539 26 539 32 l 539 -60 l 515 -60 l 515 25 q 486 64 515 64 q 467 56 475 64 q 456 40 458 49 q 454 25 454 35 l 454 -60 l 429 -60 l 429 42 m 921 1013 l 972 1013 l 944 1151 l 921 1013 m 1050 129 l 1050 269 l 1075 269 l 1075 129 l 1050 129 m 328 67 q 297 49 307 67 q 286 10 286 31 q 298 -28 286 -11 q 328 -44 310 -44 q 359 -28 347 -44 q 371 13 371 -11 q 361 49 371 31 q 328 67 351 67 m 138 10 q 158 63 138 42 q 210 83 178 83 q 244 74 235 83 l 240 57 q 228 61 238 58 q 210 64 219 64 q 172 48 186 64 q 158 10 158 32 q 174 -26 158 -11 q 210 -42 189 -42 q 228 -39 219 -42 q 240 -35 238 -36 l 243 -51 q 229 -58 239 -56 q 207 -61 219 -61 q 156 -42 174 -61 q 138 10 138 -24 m 1063 293 q 1046 308 1046 293 q 1063 325 1046 325 q 1078 308 1078 325 q 1063 293 1078 293 m 99 -61 q 85 -56 89 -61 q 81 -44 81 -50 q 99 -26 81 -26 q 115 -44 115 -26 q 110 -56 115 -50 q 99 -61 106 -61 z "},"/":{"ha":1407,"x_min":69,"x_max":1338,"o":"m 357 514 q 347 569 347 539 l 347 715 q 357 771 347 742 q 370 792 363 782 q 388 811 378 803 q 431 838 407 829 q 481 847 454 847 q 532 838 507 847 q 576 811 557 829 q 606 768 597 796 q 615 715 615 740 l 615 569 q 577 474 615 511 q 481 436 539 436 q 431 444 454 436 q 388 472 407 453 q 357 514 368 489 m 492 1258 q 546 1250 525 1258 q 624 1132 624 1214 q 557 1019 624 1056 l 631 865 l 531 865 l 467 1007 l 444 1007 l 444 865 l 353 865 l 353 1258 l 492 1258 m 760 839 l 850 628 l 850 839 l 938 839 l 938 446 l 846 446 l 754 660 l 754 446 l 667 446 l 667 839 l 760 839 m 886 1258 l 1006 1258 l 1089 865 l 999 865 l 986 929 l 906 929 l 893 865 l 803 865 l 886 1258 m 1313 1356 l 1313 1301 l 79 1301 l 79 1356 l 1313 1356 m 1313 408 l 1313 357 l 79 357 l 79 408 l 1313 408 m 92 839 l 315 839 l 315 750 l 182 750 l 182 679 l 301 679 l 301 592 l 182 592 l 182 446 l 92 446 l 92 839 m 975 750 l 975 839 l 1219 839 l 1219 750 l 1143 750 l 1143 446 l 1051 446 l 1051 750 l 975 750 m 69 1258 l 313 1258 l 313 1171 l 238 1171 l 238 865 l 146 865 l 146 1171 l 69 1171 l 69 1258 m 1132 1258 l 1222 1258 l 1222 953 l 1338 953 l 1338 865 l 1132 865 l 1132 1258 m 760 1258 l 760 865 l 669 865 l 669 1258 l 760 1258 m 876 197 q 894 252 876 232 q 939 272 913 272 q 983 251 969 272 l 983 335 l 1008 335 l 1008 165 q 1008 147 1008 156 q 1010 129 1008 138 l 986 129 l 985 154 q 938 128 972 128 q 894 147 911 128 q 876 197 876 165 m 439 569 q 481 525 439 525 q 522 567 522 525 l 522 715 q 510 747 522 736 q 481 760 497 760 q 451 747 464 760 q 439 715 439 736 l 439 569 m 1107 197 q 1127 253 1107 233 q 1178 272 1147 272 q 1225 253 1207 272 q 1243 201 1243 233 q 1222 144 1243 161 q 1175 128 1200 128 q 1127 147 1147 128 q 1107 197 1107 165 m 775 128 q 742 139 758 128 q 726 189 726 150 l 726 269 l 753 269 l 753 192 q 783 149 753 149 q 809 159 799 149 q 819 185 819 169 l 819 269 l 844 269 l 844 167 q 845 149 844 158 q 846 129 846 139 l 824 129 l 821 151 q 806 135 818 143 q 775 128 794 128 m 1133 200 q 1144 161 1133 176 q 1175 146 1156 146 q 1206 161 1194 146 q 1217 200 1217 176 q 1208 235 1217 218 q 1175 253 1199 253 q 1144 237 1154 253 q 1133 200 1133 221 m 944 253 q 913 238 924 253 q 903 200 903 222 q 913 163 903 179 q 943 146 922 146 q 967 153 957 146 q 981 176 978 161 q 982 183 981 181 q 983 189 983 185 l 983 213 q 982 219 983 217 q 981 222 981 221 q 944 253 974 253 m 260 10 q 282 65 260 46 q 331 83 304 83 q 379 65 361 83 q 397 13 397 46 q 375 -43 397 -25 q 328 -61 353 -61 q 281 -42 301 -61 q 260 10 260 -24 m 218 297 l 218 318 l 336 318 l 336 300 l 254 129 l 228 129 l 310 297 l 218 297 m 485 318 l 485 300 l 403 129 l 376 129 l 458 297 l 364 297 l 364 318 l 485 318 m 515 156 q 547 146 528 146 q 576 167 576 146 q 549 192 576 181 q 513 232 513 206 q 525 260 513 249 q 561 272 538 272 q 594 264 579 272 l 589 246 q 561 253 578 253 q 536 233 536 253 q 542 221 536 225 q 563 211 549 217 q 600 169 600 196 q 547 128 600 128 q 507 138 526 128 l 515 156 m 486 1086 q 528 1128 528 1086 q 486 1171 528 1171 l 444 1171 l 444 1086 l 486 1086 m 615 269 l 639 269 l 639 303 l 664 310 l 664 269 l 700 269 l 700 251 l 664 251 l 664 175 q 682 149 664 149 q 697 150 693 149 l 697 131 q 675 128 690 128 q 645 141 651 128 q 639 175 639 154 l 639 251 l 615 251 l 615 269 m 122 318 l 146 318 l 146 129 l 121 129 l 121 293 l 86 276 l 83 294 l 122 318 m 429 42 q 429 63 429 53 q 428 82 429 72 l 449 82 l 449 57 q 466 76 456 68 q 496 83 476 83 q 533 57 521 83 q 549 74 539 64 q 582 83 561 83 q 611 72 594 83 q 628 25 628 61 l 628 -60 l 600 -60 l 600 22 q 572 64 600 64 q 552 56 561 64 q 542 40 543 49 q 540 34 542 36 q 539 26 539 32 l 539 -60 l 515 -60 l 515 25 q 486 64 515 64 q 467 56 475 64 q 456 40 458 49 q 454 25 454 35 l 454 -60 l 429 -60 l 429 42 m 921 1013 l 972 1013 l 944 1151 l 921 1013 m 1050 129 l 1050 269 l 1075 269 l 1075 129 l 1050 129 m 328 67 q 297 49 307 67 q 286 10 286 31 q 298 -28 286 -11 q 328 -44 310 -44 q 359 -28 347 -44 q 371 13 371 -11 q 361 49 371 31 q 328 67 351 67 m 138 10 q 158 63 138 42 q 210 83 178 83 q 244 74 235 83 l 240 57 q 228 61 238 58 q 210 64 219 64 q 172 48 186 64 q 158 10 158 32 q 174 -26 158 -11 q 210 -42 189 -42 q 228 -39 219 -42 q 240 -35 238 -36 l 243 -51 q 229 -58 239 -56 q 207 -61 219 -61 q 156 -42 174 -61 q 138 10 138 -24 m 1063 293 q 1046 308 1046 293 q 1063 325 1046 325 q 1078 308 1078 325 q 1063 293 1078 293 m 99 -61 q 85 -56 89 -61 q 81 -44 81 -50 q 99 -26 81 -26 q 115 -44 115 -26 q 110 -56 115 -50 q 99 -61 106 -61 z "},":":{"ha":1407,"x_min":69,"x_max":1338,"o":"m 357 514 q 347 569 347 539 l 347 715 q 357 771 347 742 q 370 792 363 782 q 388 811 378 803 q 431 838 407 829 q 481 847 454 847 q 532 838 507 847 q 576 811 557 829 q 606 768 597 796 q 615 715 615 740 l 615 569 q 577 474 615 511 q 481 436 539 436 q 431 444 454 436 q 388 472 407 453 q 357 514 368 489 m 492 1258 q 546 1250 525 1258 q 624 1132 624 1214 q 557 1019 624 1056 l 631 865 l 531 865 l 467 1007 l 444 1007 l 444 865 l 353 865 l 353 1258 l 492 1258 m 760 839 l 850 628 l 850 839 l 938 839 l 938 446 l 846 446 l 754 660 l 754 446 l 667 446 l 667 839 l 760 839 m 886 1258 l 1006 1258 l 1089 865 l 999 865 l 986 929 l 906 929 l 893 865 l 803 865 l 886 1258 m 1313 1356 l 1313 1301 l 79 1301 l 79 1356 l 1313 1356 m 1313 408 l 1313 357 l 79 357 l 79 408 l 1313 408 m 92 839 l 315 839 l 315 750 l 182 750 l 182 679 l 301 679 l 301 592 l 182 592 l 182 446 l 92 446 l 92 839 m 975 750 l 975 839 l 1219 839 l 1219 750 l 1143 750 l 1143 446 l 1051 446 l 1051 750 l 975 750 m 69 1258 l 313 1258 l 313 1171 l 238 1171 l 238 865 l 146 865 l 146 1171 l 69 1171 l 69 1258 m 1132 1258 l 1222 1258 l 1222 953 l 1338 953 l 1338 865 l 1132 865 l 1132 1258 m 760 1258 l 760 865 l 669 865 l 669 1258 l 760 1258 m 876 197 q 894 252 876 232 q 939 272 913 272 q 983 251 969 272 l 983 335 l 1008 335 l 1008 165 q 1008 147 1008 156 q 1010 129 1008 138 l 986 129 l 985 154 q 938 128 972 128 q 894 147 911 128 q 876 197 876 165 m 439 569 q 481 525 439 525 q 522 567 522 525 l 522 715 q 510 747 522 736 q 481 760 497 760 q 451 747 464 760 q 439 715 439 736 l 439 569 m 1107 197 q 1127 253 1107 233 q 1178 272 1147 272 q 1225 253 1207 272 q 1243 201 1243 233 q 1222 144 1243 161 q 1175 128 1200 128 q 1127 147 1147 128 q 1107 197 1107 165 m 775 128 q 742 139 758 128 q 726 189 726 150 l 726 269 l 753 269 l 753 192 q 783 149 753 149 q 809 159 799 149 q 819 185 819 169 l 819 269 l 844 269 l 844 167 q 845 149 844 158 q 846 129 846 139 l 824 129 l 821 151 q 806 135 818 143 q 775 128 794 128 m 1133 200 q 1144 161 1133 176 q 1175 146 1156 146 q 1206 161 1194 146 q 1217 200 1217 176 q 1208 235 1217 218 q 1175 253 1199 253 q 1144 237 1154 253 q 1133 200 1133 221 m 944 253 q 913 238 924 253 q 903 200 903 222 q 913 163 903 179 q 943 146 922 146 q 967 153 957 146 q 981 176 978 161 q 982 183 981 181 q 983 189 983 185 l 983 213 q 982 219 983 217 q 981 222 981 221 q 944 253 974 253 m 260 10 q 282 65 260 46 q 331 83 304 83 q 379 65 361 83 q 397 13 397 46 q 375 -43 397 -25 q 328 -61 353 -61 q 281 -42 301 -61 q 260 10 260 -24 m 218 297 l 218 318 l 336 318 l 336 300 l 254 129 l 228 129 l 310 297 l 218 297 m 485 318 l 485 300 l 403 129 l 376 129 l 458 297 l 364 297 l 364 318 l 485 318 m 515 156 q 547 146 528 146 q 576 167 576 146 q 549 192 576 181 q 513 232 513 206 q 525 260 513 249 q 561 272 538 272 q 594 264 579 272 l 589 246 q 561 253 578 253 q 536 233 536 253 q 542 221 536 225 q 563 211 549 217 q 600 169 600 196 q 547 128 600 128 q 507 138 526 128 l 515 156 m 486 1086 q 528 1128 528 1086 q 486 1171 528 1171 l 444 1171 l 444 1086 l 486 1086 m 615 269 l 639 269 l 639 303 l 664 310 l 664 269 l 700 269 l 700 251 l 664 251 l 664 175 q 682 149 664 149 q 697 150 693 149 l 697 131 q 675 128 690 128 q 645 141 651 128 q 639 175 639 154 l 639 251 l 615 251 l 615 269 m 122 318 l 146 318 l 146 129 l 121 129 l 121 293 l 86 276 l 83 294 l 122 318 m 429 42 q 429 63 429 53 q 428 82 429 72 l 449 82 l 449 57 q 466 76 456 68 q 496 83 476 83 q 533 57 521 83 q 549 74 539 64 q 582 83 561 83 q 611 72 594 83 q 628 25 628 61 l 628 -60 l 600 -60 l 600 22 q 572 64 600 64 q 552 56 561 64 q 542 40 543 49 q 540 34 542 36 q 539 26 539 32 l 539 -60 l 515 -60 l 515 25 q 486 64 515 64 q 467 56 475 64 q 456 40 458 49 q 454 25 454 35 l 454 -60 l 429 -60 l 429 42 m 921 1013 l 972 1013 l 944 1151 l 921 1013 m 1050 129 l 1050 269 l 1075 269 l 1075 129 l 1050 129 m 328 67 q 297 49 307 67 q 286 10 286 31 q 298 -28 286 -11 q 328 -44 310 -44 q 359 -28 347 -44 q 371 13 371 -11 q 361 49 371 31 q 328 67 351 67 m 138 10 q 158 63 138 42 q 210 83 178 83 q 244 74 235 83 l 240 57 q 228 61 238 58 q 210 64 219 64 q 172 48 186 64 q 158 10 158 32 q 174 -26 158 -11 q 210 -42 189 -42 q 228 -39 219 -42 q 240 -35 238 -36 l 243 -51 q 229 -58 239 -56 q 207 -61 219 -61 q 156 -42 174 -61 q 138 10 138 -24 m 1063 293 q 1046 308 1046 293 q 1063 325 1046 325 q 1078 308 1078 325 q 1063 293 1078 293 m 99 -61 q 85 -56 89 -61 q 81 -44 81 -50 q 99 -26 81 -26 q 115 -44 115 -26 q 110 -56 115 -50 q 99 -61 106 -61 z "},";":{"ha":1407,"x_min":69,"x_max":1338,"o":"m 357 514 q 347 569 347 539 l 347 715 q 357 771 347 742 q 370 792 363 782 q 388 811 378 803 q 431 838 407 829 q 481 847 454 847 q 532 838 507 847 q 576 811 557 829 q 606 768 597 796 q 615 715 615 740 l 615 569 q 577 474 615 511 q 481 436 539 436 q 431 444 454 436 q 388 472 407 453 q 357 514 368 489 m 492 1258 q 546 1250 525 1258 q 624 1132 624 1214 q 557 1019 624 1056 l 631 865 l 531 865 l 467 1007 l 444 1007 l 444 865 l 353 865 l 353 1258 l 492 1258 m 760 839 l 850 628 l 850 839 l 938 839 l 938 446 l 846 446 l 754 660 l 754 446 l 667 446 l 667 839 l 760 839 m 886 1258 l 1006 1258 l 1089 865 l 999 865 l 986 929 l 906 929 l 893 865 l 803 865 l 886 1258 m 1313 1356 l 1313 1301 l 79 1301 l 79 1356 l 1313 1356 m 1313 408 l 1313 357 l 79 357 l 79 408 l 1313 408 m 92 839 l 315 839 l 315 750 l 182 750 l 182 679 l 301 679 l 301 592 l 182 592 l 182 446 l 92 446 l 92 839 m 975 750 l 975 839 l 1219 839 l 1219 750 l 1143 750 l 1143 446 l 1051 446 l 1051 750 l 975 750 m 69 1258 l 313 1258 l 313 1171 l 238 1171 l 238 865 l 146 865 l 146 1171 l 69 1171 l 69 1258 m 1132 1258 l 1222 1258 l 1222 953 l 1338 953 l 1338 865 l 1132 865 l 1132 1258 m 760 1258 l 760 865 l 669 865 l 669 1258 l 760 1258 m 876 197 q 894 252 876 232 q 939 272 913 272 q 983 251 969 272 l 983 335 l 1008 335 l 1008 165 q 1008 147 1008 156 q 1010 129 1008 138 l 986 129 l 985 154 q 938 128 972 128 q 894 147 911 128 q 876 197 876 165 m 439 569 q 481 525 439 525 q 522 567 522 525 l 522 715 q 510 747 522 736 q 481 760 497 760 q 451 747 464 760 q 439 715 439 736 l 439 569 m 1107 197 q 1127 253 1107 233 q 1178 272 1147 272 q 1225 253 1207 272 q 1243 201 1243 233 q 1222 144 1243 161 q 1175 128 1200 128 q 1127 147 1147 128 q 1107 197 1107 165 m 775 128 q 742 139 758 128 q 726 189 726 150 l 726 269 l 753 269 l 753 192 q 783 149 753 149 q 809 159 799 149 q 819 185 819 169 l 819 269 l 844 269 l 844 167 q 845 149 844 158 q 846 129 846 139 l 824 129 l 821 151 q 806 135 818 143 q 775 128 794 128 m 1133 200 q 1144 161 1133 176 q 1175 146 1156 146 q 1206 161 1194 146 q 1217 200 1217 176 q 1208 235 1217 218 q 1175 253 1199 253 q 1144 237 1154 253 q 1133 200 1133 221 m 944 253 q 913 238 924 253 q 903 200 903 222 q 913 163 903 179 q 943 146 922 146 q 967 153 957 146 q 981 176 978 161 q 982 183 981 181 q 983 189 983 185 l 983 213 q 982 219 983 217 q 981 222 981 221 q 944 253 974 253 m 260 10 q 282 65 260 46 q 331 83 304 83 q 379 65 361 83 q 397 13 397 46 q 375 -43 397 -25 q 328 -61 353 -61 q 281 -42 301 -61 q 260 10 260 -24 m 218 297 l 218 318 l 336 318 l 336 300 l 254 129 l 228 129 l 310 297 l 218 297 m 485 318 l 485 300 l 403 129 l 376 129 l 458 297 l 364 297 l 364 318 l 485 318 m 515 156 q 547 146 528 146 q 576 167 576 146 q 549 192 576 181 q 513 232 513 206 q 525 260 513 249 q 561 272 538 272 q 594 264 579 272 l 589 246 q 561 253 578 253 q 536 233 536 253 q 542 221 536 225 q 563 211 549 217 q 600 169 600 196 q 547 128 600 128 q 507 138 526 128 l 515 156 m 486 1086 q 528 1128 528 1086 q 486 1171 528 1171 l 444 1171 l 444 1086 l 486 1086 m 615 269 l 639 269 l 639 303 l 664 310 l 664 269 l 700 269 l 700 251 l 664 251 l 664 175 q 682 149 664 149 q 697 150 693 149 l 697 131 q 675 128 690 128 q 645 141 651 128 q 639 175 639 154 l 639 251 l 615 251 l 615 269 m 122 318 l 146 318 l 146 129 l 121 129 l 121 293 l 86 276 l 83 294 l 122 318 m 429 42 q 429 63 429 53 q 428 82 429 72 l 449 82 l 449 57 q 466 76 456 68 q 496 83 476 83 q 533 57 521 83 q 549 74 539 64 q 582 83 561 83 q 611 72 594 83 q 628 25 628 61 l 628 -60 l 600 -60 l 600 22 q 572 64 600 64 q 552 56 561 64 q 542 40 543 49 q 540 34 542 36 q 539 26 539 32 l 539 -60 l 515 -60 l 515 25 q 486 64 515 64 q 467 56 475 64 q 456 40 458 49 q 454 25 454 35 l 454 -60 l 429 -60 l 429 42 m 921 1013 l 972 1013 l 944 1151 l 921 1013 m 1050 129 l 1050 269 l 1075 269 l 1075 129 l 1050 129 m 328 67 q 297 49 307 67 q 286 10 286 31 q 298 -28 286 -11 q 328 -44 310 -44 q 359 -28 347 -44 q 371 13 371 -11 q 361 49 371 31 q 328 67 351 67 m 138 10 q 158 63 138 42 q 210 83 178 83 q 244 74 235 83 l 240 57 q 228 61 238 58 q 210 64 219 64 q 172 48 186 64 q 158 10 158 32 q 174 -26 158 -11 q 210 -42 189 -42 q 228 -39 219 -42 q 240 -35 238 -36 l 243 -51 q 229 -58 239 -56 q 207 -61 219 -61 q 156 -42 174 -61 q 138 10 138 -24 m 1063 293 q 1046 308 1046 293 q 1063 325 1046 325 q 1078 308 1078 325 q 1063 293 1078 293 m 99 -61 q 85 -56 89 -61 q 81 -44 81 -50 q 99 -26 81 -26 q 115 -44 115 -26 q 110 -56 115 -50 q 99 -61 106 -61 z "},"<":{"ha":468,"x_min":63,"x_max":400,"o":"m 63 590 q 231 658 146 622 q 400 726 317 693 l 400 596 q 313 560 361 581 q 222 524 264 540 q 313 488 264 507 q 400 453 361 468 l 400 324 q 294 366 329 351 q 243 386 258 381 l 243 388 q 233 390 235 390 l 233 392 q 180 413 218 397 q 63 460 142 428 l 63 590 z "},"=":{"ha":438,"x_min":61,"x_max":376,"o":"m 376 493 l 376 369 l 61 369 l 61 493 l 376 493 m 61 556 l 61 679 l 376 679 l 376 556 l 61 556 z "},">":{"ha":468,"x_min":68,"x_max":406,"o":"m 68 322 l 68 451 l 243 524 q 154 560 203 540 q 68 596 106 581 l 68 726 l 406 589 l 404 460 l 68 322 z "},"?":{"ha":836,"x_min":36,"x_max":768,"o":"m 36 1058 q 100 1135 63 1101 q 182 1191 138 1168 q 276 1226 226 1214 q 375 1238 325 1238 q 522 1213 451 1238 q 648 1139 593 1188 q 735 1019 703 1090 q 768 857 768 949 q 752 748 768 790 q 711 676 736 706 q 656 626 686 647 q 596 584 625 606 q 542 534 567 563 q 506 460 518 506 q 492 399 496 432 q 488 322 489 365 l 263 322 q 269 403 264 367 q 281 472 274 440 q 322 576 296 535 q 376 646 347 617 q 435 697 406 675 q 488 740 464 718 q 528 790 513 763 q 543 857 543 817 q 488 979 543 935 q 431 1008 460 1000 q 379 1015 401 1015 q 340 1011 361 1015 q 260 978 296 1004 q 203 913 225 951 l 36 1058 m 375 0 q 329 10 350 0 q 294 38 308 21 q 271 76 279 54 q 263 124 263 99 q 294 211 263 171 q 375 247 331 247 q 421 237 400 247 q 456 209 442 226 q 479 169 471 192 q 488 124 488 147 q 479 78 488 100 q 456 38 471 56 q 421 10 442 21 q 375 0 400 0 z "},"@":{"ha":1407,"x_min":69,"x_max":1338,"o":"m 357 514 q 347 569 347 539 l 347 715 q 357 771 347 742 q 370 792 363 782 q 388 811 378 803 q 431 838 407 829 q 481 847 454 847 q 532 838 507 847 q 576 811 557 829 q 606 768 597 796 q 615 715 615 740 l 615 569 q 577 474 615 511 q 481 436 539 436 q 431 444 454 436 q 388 472 407 453 q 357 514 368 489 m 492 1258 q 546 1250 525 1258 q 624 1132 624 1214 q 557 1019 624 1056 l 631 865 l 531 865 l 467 1007 l 444 1007 l 444 865 l 353 865 l 353 1258 l 492 1258 m 760 839 l 850 628 l 850 839 l 938 839 l 938 446 l 846 446 l 754 660 l 754 446 l 667 446 l 667 839 l 760 839 m 886 1258 l 1006 1258 l 1089 865 l 999 865 l 986 929 l 906 929 l 893 865 l 803 865 l 886 1258 m 1313 1356 l 1313 1301 l 79 1301 l 79 1356 l 1313 1356 m 1313 408 l 1313 357 l 79 357 l 79 408 l 1313 408 m 92 839 l 315 839 l 315 750 l 182 750 l 182 679 l 301 679 l 301 592 l 182 592 l 182 446 l 92 446 l 92 839 m 975 750 l 975 839 l 1219 839 l 1219 750 l 1143 750 l 1143 446 l 1051 446 l 1051 750 l 975 750 m 69 1258 l 313 1258 l 313 1171 l 238 1171 l 238 865 l 146 865 l 146 1171 l 69 1171 l 69 1258 m 1132 1258 l 1222 1258 l 1222 953 l 1338 953 l 1338 865 l 1132 865 l 1132 1258 m 760 1258 l 760 865 l 669 865 l 669 1258 l 760 1258 m 876 197 q 894 252 876 232 q 939 272 913 272 q 983 251 969 272 l 983 335 l 1008 335 l 1008 165 q 1008 147 1008 156 q 1010 129 1008 138 l 986 129 l 985 154 q 938 128 972 128 q 894 147 911 128 q 876 197 876 165 m 439 569 q 481 525 439 525 q 522 567 522 525 l 522 715 q 510 747 522 736 q 481 760 497 760 q 451 747 464 760 q 439 715 439 736 l 439 569 m 1107 197 q 1127 253 1107 233 q 1178 272 1147 272 q 1225 253 1207 272 q 1243 201 1243 233 q 1222 144 1243 161 q 1175 128 1200 128 q 1127 147 1147 128 q 1107 197 1107 165 m 775 128 q 742 139 758 128 q 726 189 726 150 l 726 269 l 753 269 l 753 192 q 783 149 753 149 q 809 159 799 149 q 819 185 819 169 l 819 269 l 844 269 l 844 167 q 845 149 844 158 q 846 129 846 139 l 824 129 l 821 151 q 806 135 818 143 q 775 128 794 128 m 1133 200 q 1144 161 1133 176 q 1175 146 1156 146 q 1206 161 1194 146 q 1217 200 1217 176 q 1208 235 1217 218 q 1175 253 1199 253 q 1144 237 1154 253 q 1133 200 1133 221 m 944 253 q 913 238 924 253 q 903 200 903 222 q 913 163 903 179 q 943 146 922 146 q 967 153 957 146 q 981 176 978 161 q 982 183 981 181 q 983 189 983 185 l 983 213 q 982 219 983 217 q 981 222 981 221 q 944 253 974 253 m 260 10 q 282 65 260 46 q 331 83 304 83 q 379 65 361 83 q 397 13 397 46 q 375 -43 397 -25 q 328 -61 353 -61 q 281 -42 301 -61 q 260 10 260 -24 m 218 297 l 218 318 l 336 318 l 336 300 l 254 129 l 228 129 l 310 297 l 218 297 m 485 318 l 485 300 l 403 129 l 376 129 l 458 297 l 364 297 l 364 318 l 485 318 m 515 156 q 547 146 528 146 q 576 167 576 146 q 549 192 576 181 q 513 232 513 206 q 525 260 513 249 q 561 272 538 272 q 594 264 579 272 l 589 246 q 561 253 578 253 q 536 233 536 253 q 542 221 536 225 q 563 211 549 217 q 600 169 600 196 q 547 128 600 128 q 507 138 526 128 l 515 156 m 486 1086 q 528 1128 528 1086 q 486 1171 528 1171 l 444 1171 l 444 1086 l 486 1086 m 615 269 l 639 269 l 639 303 l 664 310 l 664 269 l 700 269 l 700 251 l 664 251 l 664 175 q 682 149 664 149 q 697 150 693 149 l 697 131 q 675 128 690 128 q 645 141 651 128 q 639 175 639 154 l 639 251 l 615 251 l 615 269 m 122 318 l 146 318 l 146 129 l 121 129 l 121 293 l 86 276 l 83 294 l 122 318 m 429 42 q 429 63 429 53 q 428 82 429 72 l 449 82 l 449 57 q 466 76 456 68 q 496 83 476 83 q 533 57 521 83 q 549 74 539 64 q 582 83 561 83 q 611 72 594 83 q 628 25 628 61 l 628 -60 l 600 -60 l 600 22 q 572 64 600 64 q 552 56 561 64 q 542 40 543 49 q 540 34 542 36 q 539 26 539 32 l 539 -60 l 515 -60 l 515 25 q 486 64 515 64 q 467 56 475 64 q 456 40 458 49 q 454 25 454 35 l 454 -60 l 429 -60 l 429 42 m 921 1013 l 972 1013 l 944 1151 l 921 1013 m 1050 129 l 1050 269 l 1075 269 l 1075 129 l 1050 129 m 328 67 q 297 49 307 67 q 286 10 286 31 q 298 -28 286 -11 q 328 -44 310 -44 q 359 -28 347 -44 q 371 13 371 -11 q 361 49 371 31 q 328 67 351 67 m 138 10 q 158 63 138 42 q 210 83 178 83 q 244 74 235 83 l 240 57 q 228 61 238 58 q 210 64 219 64 q 172 48 186 64 q 158 10 158 32 q 174 -26 158 -11 q 210 -42 189 -42 q 228 -39 219 -42 q 240 -35 238 -36 l 243 -51 q 229 -58 239 -56 q 207 -61 219 -61 q 156 -42 174 -61 q 138 10 138 -24 m 1063 293 q 1046 308 1046 293 q 1063 325 1046 325 q 1078 308 1078 325 q 1063 293 1078 293 m 99 -61 q 85 -56 89 -61 q 81 -44 81 -50 q 99 -26 81 -26 q 115 -44 115 -26 q 110 -56 115 -50 q 99 -61 106 -61 z "},"A":{"ha":1067,"x_min":39,"x_max":1026,"o":"m 39 0 q 52 61 39 3 q 86 215 65 119 q 134 431 107 310 q 189 677 161 551 q 244 924 217 803 q 292 1140 271 1044 q 326 1294 313 1235 q 339 1357 339 1354 l 726 1357 q 741 1288 728 1349 q 775 1131 754 1226 q 822 915 796 1035 q 876 672 849 796 q 931 428 904 547 q 978 216 957 310 q 1012 63 999 122 q 1026 0 1025 4 l 774 0 l 390 443 l 293 0 l 39 0 m 532 1086 l 456 743 l 661 507 l 532 1086 z "},"B":{"ha":1075,"x_min":72,"x_max":1017,"o":"m 72 1357 l 1017 1357 l 806 775 q 890 715 851 751 q 956 630 928 678 q 1001 526 985 582 q 1017 407 1017 469 q 988 251 1017 325 q 910 122 960 178 q 792 33 860 65 q 644 0 724 0 l 72 0 l 72 1357 m 668 1111 l 318 1111 l 318 815 l 560 815 l 668 1111 m 318 568 l 318 246 q 415 247 360 246 q 522 247 471 247 l 644 247 q 697 261 674 247 q 735 298 719 275 q 760 349 751 321 q 768 407 768 378 q 760 465 768 436 q 735 516 751 493 q 697 553 719 539 q 644 568 674 568 l 318 568 z "},"C":{"ha":746,"x_min":31,"x_max":710,"o":"m 31 679 q 84 943 31 819 q 230 1158 138 1067 q 446 1303 322 1250 q 710 1357 569 1357 l 710 1111 q 542 1077 621 1111 q 404 985 463 1043 q 312 848 346 926 q 278 679 278 769 q 312 511 278 590 q 404 373 346 432 q 542 280 463 314 q 710 246 621 246 l 710 0 q 446 53 569 0 q 230 199 322 107 q 84 415 138 292 q 31 679 31 539 z "},"D":{"ha":1122,"x_min":72,"x_max":1081,"o":"m 403 1357 q 667 1303 543 1357 q 882 1158 790 1250 q 1027 943 974 1067 q 1081 679 1081 819 q 1028 417 1081 540 q 884 201 975 293 q 670 56 793 110 q 407 0 547 1 l 72 0 l 72 1357 l 403 1357 m 319 246 l 406 246 q 572 282 494 247 q 708 375 650 317 q 800 512 767 433 q 833 679 833 590 q 799 848 833 769 q 707 985 765 926 q 570 1077 649 1043 q 401 1111 492 1111 l 319 1111 l 319 246 z "},"E":{"ha":890,"x_min":72,"x_max":843,"o":"m 843 1357 l 843 1111 l 318 1111 l 318 992 l 765 992 l 765 744 l 318 744 l 318 621 l 765 621 l 765 374 l 318 374 l 318 246 l 843 247 l 843 0 l 72 0 l 72 1357 l 843 1357 z "},"F":{"ha":867,"x_min":72,"x_max":843,"o":"m 843 1357 l 843 1111 l 318 1111 l 318 992 l 765 992 l 765 744 l 318 744 l 318 621 l 765 621 l 765 374 l 318 374 l 318 0 l 72 0 l 72 1357 l 843 1357 z "},"G":{"ha":1440,"x_min":50,"x_max":1407,"o":"m 729 0 q 465 53 589 0 q 249 199 342 107 q 103 415 157 292 q 50 679 50 539 q 103 943 50 819 q 249 1158 157 1067 q 465 1303 342 1250 q 729 1357 589 1357 l 729 1111 q 561 1077 640 1111 q 423 985 482 1043 q 330 848 364 926 q 296 679 296 769 q 330 511 296 590 q 423 373 364 432 q 561 280 482 314 q 729 246 640 246 q 932 297 839 246 q 1083 432 1025 347 l 729 432 l 729 679 l 1407 679 l 1407 0 l 1161 0 l 1161 156 q 963 40 1072 81 q 729 0 854 0 z "},"H":{"ha":1081,"x_min":72,"x_max":1007,"o":"m 318 744 l 318 621 l 760 621 l 760 744 l 318 744 m 72 0 l 72 1357 l 318 1357 l 318 992 l 760 992 l 760 1357 l 1007 1357 l 1007 0 l 760 0 l 760 374 l 318 374 l 318 0 l 72 0 z "},"I":{"ha":393,"x_min":72,"x_max":318,"o":"m 318 1357 l 318 0 l 72 0 l 72 1357 l 318 1357 z "},"J":{"ha":801,"x_min":72,"x_max":751,"o":"m 72 740 l 72 986 l 506 986 l 506 1111 l 72 1111 l 72 1357 l 751 1357 l 751 676 q 698 414 751 538 q 552 199 644 290 q 336 53 460 107 q 72 0 213 0 l 72 246 q 240 280 161 246 q 378 372 319 314 q 472 509 438 431 q 506 676 506 588 l 506 740 l 72 740 z "},"K":{"ha":1049,"x_min":72,"x_max":993,"o":"m 72 1357 l 229 1126 l 343 1357 l 622 1357 l 390 889 l 443 811 l 714 1357 l 993 1357 l 606 572 l 993 0 l 713 0 l 318 581 l 318 0 l 72 0 l 72 1357 z "},"L":{"ha":1018,"x_min":72,"x_max":1003,"o":"m 72 1357 l 318 1357 l 318 618 l 1003 618 l 1003 371 l 318 371 l 318 246 l 1003 246 l 1003 0 l 72 0 l 72 1357 z "},"M":{"ha":1494,"x_min":72,"x_max":1422,"o":"m 72 1357 l 319 1357 l 685 540 l 685 246 l 810 246 l 810 542 l 1175 1357 l 1422 1357 l 1422 0 l 1175 0 l 1175 756 l 1056 489 l 1056 0 l 439 0 l 439 486 l 319 753 l 319 0 l 72 0 l 72 1357 z "},"N":{"ha":1251,"x_min":72,"x_max":1179,"o":"m 1179 1357 l 1179 0 l 608 0 l 436 1111 l 318 1111 l 318 0 l 72 0 l 72 1357 l 647 1357 l 821 247 l 932 247 l 932 1357 l 1179 1357 z "},"O":{"ha":1456,"x_min":50,"x_max":1407,"o":"m 50 679 q 103 943 50 819 q 249 1158 157 1067 q 465 1303 342 1250 q 729 1357 589 1357 q 993 1303 869 1357 q 1208 1158 1117 1250 q 1353 943 1300 1067 q 1407 679 1407 819 q 1353 415 1407 539 q 1208 199 1300 292 q 993 53 1117 107 q 729 0 869 0 q 465 53 589 0 q 249 199 342 107 q 103 415 157 292 q 50 679 50 539 m 729 1111 q 561 1077 640 1111 q 423 985 482 1043 q 330 848 364 926 q 296 679 296 769 q 330 511 296 590 q 423 373 364 432 q 561 280 482 314 q 729 246 640 246 q 898 280 819 246 q 1035 373 976 314 q 1127 511 1093 432 q 1161 679 1161 590 q 1127 848 1161 769 q 1035 985 1093 926 q 898 1077 976 1043 q 729 1111 819 1111 m 729 567 q 649 599 682 567 q 617 679 617 632 q 649 759 617 726 q 729 792 682 792 q 809 759 776 792 q 842 679 842 726 q 809 599 842 632 q 729 567 776 567 m 656 679 q 677 627 656 649 q 729 606 699 606 q 780 627 758 606 q 801 679 801 649 q 780 730 801 708 q 729 751 758 751 q 677 730 699 751 q 656 679 656 708 z "},"P":{"ha":953,"x_min":72,"x_max":936,"o":"m 318 0 l 72 0 l 72 1357 l 567 1357 q 714 1324 646 1357 q 831 1235 782 1292 q 908 1106 881 1179 q 936 950 936 1032 q 908 794 936 868 q 831 665 881 721 q 714 576 782 608 q 567 543 646 543 l 318 543 l 318 0 m 318 1111 l 318 790 l 567 790 q 617 804 594 790 q 656 841 640 818 q 681 892 672 864 q 690 950 690 921 q 682 1008 690 979 q 658 1059 674 1036 q 619 1097 642 1082 q 567 1111 596 1111 l 318 1111 z "},"Q":{"ha":1435,"x_min":39,"x_max":1396,"o":"m 39 681 q 92 944 39 821 q 238 1160 146 1068 q 454 1305 331 1251 q 718 1358 578 1358 q 982 1305 858 1358 q 1197 1160 1106 1251 q 1342 944 1289 1068 q 1396 681 1396 821 q 1353 444 1396 556 q 1237 244 1311 332 q 1061 95 1163 156 q 842 13 960 35 l 842 -265 l 593 -265 l 593 13 q 374 94 475 33 q 198 243 272 154 q 81 444 124 332 q 39 681 39 556 m 285 681 q 319 513 285 592 q 412 374 353 433 q 550 281 471 315 q 718 247 629 247 q 885 281 807 247 q 1023 374 964 315 q 1116 511 1082 432 q 1150 681 1150 590 q 1116 848 1150 769 q 1023 985 1082 926 q 885 1077 964 1043 q 718 1111 807 1111 q 550 1077 629 1111 q 412 985 471 1043 q 319 848 353 926 q 285 681 285 769 m 606 681 q 638 760 606 726 q 718 793 671 793 q 798 760 765 793 q 831 681 831 726 q 798 601 831 633 q 718 568 765 568 q 638 601 671 568 q 606 681 606 633 m 644 681 q 666 628 644 650 q 718 607 688 607 q 769 628 747 607 q 790 681 790 650 q 769 731 790 710 q 718 753 747 753 q 666 731 688 753 q 644 681 644 710 z "},"R":{"ha":1163,"x_min":72,"x_max":1129,"o":"m 318 0 l 72 0 l 72 1357 l 567 1357 q 714 1324 646 1357 q 831 1235 782 1292 q 908 1106 881 1179 q 936 950 936 1032 q 922 837 936 892 q 881 734 907 782 q 816 648 854 686 q 732 585 778 610 l 1129 0 l 849 0 q 708 206 774 110 q 583 390 642 303 q 486 534 533 465 q 401 658 439 603 q 358 722 379 690 q 318 781 338 753 l 318 0 m 376 1111 l 592 793 q 664 851 638 804 q 690 950 690 897 q 682 1008 690 979 q 658 1059 674 1036 q 619 1097 642 1082 q 567 1111 596 1111 l 376 1111 z "},"S":{"ha":711,"x_min":19,"x_max":694,"o":"m 19 253 q 120 297 85 261 q 174 389 156 332 q 198 522 192 446 q 211 690 204 599 q 224 842 215 765 q 253 991 233 919 q 307 1126 274 1063 q 392 1238 340 1189 q 519 1317 444 1286 q 694 1356 593 1349 l 694 1113 q 580 1072 622 1106 q 515 981 538 1038 q 482 849 492 925 q 465 679 472 772 q 452 524 460 603 q 428 372 444 446 q 382 234 411 299 q 306 119 353 169 q 188 38 258 69 q 19 0 118 7 l 19 253 z "},"T":{"ha":1106,"x_min":36,"x_max":1068,"o":"m 36 992 l 1068 992 l 1068 744 l 674 744 l 674 0 l 426 0 l 426 744 l 36 744 l 36 992 m 36 1111 l 36 1357 l 1068 1357 l 1068 1111 l 36 1111 z "},"U":{"ha":993,"x_min":65,"x_max":929,"o":"m 65 1357 l 311 1357 l 311 451 q 326 374 311 411 q 365 309 340 338 q 424 264 390 281 q 497 247 458 247 q 571 264 538 247 q 629 309 604 281 q 668 374 654 338 q 682 451 682 411 l 682 1357 l 929 1357 l 929 475 q 897 293 929 379 q 806 142 864 207 q 668 38 747 76 q 497 0 589 0 q 326 38 406 0 q 189 142 247 76 q 98 293 131 207 q 65 475 65 379 l 65 1357 z "},"V":{"ha":1065,"x_min":39,"x_max":1026,"o":"m 339 0 q 324 69 338 8 q 290 226 311 131 q 243 440 269 321 q 190 683 217 560 q 136 926 163 807 q 88 1138 110 1044 q 53 1292 67 1232 q 39 1357 40 1351 l 293 1357 l 532 271 l 772 1357 l 1026 1357 q 1016 1315 1025 1354 q 993 1212 1007 1276 q 960 1063 979 1147 q 919 883 940 978 q 876 687 899 788 q 833 490 854 586 q 793 308 813 394 q 760 156 774 222 q 737 48 746 89 q 726 0 728 7 l 339 0 z "},"W":{"ha":1494,"x_min":72,"x_max":1422,"o":"m 319 1357 l 319 246 l 439 246 l 439 1357 l 1056 1357 l 1056 246 l 1175 246 l 1175 1357 l 1422 1357 l 1422 0 l 810 0 l 810 1111 l 685 1111 l 685 0 l 72 0 l 72 1357 l 319 1357 z "},"X":{"ha":1361,"x_min":58,"x_max":1303,"o":"m 531 679 l 58 1357 l 358 1357 l 681 894 l 740 981 l 478 1357 l 779 1357 l 890 1196 l 1001 1357 l 1303 1357 l 831 679 l 1303 0 l 1001 0 l 681 463 l 619 376 l 881 0 l 581 0 l 469 160 l 358 0 l 58 0 l 531 679 z "},"Y":{"ha":1239,"x_min":29,"x_max":1210,"o":"m 300 1357 l 618 874 l 936 1357 l 1210 1357 l 743 650 l 1051 650 l 1051 403 l 743 403 l 743 0 l 496 0 l 496 403 l 188 403 l 188 650 l 496 650 l 29 1357 l 300 1357 z "},"Z":{"ha":1165,"x_min":71,"x_max":1093,"o":"m 71 272 q 112 321 86 290 q 163 381 138 351 l 163 625 l 371 625 l 472 743 l 163 743 l 163 992 l 682 992 l 764 1086 l 83 1086 l 83 1357 l 1093 1357 l 1093 1085 q 1074 1063 1083 1074 q 1058 1043 1065 1053 q 1031 1013 1044 1028 q 1015 993 1018 997 l 1015 743 l 800 743 l 697 625 l 1015 625 l 1015 378 l 485 378 l 393 271 l 1081 271 l 1081 0 l 71 0 l 71 272 z "},"[":{"ha":593,"x_min":93,"x_max":543,"o":"m 93 1606 l 543 1606 l 543 1358 l 318 1358 l 318 0 l 543 0 l 543 -247 l 93 -247 l 93 1606 z "},"\\":{"ha":632,"x_min":6,"x_max":632,"o":"m 242 1474 q 258 1403 242 1472 q 302 1219 275 1333 q 365 961 329 1106 q 438 667 400 817 q 529 290 481 489 q 632 -135 578 90 l 397 -135 q 369 -20 389 -103 q 321 176 349 63 q 260 424 293 289 q 194 698 228 560 q 129 967 161 836 q 72 1205 97 1099 q 28 1383 46 1311 q 6 1474 11 1456 l 242 1474 z "},"]":{"ha":593,"x_min":50,"x_max":499,"o":"m 50 0 l 275 0 l 275 1358 l 50 1358 l 50 1606 l 499 1606 l 499 -247 l 50 -247 l 50 0 z "},"^":{"ha":643,"x_min":57,"x_max":583,"o":"m 57 986 q 94 1098 81 1057 q 115 1160 108 1139 l 115 1160 l 115 1161 q 117 1164 117 1163 l 117 1165 q 121 1177 119 1172 q 124 1185 122 1182 l 124 1186 l 125 1188 q 128 1196 128 1196 q 132 1207 128 1196 q 147 1251 136 1218 q 182 1357 158 1283 l 460 1357 q 497 1249 482 1292 q 524 1169 511 1207 q 549 1091 536 1132 q 583 986 563 1050 l 386 986 q 354 1083 372 1029 q 321 1182 336 1138 q 310 1152 319 1181 q 289 1088 300 1124 q 267 1022 278 1053 q 256 986 257 992 l 57 986 z "},"_":{"ha":728,"x_min":93,"x_max":632,"o":"m 93 -124 l 93 0 l 632 0 l 632 -124 l 93 -124 z "},"`":{"ha":442,"x_min":50,"x_max":386,"o":"m 244 1708 l 386 1456 l 244 1456 l 50 1708 l 244 1708 z "},"a":{"ha":1067,"x_min":39,"x_max":1026,"o":"m 39 0 q 52 61 39 3 q 86 215 65 119 q 134 431 107 310 q 189 677 161 551 q 244 924 217 803 q 292 1140 271 1044 q 326 1294 313 1235 q 339 1357 339 1354 l 726 1357 q 741 1288 728 1349 q 775 1131 754 1226 q 822 915 796 1035 q 876 672 849 796 q 931 428 904 547 q 978 216 957 310 q 1012 63 999 122 q 1026 0 1025 4 l 774 0 l 390 443 l 293 0 l 39 0 m 532 1086 l 456 743 l 661 507 l 532 1086 z "},"b":{"ha":1075,"x_min":72,"x_max":1017,"o":"m 72 1357 l 1017 1357 l 806 775 q 890 715 851 751 q 956 630 928 678 q 1001 526 985 582 q 1017 407 1017 469 q 988 251 1017 325 q 910 122 960 178 q 792 33 860 65 q 644 0 724 0 l 72 0 l 72 1357 m 668 1111 l 318 1111 l 318 815 l 560 815 l 668 1111 m 318 568 l 318 246 q 415 247 360 246 q 522 247 471 247 l 644 247 q 697 261 674 247 q 735 298 719 275 q 760 349 751 321 q 768 407 768 378 q 760 465 768 436 q 735 516 751 493 q 697 553 719 539 q 644 568 674 568 l 318 568 z "},"c":{"ha":746,"x_min":31,"x_max":710,"o":"m 31 679 q 84 943 31 819 q 230 1158 138 1067 q 446 1303 322 1250 q 710 1357 569 1357 l 710 1111 q 542 1077 621 1111 q 404 985 463 1043 q 312 848 346 926 q 278 679 278 769 q 312 511 278 590 q 404 373 346 432 q 542 280 463 314 q 710 246 621 246 l 710 0 q 446 53 569 0 q 230 199 322 107 q 84 415 138 292 q 31 679 31 539 z "},"d":{"ha":1122,"x_min":72,"x_max":1081,"o":"m 403 1357 q 667 1303 543 1357 q 882 1158 790 1250 q 1027 943 974 1067 q 1081 679 1081 819 q 1028 417 1081 540 q 884 201 975 293 q 670 56 793 110 q 407 0 547 1 l 72 0 l 72 1357 l 403 1357 m 319 246 l 406 246 q 572 282 494 247 q 708 375 650 317 q 800 512 767 433 q 833 679 833 590 q 799 848 833 769 q 707 985 765 926 q 570 1077 649 1043 q 401 1111 492 1111 l 319 1111 l 319 246 z "},"e":{"ha":890,"x_min":72,"x_max":843,"o":"m 843 1357 l 843 1111 l 318 1111 l 318 992 l 765 992 l 765 744 l 318 744 l 318 621 l 765 621 l 765 374 l 318 374 l 318 246 l 843 247 l 843 0 l 72 0 l 72 1357 l 843 1357 z "},"f":{"ha":867,"x_min":72,"x_max":843,"o":"m 843 1357 l 843 1111 l 318 1111 l 318 992 l 765 992 l 765 744 l 318 744 l 318 621 l 765 621 l 765 374 l 318 374 l 318 0 l 72 0 l 72 1357 l 843 1357 z "},"g":{"ha":1440,"x_min":50,"x_max":1407,"o":"m 729 0 q 465 53 589 0 q 249 199 342 107 q 103 415 157 292 q 50 679 50 539 q 103 943 50 819 q 249 1158 157 1067 q 465 1303 342 1250 q 729 1357 589 1357 l 729 1111 q 561 1077 640 1111 q 423 985 482 1043 q 330 848 364 926 q 296 679 296 769 q 330 511 296 590 q 423 373 364 432 q 561 280 482 314 q 729 246 640 246 q 932 297 839 246 q 1083 432 1025 347 l 729 432 l 729 679 l 1407 679 l 1407 0 l 1161 0 l 1161 156 q 963 40 1072 81 q 729 0 854 0 z "},"h":{"ha":1081,"x_min":72,"x_max":1007,"o":"m 318 744 l 318 621 l 760 621 l 760 744 l 318 744 m 72 0 l 72 1357 l 318 1357 l 318 992 l 760 992 l 760 1357 l 1007 1357 l 1007 0 l 760 0 l 760 374 l 318 374 l 318 0 l 72 0 z "},"i":{"ha":393,"x_min":72,"x_max":318,"o":"m 318 1357 l 318 0 l 72 0 l 72 1357 l 318 1357 z "},"j":{"ha":801,"x_min":72,"x_max":751,"o":"m 72 740 l 72 986 l 506 986 l 506 1111 l 72 1111 l 72 1357 l 751 1357 l 751 676 q 698 414 751 538 q 552 199 644 290 q 336 53 460 107 q 72 0 213 0 l 72 246 q 240 280 161 246 q 378 372 319 314 q 472 509 438 431 q 506 676 506 588 l 506 740 l 72 740 z "},"k":{"ha":1049,"x_min":72,"x_max":993,"o":"m 72 1357 l 229 1126 l 343 1357 l 622 1357 l 390 889 l 443 811 l 714 1357 l 993 1357 l 606 572 l 993 0 l 713 0 l 318 581 l 318 0 l 72 0 l 72 1357 z "},"l":{"ha":1018,"x_min":72,"x_max":1003,"o":"m 72 1357 l 318 1357 l 318 618 l 1003 618 l 1003 371 l 318 371 l 318 246 l 1003 246 l 1003 0 l 72 0 l 72 1357 z "},"m":{"ha":1494,"x_min":72,"x_max":1422,"o":"m 72 1357 l 319 1357 l 685 540 l 685 246 l 810 246 l 810 542 l 1175 1357 l 1422 1357 l 1422 0 l 1175 0 l 1175 756 l 1056 489 l 1056 0 l 439 0 l 439 486 l 319 753 l 319 0 l 72 0 l 72 1357 z "},"n":{"ha":1251,"x_min":72,"x_max":1179,"o":"m 1179 1357 l 1179 0 l 608 0 l 436 1111 l 318 1111 l 318 0 l 72 0 l 72 1357 l 647 1357 l 821 247 l 932 247 l 932 1357 l 1179 1357 z "},"o":{"ha":1456,"x_min":50,"x_max":1407,"o":"m 50 679 q 103 943 50 819 q 249 1158 157 1067 q 465 1303 342 1250 q 729 1357 589 1357 q 993 1303 869 1357 q 1208 1158 1117 1250 q 1353 943 1300 1067 q 1407 679 1407 819 q 1353 415 1407 539 q 1208 199 1300 292 q 993 53 1117 107 q 729 0 869 0 q 465 53 589 0 q 249 199 342 107 q 103 415 157 292 q 50 679 50 539 m 729 1111 q 561 1077 640 1111 q 423 985 482 1043 q 330 848 364 926 q 296 679 296 769 q 330 511 296 590 q 423 373 364 432 q 561 280 482 314 q 729 246 640 246 q 898 280 819 246 q 1035 373 976 314 q 1127 511 1093 432 q 1161 679 1161 590 q 1127 848 1161 769 q 1035 985 1093 926 q 898 1077 976 1043 q 729 1111 819 1111 m 729 567 q 649 599 682 567 q 617 679 617 632 q 649 759 617 726 q 729 792 682 792 q 809 759 776 792 q 842 679 842 726 q 809 599 842 632 q 729 567 776 567 m 656 679 q 677 627 656 649 q 729 606 699 606 q 780 627 758 606 q 801 679 801 649 q 780 730 801 708 q 729 751 758 751 q 677 730 699 751 q 656 679 656 708 z "},"p":{"ha":953,"x_min":72,"x_max":936,"o":"m 318 0 l 72 0 l 72 1357 l 567 1357 q 714 1324 646 1357 q 831 1235 782 1292 q 908 1106 881 1179 q 936 950 936 1032 q 908 794 936 868 q 831 665 881 721 q 714 576 782 608 q 567 543 646 543 l 318 543 l 318 0 m 318 1111 l 318 790 l 567 790 q 617 804 594 790 q 656 841 640 818 q 681 892 672 864 q 690 950 690 921 q 682 1008 690 979 q 658 1059 674 1036 q 619 1097 642 1082 q 567 1111 596 1111 l 318 1111 z "},"q":{"ha":1435,"x_min":39,"x_max":1396,"o":"m 39 681 q 92 944 39 821 q 238 1160 146 1068 q 454 1305 331 1251 q 718 1358 578 1358 q 982 1305 858 1358 q 1197 1160 1106 1251 q 1342 944 1289 1068 q 1396 681 1396 821 q 1353 444 1396 556 q 1237 244 1311 332 q 1061 95 1163 156 q 842 13 960 35 l 842 -265 l 593 -265 l 593 13 q 374 94 475 33 q 198 243 272 154 q 81 444 124 332 q 39 681 39 556 m 285 681 q 319 513 285 592 q 412 374 353 433 q 550 281 471 315 q 718 247 629 247 q 885 281 807 247 q 1023 374 964 315 q 1116 511 1082 432 q 1150 681 1150 590 q 1116 848 1150 769 q 1023 985 1082 926 q 885 1077 964 1043 q 718 1111 807 1111 q 550 1077 629 1111 q 412 985 471 1043 q 319 848 353 926 q 285 681 285 769 m 606 681 q 638 760 606 726 q 718 793 671 793 q 798 760 765 793 q 831 681 831 726 q 798 601 831 633 q 718 568 765 568 q 638 601 671 568 q 606 681 606 633 m 644 681 q 666 628 644 650 q 718 607 688 607 q 769 628 747 607 q 790 681 790 650 q 769 731 790 710 q 718 753 747 753 q 666 731 688 753 q 644 681 644 710 z "},"r":{"ha":1163,"x_min":72,"x_max":1129,"o":"m 318 0 l 72 0 l 72 1357 l 567 1357 q 714 1324 646 1357 q 831 1235 782 1292 q 908 1106 881 1179 q 936 950 936 1032 q 922 837 936 892 q 881 734 907 782 q 816 648 854 686 q 732 585 778 610 l 1129 0 l 849 0 q 708 206 774 110 q 583 390 642 303 q 486 534 533 465 q 401 658 439 603 q 358 722 379 690 q 318 781 338 753 l 318 0 m 376 1111 l 592 793 q 664 851 638 804 q 690 950 690 897 q 682 1008 690 979 q 658 1059 674 1036 q 619 1097 642 1082 q 567 1111 596 1111 l 376 1111 z "},"s":{"ha":711,"x_min":19,"x_max":694,"o":"m 19 253 q 120 297 85 261 q 174 389 156 332 q 198 522 192 446 q 211 690 204 599 q 224 842 215 765 q 253 991 233 919 q 307 1126 274 1063 q 392 1238 340 1189 q 519 1317 444 1286 q 694 1356 593 1349 l 694 1113 q 580 1072 622 1106 q 515 981 538 1038 q 482 849 492 925 q 465 679 472 772 q 452 524 460 603 q 428 372 444 446 q 382 234 411 299 q 306 119 353 169 q 188 38 258 69 q 19 0 118 7 l 19 253 z "},"t":{"ha":1106,"x_min":36,"x_max":1068,"o":"m 36 992 l 1068 992 l 1068 744 l 674 744 l 674 0 l 426 0 l 426 744 l 36 744 l 36 992 m 36 1111 l 36 1357 l 1068 1357 l 1068 1111 l 36 1111 z "},"u":{"ha":993,"x_min":65,"x_max":929,"o":"m 65 1357 l 311 1357 l 311 451 q 326 374 311 411 q 365 309 340 338 q 424 264 390 281 q 497 247 458 247 q 571 264 538 247 q 629 309 604 281 q 668 374 654 338 q 682 451 682 411 l 682 1357 l 929 1357 l 929 475 q 897 293 929 379 q 806 142 864 207 q 668 38 747 76 q 497 0 589 0 q 326 38 406 0 q 189 142 247 76 q 98 293 131 207 q 65 475 65 379 l 65 1357 z "},"v":{"ha":1065,"x_min":39,"x_max":1026,"o":"m 339 0 q 324 69 338 8 q 290 226 311 131 q 243 440 269 321 q 190 683 217 560 q 136 926 163 807 q 88 1138 110 1044 q 53 1292 67 1232 q 39 1357 40 1351 l 293 1357 l 532 271 l 772 1357 l 1026 1357 q 1016 1315 1025 1354 q 993 1212 1007 1276 q 960 1063 979 1147 q 919 883 940 978 q 876 687 899 788 q 833 490 854 586 q 793 308 813 394 q 760 156 774 222 q 737 48 746 89 q 726 0 728 7 l 339 0 z "},"w":{"ha":1494,"x_min":72,"x_max":1422,"o":"m 319 1357 l 319 246 l 439 246 l 439 1357 l 1056 1357 l 1056 246 l 1175 246 l 1175 1357 l 1422 1357 l 1422 0 l 810 0 l 810 1111 l 685 1111 l 685 0 l 72 0 l 72 1357 l 319 1357 z "},"x":{"ha":1361,"x_min":58,"x_max":1303,"o":"m 531 679 l 58 1357 l 358 1357 l 681 894 l 740 981 l 478 1357 l 779 1357 l 890 1196 l 1001 1357 l 1303 1357 l 831 679 l 1303 0 l 1001 0 l 681 463 l 619 376 l 881 0 l 581 0 l 469 160 l 358 0 l 58 0 l 531 679 z "},"y":{"ha":1239,"x_min":29,"x_max":1210,"o":"m 300 1357 l 618 874 l 936 1357 l 1210 1357 l 743 650 l 1051 650 l 1051 403 l 743 403 l 743 0 l 496 0 l 496 403 l 188 403 l 188 650 l 496 650 l 29 1357 l 300 1357 z "},"z":{"ha":1165,"x_min":71,"x_max":1093,"o":"m 71 272 q 112 321 86 290 q 163 381 138 351 l 163 625 l 371 625 l 472 743 l 163 743 l 163 992 l 682 992 l 764 1086 l 83 1086 l 83 1357 l 1093 1357 l 1093 1085 q 1074 1063 1083 1074 q 1058 1043 1065 1053 q 1031 1013 1044 1028 q 1015 993 1018 997 l 1015 743 l 800 743 l 697 625 l 1015 625 l 1015 378 l 485 378 l 393 271 l 1081 271 l 1081 0 l 71 0 l 71 272 z "},"{":{"ha":731,"x_min":39,"x_max":682,"o":"m 39 701 q 40 703 39 703 l 40 703 l 40 703 l 40 703 l 40 703 l 40 703 l 42 703 l 42 703 l 42 704 l 42 704 l 43 704 q 63 717 50 708 q 89 733 75 725 q 104 744 96 739 q 122 756 113 749 q 204 844 176 789 q 232 965 232 899 l 232 1365 q 249 1458 232 1414 q 297 1535 267 1501 q 367 1588 326 1568 q 454 1607 407 1607 l 682 1607 l 682 1360 q 596 1359 636 1360 q 524 1349 556 1358 q 475 1315 493 1339 q 457 1244 457 1292 l 457 914 q 430 792 457 847 q 344 701 403 736 q 428 613 399 667 q 457 490 457 558 l 457 114 q 468 53 457 76 q 498 19 479 31 q 542 3 517 7 q 593 -1 567 -1 q 617 -1 596 -1 q 682 0 639 0 l 682 -247 l 454 -247 q 366 -227 407 -247 q 295 -174 325 -207 q 249 -97 265 -140 q 232 -4 232 -53 l 232 438 q 204 559 232 504 q 122 649 176 614 l 39 701 z "},"|":{"ha":413,"x_min":93,"x_max":318,"o":"m 93 -97 l 93 1457 l 318 1457 l 318 -97 l 93 -97 z "},"}":{"ha":731,"x_min":47,"x_max":692,"o":"m 47 -247 l 47 0 q 132 -1 92 0 q 203 7 172 -1 q 253 40 235 15 q 272 114 272 64 l 272 465 q 301 588 272 533 q 383 676 331 642 q 300 767 328 711 q 272 889 272 822 l 272 1244 q 254 1315 272 1292 q 205 1349 236 1339 q 133 1359 174 1358 q 47 1360 93 1360 l 47 1607 l 275 1607 q 363 1588 322 1607 q 433 1535 403 1568 q 479 1458 463 1501 q 496 1365 496 1414 l 496 940 q 524 819 496 874 q 607 731 553 764 q 625 719 617 724 q 640 708 633 714 q 667 692 654 700 q 686 679 679 683 l 692 676 l 607 624 q 524 534 553 589 q 496 413 496 479 l 496 -4 q 479 -97 496 -53 q 433 -174 463 -140 q 363 -227 403 -207 q 275 -247 322 -247 l 47 -247 z "},"~":{"ha":589,"x_min":50,"x_max":538,"o":"m 63 656 q 53 672 50 656 q 102 780 64 735 q 193 831 140 825 q 215 830 204 831 q 240 826 226 829 q 270 815 253 822 q 311 793 288 807 q 331 786 322 789 q 347 783 339 783 q 374 790 363 783 q 393 804 386 796 q 407 826 400 814 l 526 811 q 535 794 538 810 q 517 742 531 768 q 483 696 504 717 q 432 663 461 675 q 368 650 403 650 q 318 656 339 650 q 280 667 297 661 q 248 678 263 674 q 217 681 233 682 q 201 674 208 679 q 190 656 193 668 q 178 649 189 646 l 63 656 z "},"":{"ha":381,"x_min":0,"x_max":0,"o":""},"":{"ha":746,"x_min":31,"x_max":710,"o":"m 31 679 q 84 943 31 819 q 230 1158 138 1067 q 446 1303 322 1250 q 710 1357 569 1357 l 710 1111 q 542 1077 621 1111 q 404 985 463 1043 q 312 848 346 926 q 278 679 278 769 q 312 511 278 590 q 404 373 346 432 q 542 280 463 314 q 710 246 621 246 l 710 0 q 446 53 569 0 q 230 199 322 107 q 84 415 138 292 q 31 679 31 539 m 417 -97 l 417 1457 l 642 1457 l 642 -97 l 417 -97 z "},"":{"ha":874,"x_min":69,"x_max":806,"o":"m 69 1035 l 142 1117 l 251 982 q 337 1037 289 1018 q 435 1056 385 1056 q 534 1038 486 1056 q 619 983 582 1019 l 733 1117 l 806 1035 l 681 910 q 723 808 710 864 q 735 693 736 751 q 721 581 735 635 q 681 486 707 526 l 800 356 l 728 279 l 618 414 q 533 358 582 376 q 431 339 483 339 q 330 356 378 339 q 247 408 282 374 l 142 279 l 71 356 l 188 481 q 144 576 158 522 q 128 689 129 631 q 143 805 128 747 q 190 910 158 863 l 69 1035 m 242 696 q 253 606 242 650 q 289 526 265 561 q 348 471 313 492 q 431 450 383 450 q 515 471 479 450 q 574 526 550 492 q 610 606 599 561 q 622 696 622 650 q 610 786 622 742 q 574 865 599 831 q 515 922 550 900 q 432 943 479 943 q 349 922 385 943 q 290 865 314 900 q 254 786 267 831 q 242 696 242 742 z "},"":{"ha":1239,"x_min":29,"x_max":1210,"o":"m 300 1357 l 618 874 l 936 1357 l 1210 1357 l 743 650 l 1051 650 l 1051 403 l 743 403 l 743 0 l 496 0 l 496 403 l 188 403 l 188 650 l 496 650 l 29 1357 l 300 1357 m 776 493 l 776 369 l 461 369 l 461 493 l 776 493 m 461 556 l 461 679 l 776 679 l 776 556 l 461 556 z "},"":{"ha":568,"x_min":56,"x_max":513,"o":"m 56 1546 q 80 1609 56 1582 q 138 1636 104 1636 q 192 1610 169 1636 q 215 1546 215 1585 q 194 1483 215 1510 q 138 1456 172 1456 q 78 1483 101 1456 q 56 1546 56 1510 m 433 1456 q 376 1483 397 1456 q 354 1546 354 1510 q 377 1609 354 1582 q 433 1636 400 1636 q 490 1610 468 1636 q 513 1546 513 1585 q 491 1483 513 1510 q 433 1456 469 1456 z "},"":{"ha":1121,"x_min":75,"x_max":1044,"o":"m 75 813 q 113 1024 75 925 q 217 1197 151 1122 q 372 1313 282 1271 q 563 1356 461 1356 q 752 1313 664 1356 q 905 1197 840 1271 q 1007 1024 969 1122 q 1044 813 1044 925 q 1007 599 1044 699 q 905 425 969 499 q 752 308 840 351 q 563 265 664 265 q 372 308 461 265 q 217 425 282 351 q 113 599 151 499 q 75 813 75 699 m 563 1283 q 401 1247 475 1283 q 272 1146 326 1210 q 187 994 218 1082 q 156 807 156 907 q 187 622 156 708 q 272 473 218 536 q 401 374 326 410 q 563 338 475 338 q 721 374 647 338 q 849 474 794 410 q 934 624 903 538 q 965 813 965 711 q 934 997 965 911 q 849 1147 903 1083 q 721 1247 794 1210 q 563 1283 647 1283 m 625 413 q 470 444 543 413 q 343 529 397 475 q 258 656 289 583 q 226 811 226 729 q 258 965 226 893 q 343 1092 289 1038 q 470 1177 397 1146 q 625 1208 543 1208 l 625 1064 q 526 1044 572 1064 q 445 990 479 1025 q 391 910 411 956 q 371 811 371 864 q 391 712 371 758 q 445 631 411 665 q 526 577 479 597 q 625 557 572 557 l 625 413 z "},"":{"ha":960,"x_min":61,"x_max":889,"o":"m 889 804 l 889 393 l 707 393 l 707 618 l 61 618 l 61 804 l 889 804 z "},"":{"ha":0,"x_min":0,"x_max":0,"o":""},"":{"ha":679,"x_min":68,"x_max":608,"o":"m 68 1068 q 90 1182 68 1129 q 148 1274 111 1235 q 235 1336 185 1314 q 340 1358 285 1358 q 447 1336 397 1358 q 532 1274 496 1314 q 588 1182 568 1235 q 608 1068 608 1129 q 588 955 608 1008 q 532 862 568 901 q 447 799 496 822 q 340 776 397 776 q 235 799 285 776 q 148 862 185 822 q 90 955 111 901 q 68 1068 68 1008 m 340 1300 q 258 1282 296 1300 q 194 1232 221 1264 q 151 1158 167 1200 q 136 1068 136 1117 q 151 978 136 1021 q 194 906 167 936 q 259 857 221 875 q 342 839 297 839 q 422 857 385 839 q 485 906 458 875 q 528 978 513 936 q 543 1068 543 1021 q 528 1158 543 1117 q 485 1232 513 1200 q 422 1282 458 1264 q 340 1300 385 1300 m 231 928 l 231 1246 l 346 1246 q 407 1218 382 1246 q 432 1150 432 1190 q 419 1099 432 1122 q 385 1065 407 1076 l 478 928 l 413 928 q 350 1019 378 981 q 307 1082 326 1054 q 288 1111 288 1110 l 288 928 l 231 928 m 351 1114 q 369 1128 363 1117 q 375 1150 375 1139 q 367 1176 375 1164 q 346 1189 360 1189 l 301 1189 l 351 1114 z "},"":{"ha":415,"x_min":51,"x_max":367,"o":"m 51 463 l 51 586 l 367 586 l 367 463 l 51 463 z "},"":{"ha":435,"x_min":50,"x_max":386,"o":"m 386 1708 l 192 1456 l 50 1456 l 192 1708 l 386 1708 z "},"":{"ha":321,"x_min":7,"x_max":314,"o":"m 297 -214 q 241 -272 278 -253 q 157 -290 204 -290 q 82 -278 121 -290 q 7 -244 43 -267 l 53 -150 q 92 -172 67 -161 q 135 -186 117 -183 q 187 -181 172 -193 q 201 -153 201 -169 q 172 -107 201 -131 q 90 -78 143 -83 l 165 69 l 293 69 q 281 49 286 58 q 269 29 275 39 q 250 -4 260 13 q 233 -32 240 -21 q 281 -65 263 -44 q 306 -110 299 -86 q 312 -162 314 -135 q 297 -214 310 -189 z "},"":{"ha":813,"x_min":6,"x_max":744,"o":"m 322 171 l 322 271 l 583 556 l 682 556 l 682 271 l 744 271 l 744 171 l 682 171 l 682 6 l 582 6 l 582 171 l 322 171 m 6 -7 l 615 1179 l 706 1179 l 94 -7 l 6 -7 m 71 1114 l 168 1175 l 268 1175 l 268 625 l 168 625 l 168 1049 q 148 1036 157 1042 q 129 1024 139 1031 q 97 1003 114 1013 q 71 986 81 993 l 71 1114 m 582 271 l 582 418 l 447 271 l 582 271 z "},"":{"ha":765,"x_min":3,"x_max":703,"o":"m 610 1179 l 703 1179 l 93 -7 l 3 -7 l 610 1179 m 388 117 q 417 240 388 194 q 504 318 446 286 q 535 347 524 331 q 547 385 547 363 q 527 435 547 414 q 476 456 507 456 l 476 556 q 543 542 513 556 q 597 506 574 529 q 634 451 621 482 q 647 385 647 421 q 619 290 647 332 q 547 229 592 249 q 513 206 525 218 q 494 180 500 194 q 488 147 489 165 q 488 106 488 129 l 644 106 l 644 6 l 388 6 l 388 117 m 168 1049 q 148 1036 157 1042 q 129 1024 139 1031 q 97 1003 114 1013 q 71 986 81 993 l 71 1114 l 168 1175 l 268 1175 l 268 625 l 168 625 l 168 1049 z "},"":{"ha":915,"x_min":75,"x_max":847,"o":"m 425 301 l 686 586 l 785 586 l 785 301 l 847 301 l 847 201 l 785 201 l 785 35 l 685 35 l 685 201 l 425 201 l 425 301 m 240 956 l 283 1075 l 75 1075 l 75 1175 l 425 1175 l 340 939 q 401 880 376 919 q 425 790 425 840 q 414 727 425 757 q 383 674 403 697 q 335 638 363 651 q 275 625 307 625 l 75 625 l 75 725 l 275 725 q 312 746 299 725 q 325 790 325 767 q 312 835 325 814 q 275 856 299 856 l 75 856 l 75 956 l 240 956 m 699 1179 l 789 1179 l 179 -7 l 90 -7 l 699 1179 m 550 301 l 685 301 l 685 449 l 550 301 z "},"":{"ha":1067,"x_min":39,"x_max":1026,"o":"m 532 1086 l 456 743 l 661 507 l 532 1086 m 39 0 q 52 61 39 3 q 86 215 65 119 q 134 431 107 310 q 189 677 161 551 q 244 924 217 803 q 292 1140 271 1044 q 326 1294 313 1235 q 339 1357 339 1354 l 726 1357 q 741 1288 728 1349 q 775 1131 754 1226 q 822 915 796 1035 q 876 672 849 796 q 931 428 904 547 q 978 216 957 310 q 1012 63 999 122 q 1026 0 1025 4 l 774 0 l 390 443 l 293 0 l 39 0 m 560 1708 l 701 1456 l 560 1456 l 365 1708 l 560 1708 z "},"":{"ha":1067,"x_min":39,"x_max":1026,"o":"m 532 1086 l 456 743 l 661 507 l 532 1086 m 39 0 q 52 61 39 3 q 86 215 65 119 q 134 431 107 310 q 189 677 161 551 q 244 924 217 803 q 292 1140 271 1044 q 326 1294 313 1235 q 339 1357 339 1354 l 726 1357 q 741 1288 728 1349 q 775 1131 754 1226 q 822 915 796 1035 q 876 672 849 796 q 931 428 904 547 q 978 216 957 310 q 1012 63 999 122 q 1026 0 1025 4 l 774 0 l 390 443 l 293 0 l 39 0 m 701 1708 l 507 1456 l 365 1456 l 507 1708 l 701 1708 z "},"":{"ha":1067,"x_min":39,"x_max":1026,"o":"m 532 1086 l 456 743 l 661 507 l 532 1086 m 39 0 q 52 61 39 3 q 86 215 65 119 q 134 431 107 310 q 189 677 161 551 q 244 924 217 803 q 292 1140 271 1044 q 326 1294 313 1235 q 339 1357 339 1354 l 726 1357 q 741 1288 728 1349 q 775 1131 754 1226 q 822 915 796 1035 q 876 672 849 796 q 931 428 904 547 q 978 216 957 310 q 1012 63 999 122 q 1026 0 1025 4 l 774 0 l 390 443 l 293 0 l 39 0 m 318 1456 q 349 1547 338 1514 q 365 1597 360 1581 q 372 1619 371 1614 q 375 1626 374 1625 q 377 1631 376 1628 q 382 1646 378 1633 q 394 1685 386 1658 q 419 1758 403 1711 l 646 1758 q 676 1671 664 1706 q 698 1606 688 1636 q 719 1541 708 1575 q 747 1456 731 1507 l 586 1456 q 560 1536 575 1492 q 532 1617 544 1581 q 524 1591 532 1615 q 507 1538 517 1567 q 489 1485 497 1510 q 479 1456 481 1460 l 318 1456 z "},"":{"ha":1067,"x_min":39,"x_max":1026,"o":"m 532 1086 l 456 743 l 661 507 l 532 1086 m 39 0 q 52 61 39 3 q 86 215 65 119 q 134 431 107 310 q 189 677 161 551 q 244 924 217 803 q 292 1140 271 1044 q 326 1294 313 1235 q 339 1357 339 1354 l 726 1357 q 741 1288 728 1349 q 775 1131 754 1226 q 822 915 796 1035 q 876 672 849 796 q 931 428 904 547 q 978 216 957 310 q 1012 63 999 122 q 1026 0 1025 4 l 774 0 l 390 443 l 293 0 l 39 0 m 336 1456 q 363 1591 333 1543 q 444 1639 392 1639 q 488 1634 469 1639 q 521 1624 506 1629 q 549 1615 536 1619 q 579 1610 563 1610 q 600 1616 592 1610 q 611 1646 608 1622 l 732 1646 q 622 1468 735 1468 q 577 1472 596 1468 q 543 1481 558 1476 q 515 1490 528 1486 q 486 1494 501 1494 q 465 1486 471 1494 q 456 1456 458 1478 l 336 1456 z "},"":{"ha":1067,"x_min":39,"x_max":1026,"o":"m 532 1086 l 456 743 l 661 507 l 532 1086 m 39 0 q 52 61 39 3 q 86 215 65 119 q 134 431 107 310 q 189 677 161 551 q 244 924 217 803 q 292 1140 271 1044 q 326 1294 313 1235 q 339 1357 339 1354 l 726 1357 q 741 1288 728 1349 q 775 1131 754 1226 q 822 915 796 1035 q 876 672 849 796 q 931 428 904 547 q 978 216 957 310 q 1012 63 999 122 q 1026 0 1025 4 l 774 0 l 390 443 l 293 0 l 39 0 m 304 1546 q 328 1609 304 1582 q 386 1636 353 1636 q 441 1610 418 1636 q 464 1546 464 1585 q 442 1483 464 1510 q 386 1456 421 1456 q 327 1483 350 1456 q 304 1546 304 1510 m 682 1456 q 624 1483 646 1456 q 603 1546 603 1510 q 626 1609 603 1582 q 682 1636 649 1636 q 739 1610 717 1636 q 761 1546 761 1585 q 740 1483 761 1510 q 682 1456 718 1456 z "},"":{"ha":1067,"x_min":39,"x_max":1026,"o":"m 532 1086 l 456 743 l 661 507 l 532 1086 m 39 0 q 52 61 39 3 q 86 215 65 119 q 134 431 107 310 q 189 677 161 551 q 244 924 217 803 q 292 1140 271 1044 q 326 1294 313 1235 q 339 1357 339 1354 l 726 1357 q 741 1288 728 1349 q 775 1131 754 1226 q 822 915 796 1035 q 876 672 849 796 q 931 428 904 547 q 978 216 957 310 q 1012 63 999 122 q 1026 0 1025 4 l 774 0 l 390 443 l 293 0 l 39 0 m 321 1519 q 338 1615 321 1571 q 383 1690 354 1658 q 450 1740 411 1722 q 535 1758 489 1758 q 623 1740 583 1758 q 690 1689 663 1721 q 731 1615 717 1657 q 746 1529 746 1574 q 728 1432 746 1475 q 680 1358 710 1389 q 611 1310 650 1326 q 531 1293 572 1293 q 445 1311 483 1293 q 379 1360 407 1329 q 336 1433 351 1392 q 321 1519 321 1474 m 533 1604 q 484 1578 500 1604 q 468 1522 468 1553 q 487 1469 468 1490 q 533 1447 506 1447 q 580 1469 561 1447 q 599 1526 599 1492 q 584 1578 599 1553 q 533 1604 569 1604 z "},"":{"ha":1957,"x_min":39,"x_max":1910,"o":"m 532 1086 l 456 743 l 661 507 l 532 1086 m 39 0 q 52 61 39 3 q 86 215 65 119 q 134 431 107 310 q 189 677 161 551 q 244 924 217 803 q 292 1140 271 1044 q 326 1294 313 1235 q 339 1357 339 1354 l 726 1357 q 741 1288 728 1349 q 775 1131 754 1226 q 822 915 796 1035 q 876 672 849 796 q 931 428 904 547 q 978 216 957 310 q 1012 63 999 122 q 1026 0 1025 4 l 774 0 l 390 443 l 293 0 l 39 0 m 1910 1357 l 1910 1111 l 1385 1111 l 1385 992 l 1832 992 l 1832 744 l 1385 744 l 1385 621 l 1832 621 l 1832 374 l 1385 374 l 1385 246 l 1910 247 l 1910 0 l 1139 0 l 1139 1357 l 1910 1357 z "},"":{"ha":746,"x_min":31,"x_max":710,"o":"m 31 679 q 84 943 31 819 q 230 1158 138 1067 q 446 1303 322 1250 q 710 1357 569 1357 l 710 1111 q 542 1077 621 1111 q 404 985 463 1043 q 312 848 346 926 q 278 679 278 769 q 312 511 278 590 q 404 373 346 432 q 542 280 463 314 q 710 246 621 246 l 710 0 q 446 53 569 0 q 230 199 322 107 q 84 415 138 292 q 31 679 31 539 m 501 -214 q 445 -272 482 -253 q 361 -290 408 -290 q 286 -278 325 -290 q 211 -244 247 -267 l 257 -150 q 296 -172 271 -161 q 339 -186 321 -183 q 391 -181 376 -193 q 406 -153 406 -169 q 376 -107 406 -131 q 294 -78 347 -83 l 369 69 l 497 69 q 485 49 490 58 q 474 29 479 39 q 454 -4 464 13 q 438 -32 444 -21 q 485 -65 467 -44 q 510 -110 503 -86 q 516 -162 518 -135 q 501 -214 514 -189 z "},"":{"ha":890,"x_min":72,"x_max":843,"o":"m 843 1357 l 843 1111 l 318 1111 l 318 992 l 765 992 l 765 744 l 318 744 l 318 621 l 765 621 l 765 374 l 318 374 l 318 246 l 843 247 l 843 0 l 72 0 l 72 1357 l 843 1357 m 471 1708 l 613 1456 l 471 1456 l 276 1708 l 471 1708 z "},"":{"ha":890,"x_min":72,"x_max":843,"o":"m 843 1357 l 843 1111 l 318 1111 l 318 992 l 765 992 l 765 744 l 318 744 l 318 621 l 765 621 l 765 374 l 318 374 l 318 246 l 843 247 l 843 0 l 72 0 l 72 1357 l 843 1357 m 613 1708 l 418 1456 l 276 1456 l 418 1708 l 613 1708 z "},"":{"ha":890,"x_min":72,"x_max":843,"o":"m 843 1357 l 843 1111 l 318 1111 l 318 992 l 765 992 l 765 744 l 318 744 l 318 621 l 765 621 l 765 374 l 318 374 l 318 246 l 843 247 l 843 0 l 72 0 l 72 1357 l 843 1357 m 231 1456 q 261 1547 250 1514 q 278 1597 272 1581 q 285 1619 283 1614 q 288 1626 286 1625 q 290 1631 289 1628 q 294 1646 290 1633 q 307 1685 299 1658 q 332 1758 315 1711 l 558 1758 q 588 1671 576 1706 q 610 1606 600 1636 q 632 1541 621 1575 q 660 1456 643 1507 l 499 1456 q 472 1536 488 1492 q 444 1617 457 1581 q 437 1591 444 1615 q 419 1538 429 1567 q 401 1485 410 1510 q 392 1456 393 1460 l 231 1456 z "},"":{"ha":890,"x_min":72,"x_max":843,"o":"m 843 1357 l 843 1111 l 318 1111 l 318 992 l 765 992 l 765 744 l 318 744 l 318 621 l 765 621 l 765 374 l 318 374 l 318 246 l 843 247 l 843 0 l 72 0 l 72 1357 l 843 1357 m 217 1546 q 241 1609 217 1582 q 299 1636 265 1636 q 353 1610 331 1636 q 376 1546 376 1585 q 355 1483 376 1510 q 299 1456 333 1456 q 240 1483 263 1456 q 217 1546 217 1510 m 594 1456 q 537 1483 558 1456 q 515 1546 515 1510 q 538 1609 515 1582 q 594 1636 561 1636 q 651 1610 629 1636 q 674 1546 674 1585 q 652 1483 674 1510 q 594 1456 631 1456 z "},"":{"ha":393,"x_min":29,"x_max":365,"o":"m 318 1357 l 318 0 l 72 0 l 72 1357 l 318 1357 m 224 1708 l 365 1456 l 224 1456 l 29 1708 l 224 1708 z "},"":{"ha":393,"x_min":29,"x_max":365,"o":"m 318 1357 l 318 0 l 72 0 l 72 1357 l 318 1357 m 365 1708 l 171 1456 l 29 1456 l 171 1708 l 365 1708 z "},"":{"ha":393,"x_min":-18,"x_max":411,"o":"m 318 1357 l 318 0 l 72 0 l 72 1357 l 318 1357 m -18 1456 q 13 1547 1 1514 q 29 1597 24 1581 q 36 1619 35 1614 q 39 1626 38 1625 q 41 1631 40 1628 q 46 1646 42 1633 q 58 1685 50 1658 q 83 1758 67 1711 l 310 1758 q 340 1671 328 1706 q 362 1606 351 1636 q 383 1541 372 1575 q 411 1456 394 1507 l 250 1456 q 224 1536 239 1492 q 196 1617 208 1581 q 188 1591 196 1615 q 171 1538 181 1567 q 153 1485 161 1510 q 143 1456 144 1460 l -18 1456 z "},"":{"ha":393,"x_min":-32,"x_max":425,"o":"m 318 1357 l 318 0 l 72 0 l 72 1357 l 318 1357 m -32 1546 q -8 1609 -32 1582 q 50 1636 17 1636 q 105 1610 82 1636 q 128 1546 128 1585 q 106 1483 128 1510 q 50 1456 85 1456 q -9 1483 14 1456 q -32 1546 -32 1510 m 346 1456 q 288 1483 310 1456 q 267 1546 267 1510 q 290 1609 267 1582 q 346 1636 313 1636 q 403 1610 381 1636 q 425 1546 425 1585 q 403 1483 425 1510 q 346 1456 382 1456 z "},"":{"ha":1251,"x_min":72,"x_max":1179,"o":"m 1179 1357 l 1179 0 l 608 0 l 436 1111 l 318 1111 l 318 0 l 72 0 l 72 1357 l 647 1357 l 821 247 l 932 247 l 932 1357 l 1179 1357 m 428 1456 q 454 1591 425 1543 q 536 1639 483 1639 q 579 1634 561 1639 q 613 1624 597 1629 q 641 1615 628 1619 q 671 1610 654 1610 q 692 1616 683 1610 q 703 1646 700 1622 l 824 1646 q 714 1468 826 1468 q 669 1472 688 1468 q 635 1481 650 1476 q 606 1490 619 1486 q 578 1494 593 1494 q 556 1486 563 1494 q 547 1456 550 1478 l 428 1456 z "},"":{"ha":1456,"x_min":50,"x_max":1407,"o":"m 50 679 q 103 943 50 819 q 249 1158 157 1067 q 465 1303 342 1250 q 729 1357 589 1357 q 993 1303 869 1357 q 1208 1158 1117 1250 q 1353 943 1300 1067 q 1407 679 1407 819 q 1353 415 1407 539 q 1208 199 1300 292 q 993 53 1117 107 q 729 0 869 0 q 465 53 589 0 q 249 199 342 107 q 103 415 157 292 q 50 679 50 539 m 729 1111 q 561 1077 640 1111 q 423 985 482 1043 q 330 848 364 926 q 296 679 296 769 q 330 511 296 590 q 423 373 364 432 q 561 280 482 314 q 729 246 640 246 q 898 280 819 246 q 1035 373 976 314 q 1127 511 1093 432 q 1161 679 1161 590 q 1127 848 1161 769 q 1035 985 1093 926 q 898 1077 976 1043 q 729 1111 819 1111 m 729 567 q 649 599 682 567 q 617 679 617 632 q 649 759 617 726 q 729 792 682 792 q 809 759 776 792 q 842 679 842 726 q 809 599 842 632 q 729 567 776 567 m 656 679 q 677 627 656 649 q 729 606 699 606 q 780 627 758 606 q 801 679 801 649 q 780 730 801 708 q 729 751 758 751 q 677 730 699 751 q 656 679 656 708 m 754 1708 l 896 1456 l 754 1456 l 560 1708 l 754 1708 z "},"":{"ha":1456,"x_min":50,"x_max":1407,"o":"m 50 679 q 103 943 50 819 q 249 1158 157 1067 q 465 1303 342 1250 q 729 1357 589 1357 q 993 1303 869 1357 q 1208 1158 1117 1250 q 1353 943 1300 1067 q 1407 679 1407 819 q 1353 415 1407 539 q 1208 199 1300 292 q 993 53 1117 107 q 729 0 869 0 q 465 53 589 0 q 249 199 342 107 q 103 415 157 292 q 50 679 50 539 m 729 1111 q 561 1077 640 1111 q 423 985 482 1043 q 330 848 364 926 q 296 679 296 769 q 330 511 296 590 q 423 373 364 432 q 561 280 482 314 q 729 246 640 246 q 898 280 819 246 q 1035 373 976 314 q 1127 511 1093 432 q 1161 679 1161 590 q 1127 848 1161 769 q 1035 985 1093 926 q 898 1077 976 1043 q 729 1111 819 1111 m 729 567 q 649 599 682 567 q 617 679 617 632 q 649 759 617 726 q 729 792 682 792 q 809 759 776 792 q 842 679 842 726 q 809 599 842 632 q 729 567 776 567 m 656 679 q 677 627 656 649 q 729 606 699 606 q 780 627 758 606 q 801 679 801 649 q 780 730 801 708 q 729 751 758 751 q 677 730 699 751 q 656 679 656 708 m 896 1708 l 701 1456 l 560 1456 l 701 1708 l 896 1708 z "},"":{"ha":1456,"x_min":50,"x_max":1407,"o":"m 50 679 q 103 943 50 819 q 249 1158 157 1067 q 465 1303 342 1250 q 729 1357 589 1357 q 993 1303 869 1357 q 1208 1158 1117 1250 q 1353 943 1300 1067 q 1407 679 1407 819 q 1353 415 1407 539 q 1208 199 1300 292 q 993 53 1117 107 q 729 0 869 0 q 465 53 589 0 q 249 199 342 107 q 103 415 157 292 q 50 679 50 539 m 729 1111 q 561 1077 640 1111 q 423 985 482 1043 q 330 848 364 926 q 296 679 296 769 q 330 511 296 590 q 423 373 364 432 q 561 280 482 314 q 729 246 640 246 q 898 280 819 246 q 1035 373 976 314 q 1127 511 1093 432 q 1161 679 1161 590 q 1127 848 1161 769 q 1035 985 1093 926 q 898 1077 976 1043 q 729 1111 819 1111 m 729 567 q 649 599 682 567 q 617 679 617 632 q 649 759 617 726 q 729 792 682 792 q 809 759 776 792 q 842 679 842 726 q 809 599 842 632 q 729 567 776 567 m 656 679 q 677 627 656 649 q 729 606 699 606 q 780 627 758 606 q 801 679 801 649 q 780 730 801 708 q 729 751 758 751 q 677 730 699 751 q 656 679 656 708 m 513 1456 q 543 1547 532 1514 q 560 1597 554 1581 q 567 1619 565 1614 q 569 1626 568 1625 q 572 1631 571 1628 q 576 1646 572 1633 q 589 1685 581 1658 q 614 1758 597 1711 l 840 1758 q 870 1671 858 1706 q 892 1606 882 1636 q 914 1541 903 1575 q 942 1456 925 1507 l 781 1456 q 754 1536 769 1492 q 726 1617 739 1581 q 719 1591 726 1615 q 701 1538 711 1567 q 683 1485 692 1510 q 674 1456 675 1460 l 513 1456 z "},"":{"ha":1456,"x_min":50,"x_max":1407,"o":"m 50 679 q 103 943 50 819 q 249 1158 157 1067 q 465 1303 342 1250 q 729 1357 589 1357 q 993 1303 869 1357 q 1208 1158 1117 1250 q 1353 943 1300 1067 q 1407 679 1407 819 q 1353 415 1407 539 q 1208 199 1300 292 q 993 53 1117 107 q 729 0 869 0 q 465 53 589 0 q 249 199 342 107 q 103 415 157 292 q 50 679 50 539 m 729 1111 q 561 1077 640 1111 q 423 985 482 1043 q 330 848 364 926 q 296 679 296 769 q 330 511 296 590 q 423 373 364 432 q 561 280 482 314 q 729 246 640 246 q 898 280 819 246 q 1035 373 976 314 q 1127 511 1093 432 q 1161 679 1161 590 q 1127 848 1161 769 q 1035 985 1093 926 q 898 1077 976 1043 q 729 1111 819 1111 m 729 567 q 649 599 682 567 q 617 679 617 632 q 649 759 617 726 q 729 792 682 792 q 809 759 776 792 q 842 679 842 726 q 809 599 842 632 q 729 567 776 567 m 656 679 q 677 627 656 649 q 729 606 699 606 q 780 627 758 606 q 801 679 801 649 q 780 730 801 708 q 729 751 758 751 q 677 730 699 751 q 656 679 656 708 m 531 1456 q 557 1591 528 1543 q 639 1639 586 1639 q 682 1634 664 1639 q 715 1624 700 1629 q 744 1615 731 1619 q 774 1610 757 1610 q 794 1616 786 1610 q 806 1646 803 1622 l 926 1646 q 817 1468 929 1468 q 772 1472 790 1468 q 738 1481 753 1476 q 709 1490 722 1486 q 681 1494 696 1494 q 659 1486 665 1494 q 650 1456 653 1478 l 531 1456 z "},"":{"ha":1456,"x_min":50,"x_max":1407,"o":"m 50 679 q 103 943 50 819 q 249 1158 157 1067 q 465 1303 342 1250 q 729 1357 589 1357 q 993 1303 869 1357 q 1208 1158 1117 1250 q 1353 943 1300 1067 q 1407 679 1407 819 q 1353 415 1407 539 q 1208 199 1300 292 q 993 53 1117 107 q 729 0 869 0 q 465 53 589 0 q 249 199 342 107 q 103 415 157 292 q 50 679 50 539 m 729 1111 q 561 1077 640 1111 q 423 985 482 1043 q 330 848 364 926 q 296 679 296 769 q 330 511 296 590 q 423 373 364 432 q 561 280 482 314 q 729 246 640 246 q 898 280 819 246 q 1035 373 976 314 q 1127 511 1093 432 q 1161 679 1161 590 q 1127 848 1161 769 q 1035 985 1093 926 q 898 1077 976 1043 q 729 1111 819 1111 m 729 567 q 649 599 682 567 q 617 679 617 632 q 649 759 617 726 q 729 792 682 792 q 809 759 776 792 q 842 679 842 726 q 809 599 842 632 q 729 567 776 567 m 656 679 q 677 627 656 649 q 729 606 699 606 q 780 627 758 606 q 801 679 801 649 q 780 730 801 708 q 729 751 758 751 q 677 730 699 751 q 656 679 656 708 m 499 1546 q 523 1609 499 1582 q 581 1636 547 1636 q 635 1610 613 1636 q 658 1546 658 1585 q 637 1483 658 1510 q 581 1456 615 1456 q 522 1483 544 1456 q 499 1546 499 1510 m 876 1456 q 819 1483 840 1456 q 797 1546 797 1510 q 820 1609 797 1582 q 876 1636 843 1636 q 933 1610 911 1636 q 956 1546 956 1585 q 934 1483 956 1510 q 876 1456 913 1456 z "},"":{"ha":1456,"x_min":50,"x_max":1407,"o":"m 50 679 q 103 943 50 819 q 249 1158 157 1067 q 465 1303 342 1250 q 729 1357 589 1357 q 993 1303 869 1357 q 1208 1158 1117 1250 q 1353 943 1300 1067 q 1407 679 1407 819 q 1353 415 1407 539 q 1208 199 1300 292 q 993 53 1117 107 q 729 0 869 0 q 465 53 589 0 q 249 199 342 107 q 103 415 157 292 q 50 679 50 539 m 729 1111 q 561 1077 640 1111 q 423 985 482 1043 q 330 848 364 926 q 296 679 296 769 q 330 511 296 590 q 423 373 364 432 q 561 280 482 314 q 729 246 640 246 q 898 280 819 246 q 1035 373 976 314 q 1127 511 1093 432 q 1161 679 1161 590 q 1127 848 1161 769 q 1035 985 1093 926 q 898 1077 976 1043 q 729 1111 819 1111 m 729 567 q 809 599 776 567 q 842 679 842 632 q 809 759 842 726 q 729 792 776 792 q 649 759 682 792 q 617 679 617 726 q 649 599 617 632 q 729 567 682 567 m 656 679 q 677 730 656 708 q 729 751 699 751 q 780 730 758 751 q 801 679 801 708 q 780 627 801 649 q 729 606 758 606 q 677 627 699 606 q 656 679 656 649 m 422 -114 q 610 678 526 331 q 678 969 644 826 q 739 1223 713 1111 q 782 1403 765 1335 q 799 1474 799 1472 l 1033 1474 q 958 1103 1008 1328 q 842 610 915 911 q 658 -114 769 308 l 422 -114 z "},"":{"ha":993,"x_min":65,"x_max":929,"o":"m 65 1357 l 311 1357 l 311 451 q 326 374 311 411 q 365 309 340 338 q 424 264 390 281 q 497 247 458 247 q 571 264 538 247 q 629 309 604 281 q 668 374 654 338 q 682 451 682 411 l 682 1357 l 929 1357 l 929 475 q 897 293 929 379 q 806 142 864 207 q 668 38 747 76 q 497 0 589 0 q 326 38 406 0 q 189 142 247 76 q 98 293 131 207 q 65 475 65 379 l 65 1357 m 522 1708 l 664 1456 l 522 1456 l 328 1708 l 522 1708 z "},"":{"ha":993,"x_min":65,"x_max":929,"o":"m 65 1357 l 311 1357 l 311 451 q 326 374 311 411 q 365 309 340 338 q 424 264 390 281 q 497 247 458 247 q 571 264 538 247 q 629 309 604 281 q 668 374 654 338 q 682 451 682 411 l 682 1357 l 929 1357 l 929 475 q 897 293 929 379 q 806 142 864 207 q 668 38 747 76 q 497 0 589 0 q 326 38 406 0 q 189 142 247 76 q 98 293 131 207 q 65 475 65 379 l 65 1357 m 664 1708 l 469 1456 l 328 1456 l 469 1708 l 664 1708 z "},"":{"ha":993,"x_min":65,"x_max":929,"o":"m 65 1357 l 311 1357 l 311 451 q 326 374 311 411 q 365 309 340 338 q 424 264 390 281 q 497 247 458 247 q 571 264 538 247 q 629 309 604 281 q 668 374 654 338 q 682 451 682 411 l 682 1357 l 929 1357 l 929 475 q 897 293 929 379 q 806 142 864 207 q 668 38 747 76 q 497 0 589 0 q 326 38 406 0 q 189 142 247 76 q 98 293 131 207 q 65 475 65 379 l 65 1357 m 282 1456 q 313 1547 301 1514 q 329 1597 324 1581 q 336 1619 335 1614 q 339 1626 338 1625 q 341 1631 340 1628 q 346 1646 342 1633 q 358 1685 350 1658 q 383 1758 367 1711 l 610 1758 q 640 1671 628 1706 q 662 1606 651 1636 q 683 1541 672 1575 q 711 1456 694 1507 l 550 1456 q 524 1536 539 1492 q 496 1617 508 1581 q 488 1591 496 1615 q 471 1538 481 1567 q 453 1485 461 1510 q 443 1456 444 1460 l 282 1456 z "},"":{"ha":993,"x_min":65,"x_max":929,"o":"m 65 1357 l 311 1357 l 311 451 q 326 374 311 411 q 365 309 340 338 q 424 264 390 281 q 497 247 458 247 q 571 264 538 247 q 629 309 604 281 q 668 374 654 338 q 682 451 682 411 l 682 1357 l 929 1357 l 929 475 q 897 293 929 379 q 806 142 864 207 q 668 38 747 76 q 497 0 589 0 q 326 38 406 0 q 189 142 247 76 q 98 293 131 207 q 65 475 65 379 l 65 1357 m 268 1546 q 292 1609 268 1582 q 350 1636 317 1636 q 405 1610 382 1636 q 428 1546 428 1585 q 406 1483 428 1510 q 350 1456 385 1456 q 291 1483 314 1456 q 268 1546 268 1510 m 646 1456 q 588 1483 610 1456 q 567 1546 567 1510 q 590 1609 567 1582 q 646 1636 613 1636 q 703 1610 681 1636 q 725 1546 725 1585 q 703 1483 725 1510 q 646 1456 682 1456 z "},"":{"ha":1239,"x_min":29,"x_max":1210,"o":"m 300 1357 l 618 874 l 936 1357 l 1210 1357 l 743 650 l 1051 650 l 1051 403 l 743 403 l 743 0 l 496 0 l 496 403 l 188 403 l 188 650 l 496 650 l 29 1357 l 300 1357 m 788 1708 l 593 1456 l 451 1456 l 593 1708 l 788 1708 z "},"":{"ha":1157,"x_min":0,"x_max":0,"o":""},"":{"ha":1067,"x_min":39,"x_max":1026,"o":"m 532 1086 l 456 743 l 661 507 l 532 1086 m 39 0 q 52 61 39 3 q 86 215 65 119 q 134 431 107 310 q 189 677 161 551 q 244 924 217 803 q 292 1140 271 1044 q 326 1294 313 1235 q 339 1357 339 1354 l 726 1357 q 741 1288 728 1349 q 775 1131 754 1226 q 822 915 796 1035 q 876 672 849 796 q 931 428 904 547 q 978 216 957 310 q 1012 63 999 122 q 1026 0 1025 4 l 774 0 l 390 443 l 293 0 l 39 0 m 560 1708 l 701 1456 l 560 1456 l 365 1708 l 560 1708 z "},"":{"ha":1067,"x_min":39,"x_max":1026,"o":"m 532 1086 l 456 743 l 661 507 l 532 1086 m 39 0 q 52 61 39 3 q 86 215 65 119 q 134 431 107 310 q 189 677 161 551 q 244 924 217 803 q 292 1140 271 1044 q 326 1294 313 1235 q 339 1357 339 1354 l 726 1357 q 741 1288 728 1349 q 775 1131 754 1226 q 822 915 796 1035 q 876 672 849 796 q 931 428 904 547 q 978 216 957 310 q 1012 63 999 122 q 1026 0 1025 4 l 774 0 l 390 443 l 293 0 l 39 0 m 701 1708 l 507 1456 l 365 1456 l 507 1708 l 701 1708 z "},"":{"ha":1067,"x_min":39,"x_max":1026,"o":"m 532 1086 l 456 743 l 661 507 l 532 1086 m 39 0 q 52 61 39 3 q 86 215 65 119 q 134 431 107 310 q 189 677 161 551 q 244 924 217 803 q 292 1140 271 1044 q 326 1294 313 1235 q 339 1357 339 1354 l 726 1357 q 741 1288 728 1349 q 775 1131 754 1226 q 822 915 796 1035 q 876 672 849 796 q 931 428 904 547 q 978 216 957 310 q 1012 63 999 122 q 1026 0 1025 4 l 774 0 l 390 443 l 293 0 l 39 0 m 318 1456 q 349 1547 338 1514 q 365 1597 360 1581 q 372 1619 371 1614 q 375 1626 374 1625 q 377 1631 376 1628 q 382 1646 378 1633 q 394 1685 386 1658 q 419 1758 403 1711 l 646 1758 q 676 1671 664 1706 q 698 1606 688 1636 q 719 1541 708 1575 q 747 1456 731 1507 l 586 1456 q 560 1536 575 1492 q 532 1617 544 1581 q 524 1591 532 1615 q 507 1538 517 1567 q 489 1485 497 1510 q 479 1456 481 1460 l 318 1456 z "},"":{"ha":1067,"x_min":39,"x_max":1026,"o":"m 532 1086 l 456 743 l 661 507 l 532 1086 m 39 0 q 52 61 39 3 q 86 215 65 119 q 134 431 107 310 q 189 677 161 551 q 244 924 217 803 q 292 1140 271 1044 q 326 1294 313 1235 q 339 1357 339 1354 l 726 1357 q 741 1288 728 1349 q 775 1131 754 1226 q 822 915 796 1035 q 876 672 849 796 q 931 428 904 547 q 978 216 957 310 q 1012 63 999 122 q 1026 0 1025 4 l 774 0 l 390 443 l 293 0 l 39 0 m 336 1456 q 363 1591 333 1543 q 444 1639 392 1639 q 488 1634 469 1639 q 521 1624 506 1629 q 549 1615 536 1619 q 579 1610 563 1610 q 600 1616 592 1610 q 611 1646 608 1622 l 732 1646 q 622 1468 735 1468 q 577 1472 596 1468 q 543 1481 558 1476 q 515 1490 528 1486 q 486 1494 501 1494 q 465 1486 471 1494 q 456 1456 458 1478 l 336 1456 z "},"":{"ha":1067,"x_min":39,"x_max":1026,"o":"m 532 1086 l 456 743 l 661 507 l 532 1086 m 39 0 q 52 61 39 3 q 86 215 65 119 q 134 431 107 310 q 189 677 161 551 q 244 924 217 803 q 292 1140 271 1044 q 326 1294 313 1235 q 339 1357 339 1354 l 726 1357 q 741 1288 728 1349 q 775 1131 754 1226 q 822 915 796 1035 q 876 672 849 796 q 931 428 904 547 q 978 216 957 310 q 1012 63 999 122 q 1026 0 1025 4 l 774 0 l 390 443 l 293 0 l 39 0 m 304 1546 q 328 1609 304 1582 q 386 1636 353 1636 q 441 1610 418 1636 q 464 1546 464 1585 q 442 1483 464 1510 q 386 1456 421 1456 q 327 1483 350 1456 q 304 1546 304 1510 m 682 1456 q 624 1483 646 1456 q 603 1546 603 1510 q 626 1609 603 1582 q 682 1636 649 1636 q 739 1610 717 1636 q 761 1546 761 1585 q 740 1483 761 1510 q 682 1456 718 1456 z "},"":{"ha":1067,"x_min":39,"x_max":1026,"o":"m 532 1086 l 456 743 l 661 507 l 532 1086 m 39 0 q 52 61 39 3 q 86 215 65 119 q 134 431 107 310 q 189 677 161 551 q 244 924 217 803 q 292 1140 271 1044 q 326 1294 313 1235 q 339 1357 339 1354 l 726 1357 q 741 1288 728 1349 q 775 1131 754 1226 q 822 915 796 1035 q 876 672 849 796 q 931 428 904 547 q 978 216 957 310 q 1012 63 999 122 q 1026 0 1025 4 l 774 0 l 390 443 l 293 0 l 39 0 m 321 1519 q 338 1615 321 1571 q 383 1690 354 1658 q 450 1740 411 1722 q 535 1758 489 1758 q 623 1740 583 1758 q 690 1689 663 1721 q 731 1615 717 1657 q 746 1529 746 1574 q 728 1432 746 1475 q 680 1358 710 1389 q 611 1310 650 1326 q 531 1293 572 1293 q 445 1311 483 1293 q 379 1360 407 1329 q 336 1433 351 1392 q 321 1519 321 1474 m 533 1604 q 484 1578 500 1604 q 468 1522 468 1553 q 487 1469 468 1490 q 533 1447 506 1447 q 580 1469 561 1447 q 599 1526 599 1492 q 584 1578 599 1553 q 533 1604 569 1604 z "},"":{"ha":1957,"x_min":39,"x_max":1910,"o":"m 532 1086 l 456 743 l 661 507 l 532 1086 m 39 0 q 52 61 39 3 q 86 215 65 119 q 134 431 107 310 q 189 677 161 551 q 244 924 217 803 q 292 1140 271 1044 q 326 1294 313 1235 q 339 1357 339 1354 l 726 1357 q 741 1288 728 1349 q 775 1131 754 1226 q 822 915 796 1035 q 876 672 849 796 q 931 428 904 547 q 978 216 957 310 q 1012 63 999 122 q 1026 0 1025 4 l 774 0 l 390 443 l 293 0 l 39 0 m 1910 1357 l 1910 1111 l 1385 1111 l 1385 992 l 1832 992 l 1832 744 l 1385 744 l 1385 621 l 1832 621 l 1832 374 l 1385 374 l 1385 246 l 1910 247 l 1910 0 l 1139 0 l 1139 1357 l 1910 1357 z "},"":{"ha":746,"x_min":31,"x_max":710,"o":"m 31 679 q 84 943 31 819 q 230 1158 138 1067 q 446 1303 322 1250 q 710 1357 569 1357 l 710 1111 q 542 1077 621 1111 q 404 985 463 1043 q 312 848 346 926 q 278 679 278 769 q 312 511 278 590 q 404 373 346 432 q 542 280 463 314 q 710 246 621 246 l 710 0 q 446 53 569 0 q 230 199 322 107 q 84 415 138 292 q 31 679 31 539 m 501 -214 q 445 -272 482 -253 q 361 -290 408 -290 q 286 -278 325 -290 q 211 -244 247 -267 l 257 -150 q 296 -172 271 -161 q 339 -186 321 -183 q 391 -181 376 -193 q 406 -153 406 -169 q 376 -107 406 -131 q 294 -78 347 -83 l 369 69 l 497 69 q 485 49 490 58 q 474 29 479 39 q 454 -4 464 13 q 438 -32 444 -21 q 485 -65 467 -44 q 510 -110 503 -86 q 516 -162 518 -135 q 501 -214 514 -189 z "},"":{"ha":890,"x_min":72,"x_max":843,"o":"m 843 1357 l 843 1111 l 318 1111 l 318 992 l 765 992 l 765 744 l 318 744 l 318 621 l 765 621 l 765 374 l 318 374 l 318 246 l 843 247 l 843 0 l 72 0 l 72 1357 l 843 1357 m 471 1708 l 613 1456 l 471 1456 l 276 1708 l 471 1708 z "},"":{"ha":890,"x_min":72,"x_max":843,"o":"m 843 1357 l 843 1111 l 318 1111 l 318 992 l 765 992 l 765 744 l 318 744 l 318 621 l 765 621 l 765 374 l 318 374 l 318 246 l 843 247 l 843 0 l 72 0 l 72 1357 l 843 1357 m 613 1708 l 418 1456 l 276 1456 l 418 1708 l 613 1708 z "},"":{"ha":890,"x_min":72,"x_max":843,"o":"m 843 1357 l 843 1111 l 318 1111 l 318 992 l 765 992 l 765 744 l 318 744 l 318 621 l 765 621 l 765 374 l 318 374 l 318 246 l 843 247 l 843 0 l 72 0 l 72 1357 l 843 1357 m 231 1456 q 261 1547 250 1514 q 278 1597 272 1581 q 285 1619 283 1614 q 288 1626 286 1625 q 290 1631 289 1628 q 294 1646 290 1633 q 307 1685 299 1658 q 332 1758 315 1711 l 558 1758 q 588 1671 576 1706 q 610 1606 600 1636 q 632 1541 621 1575 q 660 1456 643 1507 l 499 1456 q 472 1536 488 1492 q 444 1617 457 1581 q 437 1591 444 1615 q 419 1538 429 1567 q 401 1485 410 1510 q 392 1456 393 1460 l 231 1456 z "},"":{"ha":890,"x_min":72,"x_max":843,"o":"m 843 1357 l 843 1111 l 318 1111 l 318 992 l 765 992 l 765 744 l 318 744 l 318 621 l 765 621 l 765 374 l 318 374 l 318 246 l 843 247 l 843 0 l 72 0 l 72 1357 l 843 1357 m 217 1546 q 241 1609 217 1582 q 299 1636 265 1636 q 353 1610 331 1636 q 376 1546 376 1585 q 355 1483 376 1510 q 299 1456 333 1456 q 240 1483 263 1456 q 217 1546 217 1510 m 594 1456 q 537 1483 558 1456 q 515 1546 515 1510 q 538 1609 515 1582 q 594 1636 561 1636 q 651 1610 629 1636 q 674 1546 674 1585 q 652 1483 674 1510 q 594 1456 631 1456 z "},"":{"ha":393,"x_min":29,"x_max":365,"o":"m 318 1357 l 318 0 l 72 0 l 72 1357 l 318 1357 m 224 1708 l 365 1456 l 224 1456 l 29 1708 l 224 1708 z "},"":{"ha":393,"x_min":29,"x_max":365,"o":"m 318 1357 l 318 0 l 72 0 l 72 1357 l 318 1357 m 365 1708 l 171 1456 l 29 1456 l 171 1708 l 365 1708 z "},"":{"ha":393,"x_min":-18,"x_max":411,"o":"m 318 1357 l 318 0 l 72 0 l 72 1357 l 318 1357 m -18 1456 q 13 1547 1 1514 q 29 1597 24 1581 q 36 1619 35 1614 q 39 1626 38 1625 q 41 1631 40 1628 q 46 1646 42 1633 q 58 1685 50 1658 q 83 1758 67 1711 l 310 1758 q 340 1671 328 1706 q 362 1606 351 1636 q 383 1541 372 1575 q 411 1456 394 1507 l 250 1456 q 224 1536 239 1492 q 196 1617 208 1581 q 188 1591 196 1615 q 171 1538 181 1567 q 153 1485 161 1510 q 143 1456 144 1460 l -18 1456 z "},"":{"ha":393,"x_min":-32,"x_max":425,"o":"m 318 1357 l 318 0 l 72 0 l 72 1357 l 318 1357 m -32 1546 q -8 1609 -32 1582 q 50 1636 17 1636 q 105 1610 82 1636 q 128 1546 128 1585 q 106 1483 128 1510 q 50 1456 85 1456 q -9 1483 14 1456 q -32 1546 -32 1510 m 346 1456 q 288 1483 310 1456 q 267 1546 267 1510 q 290 1609 267 1582 q 346 1636 313 1636 q 403 1610 381 1636 q 425 1546 425 1585 q 403 1483 425 1510 q 346 1456 382 1456 z "},"":{"ha":1251,"x_min":72,"x_max":1179,"o":"m 1179 1357 l 1179 0 l 608 0 l 436 1111 l 318 1111 l 318 0 l 72 0 l 72 1357 l 647 1357 l 821 247 l 932 247 l 932 1357 l 1179 1357 m 428 1456 q 454 1591 425 1543 q 536 1639 483 1639 q 579 1634 561 1639 q 613 1624 597 1629 q 641 1615 628 1619 q 671 1610 654 1610 q 692 1616 683 1610 q 703 1646 700 1622 l 824 1646 q 714 1468 826 1468 q 669 1472 688 1468 q 635 1481 650 1476 q 606 1490 619 1486 q 578 1494 593 1494 q 556 1486 563 1494 q 547 1456 550 1478 l 428 1456 z "},"":{"ha":1456,"x_min":50,"x_max":1407,"o":"m 50 679 q 103 943 50 819 q 249 1158 157 1067 q 465 1303 342 1250 q 729 1357 589 1357 q 993 1303 869 1357 q 1208 1158 1117 1250 q 1353 943 1300 1067 q 1407 679 1407 819 q 1353 415 1407 539 q 1208 199 1300 292 q 993 53 1117 107 q 729 0 869 0 q 465 53 589 0 q 249 199 342 107 q 103 415 157 292 q 50 679 50 539 m 729 1111 q 561 1077 640 1111 q 423 985 482 1043 q 330 848 364 926 q 296 679 296 769 q 330 511 296 590 q 423 373 364 432 q 561 280 482 314 q 729 246 640 246 q 898 280 819 246 q 1035 373 976 314 q 1127 511 1093 432 q 1161 679 1161 590 q 1127 848 1161 769 q 1035 985 1093 926 q 898 1077 976 1043 q 729 1111 819 1111 m 729 567 q 649 599 682 567 q 617 679 617 632 q 649 759 617 726 q 729 792 682 792 q 809 759 776 792 q 842 679 842 726 q 809 599 842 632 q 729 567 776 567 m 656 679 q 677 627 656 649 q 729 606 699 606 q 780 627 758 606 q 801 679 801 649 q 780 730 801 708 q 729 751 758 751 q 677 730 699 751 q 656 679 656 708 m 754 1708 l 896 1456 l 754 1456 l 560 1708 l 754 1708 z "},"":{"ha":1456,"x_min":50,"x_max":1407,"o":"m 50 679 q 103 943 50 819 q 249 1158 157 1067 q 465 1303 342 1250 q 729 1357 589 1357 q 993 1303 869 1357 q 1208 1158 1117 1250 q 1353 943 1300 1067 q 1407 679 1407 819 q 1353 415 1407 539 q 1208 199 1300 292 q 993 53 1117 107 q 729 0 869 0 q 465 53 589 0 q 249 199 342 107 q 103 415 157 292 q 50 679 50 539 m 729 1111 q 561 1077 640 1111 q 423 985 482 1043 q 330 848 364 926 q 296 679 296 769 q 330 511 296 590 q 423 373 364 432 q 561 280 482 314 q 729 246 640 246 q 898 280 819 246 q 1035 373 976 314 q 1127 511 1093 432 q 1161 679 1161 590 q 1127 848 1161 769 q 1035 985 1093 926 q 898 1077 976 1043 q 729 1111 819 1111 m 729 567 q 649 599 682 567 q 617 679 617 632 q 649 759 617 726 q 729 792 682 792 q 809 759 776 792 q 842 679 842 726 q 809 599 842 632 q 729 567 776 567 m 656 679 q 677 627 656 649 q 729 606 699 606 q 780 627 758 606 q 801 679 801 649 q 780 730 801 708 q 729 751 758 751 q 677 730 699 751 q 656 679 656 708 m 896 1708 l 701 1456 l 560 1456 l 701 1708 l 896 1708 z "},"":{"ha":1456,"x_min":50,"x_max":1407,"o":"m 50 679 q 103 943 50 819 q 249 1158 157 1067 q 465 1303 342 1250 q 729 1357 589 1357 q 993 1303 869 1357 q 1208 1158 1117 1250 q 1353 943 1300 1067 q 1407 679 1407 819 q 1353 415 1407 539 q 1208 199 1300 292 q 993 53 1117 107 q 729 0 869 0 q 465 53 589 0 q 249 199 342 107 q 103 415 157 292 q 50 679 50 539 m 729 1111 q 561 1077 640 1111 q 423 985 482 1043 q 330 848 364 926 q 296 679 296 769 q 330 511 296 590 q 423 373 364 432 q 561 280 482 314 q 729 246 640 246 q 898 280 819 246 q 1035 373 976 314 q 1127 511 1093 432 q 1161 679 1161 590 q 1127 848 1161 769 q 1035 985 1093 926 q 898 1077 976 1043 q 729 1111 819 1111 m 729 567 q 649 599 682 567 q 617 679 617 632 q 649 759 617 726 q 729 792 682 792 q 809 759 776 792 q 842 679 842 726 q 809 599 842 632 q 729 567 776 567 m 656 679 q 677 627 656 649 q 729 606 699 606 q 780 627 758 606 q 801 679 801 649 q 780 730 801 708 q 729 751 758 751 q 677 730 699 751 q 656 679 656 708 m 513 1456 q 543 1547 532 1514 q 560 1597 554 1581 q 567 1619 565 1614 q 569 1626 568 1625 q 572 1631 571 1628 q 576 1646 572 1633 q 589 1685 581 1658 q 614 1758 597 1711 l 840 1758 q 870 1671 858 1706 q 892 1606 882 1636 q 914 1541 903 1575 q 942 1456 925 1507 l 781 1456 q 754 1536 769 1492 q 726 1617 739 1581 q 719 1591 726 1615 q 701 1538 711 1567 q 683 1485 692 1510 q 674 1456 675 1460 l 513 1456 z "},"":{"ha":1456,"x_min":50,"x_max":1407,"o":"m 50 679 q 103 943 50 819 q 249 1158 157 1067 q 465 1303 342 1250 q 729 1357 589 1357 q 993 1303 869 1357 q 1208 1158 1117 1250 q 1353 943 1300 1067 q 1407 679 1407 819 q 1353 415 1407 539 q 1208 199 1300 292 q 993 53 1117 107 q 729 0 869 0 q 465 53 589 0 q 249 199 342 107 q 103 415 157 292 q 50 679 50 539 m 729 1111 q 561 1077 640 1111 q 423 985 482 1043 q 330 848 364 926 q 296 679 296 769 q 330 511 296 590 q 423 373 364 432 q 561 280 482 314 q 729 246 640 246 q 898 280 819 246 q 1035 373 976 314 q 1127 511 1093 432 q 1161 679 1161 590 q 1127 848 1161 769 q 1035 985 1093 926 q 898 1077 976 1043 q 729 1111 819 1111 m 729 567 q 649 599 682 567 q 617 679 617 632 q 649 759 617 726 q 729 792 682 792 q 809 759 776 792 q 842 679 842 726 q 809 599 842 632 q 729 567 776 567 m 656 679 q 677 627 656 649 q 729 606 699 606 q 780 627 758 606 q 801 679 801 649 q 780 730 801 708 q 729 751 758 751 q 677 730 699 751 q 656 679 656 708 m 531 1456 q 557 1591 528 1543 q 639 1639 586 1639 q 682 1634 664 1639 q 715 1624 700 1629 q 744 1615 731 1619 q 774 1610 757 1610 q 794 1616 786 1610 q 806 1646 803 1622 l 926 1646 q 817 1468 929 1468 q 772 1472 790 1468 q 738 1481 753 1476 q 709 1490 722 1486 q 681 1494 696 1494 q 659 1486 665 1494 q 650 1456 653 1478 l 531 1456 z "},"":{"ha":1456,"x_min":50,"x_max":1407,"o":"m 50 679 q 103 943 50 819 q 249 1158 157 1067 q 465 1303 342 1250 q 729 1357 589 1357 q 993 1303 869 1357 q 1208 1158 1117 1250 q 1353 943 1300 1067 q 1407 679 1407 819 q 1353 415 1407 539 q 1208 199 1300 292 q 993 53 1117 107 q 729 0 869 0 q 465 53 589 0 q 249 199 342 107 q 103 415 157 292 q 50 679 50 539 m 729 1111 q 561 1077 640 1111 q 423 985 482 1043 q 330 848 364 926 q 296 679 296 769 q 330 511 296 590 q 423 373 364 432 q 561 280 482 314 q 729 246 640 246 q 898 280 819 246 q 1035 373 976 314 q 1127 511 1093 432 q 1161 679 1161 590 q 1127 848 1161 769 q 1035 985 1093 926 q 898 1077 976 1043 q 729 1111 819 1111 m 729 567 q 649 599 682 567 q 617 679 617 632 q 649 759 617 726 q 729 792 682 792 q 809 759 776 792 q 842 679 842 726 q 809 599 842 632 q 729 567 776 567 m 656 679 q 677 627 656 649 q 729 606 699 606 q 780 627 758 606 q 801 679 801 649 q 780 730 801 708 q 729 751 758 751 q 677 730 699 751 q 656 679 656 708 m 499 1546 q 523 1609 499 1582 q 581 1636 547 1636 q 635 1610 613 1636 q 658 1546 658 1585 q 637 1483 658 1510 q 581 1456 615 1456 q 522 1483 544 1456 q 499 1546 499 1510 m 876 1456 q 819 1483 840 1456 q 797 1546 797 1510 q 820 1609 797 1582 q 876 1636 843 1636 q 933 1610 911 1636 q 956 1546 956 1585 q 934 1483 956 1510 q 876 1456 913 1456 z "},"":{"ha":1456,"x_min":50,"x_max":1407,"o":"m 50 679 q 103 943 50 819 q 249 1158 157 1067 q 465 1303 342 1250 q 729 1357 589 1357 q 993 1303 869 1357 q 1208 1158 1117 1250 q 1353 943 1300 1067 q 1407 679 1407 819 q 1353 415 1407 539 q 1208 199 1300 292 q 993 53 1117 107 q 729 0 869 0 q 465 53 589 0 q 249 199 342 107 q 103 415 157 292 q 50 679 50 539 m 729 1111 q 561 1077 640 1111 q 423 985 482 1043 q 330 848 364 926 q 296 679 296 769 q 330 511 296 590 q 423 373 364 432 q 561 280 482 314 q 729 246 640 246 q 898 280 819 246 q 1035 373 976 314 q 1127 511 1093 432 q 1161 679 1161 590 q 1127 848 1161 769 q 1035 985 1093 926 q 898 1077 976 1043 q 729 1111 819 1111 m 729 567 q 809 599 776 567 q 842 679 842 632 q 809 759 842 726 q 729 792 776 792 q 649 759 682 792 q 617 679 617 726 q 649 599 617 632 q 729 567 682 567 m 656 679 q 677 730 656 708 q 729 751 699 751 q 780 730 758 751 q 801 679 801 708 q 780 627 801 649 q 729 606 758 606 q 677 627 699 606 q 656 679 656 649 m 422 -114 q 610 678 526 331 q 678 969 644 826 q 739 1223 713 1111 q 782 1403 765 1335 q 799 1474 799 1472 l 1033 1474 q 958 1103 1008 1328 q 842 610 915 911 q 658 -114 769 308 l 422 -114 z "},"":{"ha":993,"x_min":65,"x_max":929,"o":"m 65 1357 l 311 1357 l 311 451 q 326 374 311 411 q 365 309 340 338 q 424 264 390 281 q 497 247 458 247 q 571 264 538 247 q 629 309 604 281 q 668 374 654 338 q 682 451 682 411 l 682 1357 l 929 1357 l 929 475 q 897 293 929 379 q 806 142 864 207 q 668 38 747 76 q 497 0 589 0 q 326 38 406 0 q 189 142 247 76 q 98 293 131 207 q 65 475 65 379 l 65 1357 m 522 1708 l 664 1456 l 522 1456 l 328 1708 l 522 1708 z "},"":{"ha":993,"x_min":65,"x_max":929,"o":"m 65 1357 l 311 1357 l 311 451 q 326 374 311 411 q 365 309 340 338 q 424 264 390 281 q 497 247 458 247 q 571 264 538 247 q 629 309 604 281 q 668 374 654 338 q 682 451 682 411 l 682 1357 l 929 1357 l 929 475 q 897 293 929 379 q 806 142 864 207 q 668 38 747 76 q 497 0 589 0 q 326 38 406 0 q 189 142 247 76 q 98 293 131 207 q 65 475 65 379 l 65 1357 m 664 1708 l 469 1456 l 328 1456 l 469 1708 l 664 1708 z "},"":{"ha":993,"x_min":65,"x_max":929,"o":"m 65 1357 l 311 1357 l 311 451 q 326 374 311 411 q 365 309 340 338 q 424 264 390 281 q 497 247 458 247 q 571 264 538 247 q 629 309 604 281 q 668 374 654 338 q 682 451 682 411 l 682 1357 l 929 1357 l 929 475 q 897 293 929 379 q 806 142 864 207 q 668 38 747 76 q 497 0 589 0 q 326 38 406 0 q 189 142 247 76 q 98 293 131 207 q 65 475 65 379 l 65 1357 m 282 1456 q 313 1547 301 1514 q 329 1597 324 1581 q 336 1619 335 1614 q 339 1626 338 1625 q 341 1631 340 1628 q 346 1646 342 1633 q 358 1685 350 1658 q 383 1758 367 1711 l 610 1758 q 640 1671 628 1706 q 662 1606 651 1636 q 683 1541 672 1575 q 711 1456 694 1507 l 550 1456 q 524 1536 539 1492 q 496 1617 508 1581 q 488 1591 496 1615 q 471 1538 481 1567 q 453 1485 461 1510 q 443 1456 444 1460 l 282 1456 z "},"":{"ha":993,"x_min":65,"x_max":929,"o":"m 65 1357 l 311 1357 l 311 451 q 326 374 311 411 q 365 309 340 338 q 424 264 390 281 q 497 247 458 247 q 571 264 538 247 q 629 309 604 281 q 668 374 654 338 q 682 451 682 411 l 682 1357 l 929 1357 l 929 475 q 897 293 929 379 q 806 142 864 207 q 668 38 747 76 q 497 0 589 0 q 326 38 406 0 q 189 142 247 76 q 98 293 131 207 q 65 475 65 379 l 65 1357 m 268 1546 q 292 1609 268 1582 q 350 1636 317 1636 q 405 1610 382 1636 q 428 1546 428 1585 q 406 1483 428 1510 q 350 1456 385 1456 q 291 1483 314 1456 q 268 1546 268 1510 m 646 1456 q 588 1483 610 1456 q 567 1546 567 1510 q 590 1609 567 1582 q 646 1636 613 1636 q 703 1610 681 1636 q 725 1546 725 1585 q 703 1483 725 1510 q 646 1456 682 1456 z "},"":{"ha":1239,"x_min":29,"x_max":1210,"o":"m 300 1357 l 618 874 l 936 1357 l 1210 1357 l 743 650 l 1051 650 l 1051 403 l 743 403 l 743 0 l 496 0 l 496 403 l 188 403 l 188 650 l 496 650 l 29 1357 l 300 1357 m 788 1708 l 593 1456 l 451 1456 l 593 1708 l 788 1708 z "},"":{"ha":1239,"x_min":29,"x_max":1210,"o":"m 300 1357 l 618 874 l 936 1357 l 1210 1357 l 743 650 l 1051 650 l 1051 403 l 743 403 l 743 0 l 496 0 l 496 403 l 188 403 l 188 650 l 496 650 l 29 1357 l 300 1357 m 390 1546 q 415 1609 390 1582 q 472 1636 439 1636 q 527 1610 504 1636 q 550 1546 550 1585 q 528 1483 550 1510 q 472 1456 507 1456 q 413 1483 436 1456 q 390 1546 390 1510 m 768 1456 q 710 1483 732 1456 q 689 1546 689 1510 q 712 1609 689 1582 q 768 1636 735 1636 q 825 1610 803 1636 q 847 1546 847 1585 q 826 1483 847 1510 q 768 1456 804 1456 z "},"":{"ha":1067,"x_min":39,"x_max":1026,"o":"m 532 1086 l 456 743 l 661 507 l 532 1086 m 39 0 q 52 61 39 3 q 86 215 65 119 q 134 431 107 310 q 189 677 161 551 q 244 924 217 803 q 292 1140 271 1044 q 326 1294 313 1235 q 339 1357 339 1354 l 726 1357 q 741 1288 728 1349 q 775 1131 754 1226 q 822 915 796 1035 q 876 672 849 796 q 931 428 904 547 q 978 216 957 310 q 1012 63 999 122 q 1026 0 1025 4 l 774 0 l 390 443 l 293 0 l 39 0 m 481 1758 q 490 1728 482 1754 q 508 1675 499 1703 q 533 1600 519 1640 l 588 1758 l 749 1758 q 721 1673 732 1707 q 699 1608 710 1639 q 677 1543 689 1578 q 647 1456 665 1508 l 421 1456 q 396 1531 404 1504 q 383 1569 388 1557 q 378 1585 379 1582 q 376 1589 378 1588 q 374 1597 376 1592 q 367 1618 372 1601 q 349 1667 361 1635 q 318 1758 338 1700 l 481 1758 z "},"":{"ha":1067,"x_min":39,"x_max":1026,"o":"m 532 1086 l 456 743 l 661 507 l 532 1086 m 39 0 q 52 61 39 3 q 86 215 65 119 q 134 431 107 310 q 189 677 161 551 q 244 924 217 803 q 292 1140 271 1044 q 326 1294 313 1235 q 339 1357 339 1354 l 726 1357 q 741 1288 728 1349 q 775 1131 754 1226 q 822 915 796 1035 q 876 672 849 796 q 931 428 904 547 q 978 216 957 310 q 1012 63 999 122 q 1026 0 1025 4 l 774 0 l 390 443 l 293 0 l 39 0 m 481 1758 q 490 1728 482 1754 q 508 1675 499 1703 q 533 1600 519 1640 l 588 1758 l 749 1758 q 721 1673 732 1707 q 699 1608 710 1639 q 677 1543 689 1578 q 647 1456 665 1508 l 421 1456 q 396 1531 404 1504 q 383 1569 388 1557 q 378 1585 379 1582 q 376 1589 378 1588 q 374 1597 376 1592 q 367 1618 372 1601 q 349 1667 361 1635 q 318 1758 338 1700 l 481 1758 z "},"":{"ha":1067,"x_min":39,"x_max":1026,"o":"m 532 1086 l 456 743 l 661 507 l 532 1086 m 39 0 q 52 61 39 3 q 86 215 65 119 q 134 431 107 310 q 189 677 161 551 q 244 924 217 803 q 292 1140 271 1044 q 326 1294 313 1235 q 339 1357 339 1354 l 726 1357 q 741 1288 728 1349 q 775 1131 754 1226 q 822 915 796 1035 q 876 672 849 796 q 931 428 904 547 q 978 216 957 310 q 1012 63 999 122 q 1026 0 1025 4 l 774 0 l 390 443 l 293 0 l 39 0 m 943 -33 q 861 -62 890 -39 q 832 -108 832 -86 q 847 -137 832 -125 q 899 -142 861 -149 q 942 -128 917 -139 q 981 -106 967 -117 l 1026 -200 q 951 -234 990 -222 q 876 -246 913 -246 q 792 -227 829 -246 q 736 -169 756 -208 q 723 -117 724 -144 q 739 -60 722 -89 q 794 -2 756 -32 q 897 57 832 28 l 943 -33 z "},"":{"ha":1067,"x_min":39,"x_max":1026,"o":"m 532 1086 l 456 743 l 661 507 l 532 1086 m 39 0 q 52 61 39 3 q 86 215 65 119 q 134 431 107 310 q 189 677 161 551 q 244 924 217 803 q 292 1140 271 1044 q 326 1294 313 1235 q 339 1357 339 1354 l 726 1357 q 741 1288 728 1349 q 775 1131 754 1226 q 822 915 796 1035 q 876 672 849 796 q 931 428 904 547 q 978 216 957 310 q 1012 63 999 122 q 1026 0 1025 4 l 774 0 l 390 443 l 293 0 l 39 0 m 943 -33 q 861 -62 890 -39 q 832 -108 832 -86 q 847 -137 832 -125 q 899 -142 861 -149 q 942 -128 917 -139 q 981 -106 967 -117 l 1026 -200 q 951 -234 990 -222 q 876 -246 913 -246 q 792 -227 829 -246 q 736 -169 756 -208 q 723 -117 724 -144 q 739 -60 722 -89 q 794 -2 756 -32 q 897 57 832 28 l 943 -33 z "},"":{"ha":746,"x_min":31,"x_max":710,"o":"m 31 679 q 84 943 31 819 q 230 1158 138 1067 q 446 1303 322 1250 q 710 1357 569 1357 l 710 1111 q 542 1077 621 1111 q 404 985 463 1043 q 312 848 346 926 q 278 679 278 769 q 312 511 278 590 q 404 373 346 432 q 542 280 463 314 q 710 246 621 246 l 710 0 q 446 53 569 0 q 230 199 322 107 q 84 415 138 292 q 31 679 31 539 m 540 1708 l 346 1456 l 204 1456 l 346 1708 l 540 1708 z "},"":{"ha":746,"x_min":31,"x_max":710,"o":"m 31 679 q 84 943 31 819 q 230 1158 138 1067 q 446 1303 322 1250 q 710 1357 569 1357 l 710 1111 q 542 1077 621 1111 q 404 985 463 1043 q 312 848 346 926 q 278 679 278 769 q 312 511 278 590 q 404 373 346 432 q 542 280 463 314 q 710 246 621 246 l 710 0 q 446 53 569 0 q 230 199 322 107 q 84 415 138 292 q 31 679 31 539 m 540 1708 l 346 1456 l 204 1456 l 346 1708 l 540 1708 z "},"":{"ha":746,"x_min":31,"x_max":710,"o":"m 31 679 q 84 943 31 819 q 230 1158 138 1067 q 446 1303 322 1250 q 710 1357 569 1357 l 710 1111 q 542 1077 621 1111 q 404 985 463 1043 q 312 848 346 926 q 278 679 278 769 q 312 511 278 590 q 404 373 346 432 q 542 280 463 314 q 710 246 621 246 l 710 0 q 446 53 569 0 q 230 199 322 107 q 84 415 138 292 q 31 679 31 539 m 319 1758 q 329 1728 321 1754 q 347 1675 338 1703 q 372 1600 358 1640 l 426 1758 l 588 1758 q 560 1673 571 1707 q 538 1608 549 1639 q 516 1543 528 1578 q 486 1456 504 1508 l 260 1456 q 235 1531 243 1504 q 222 1569 226 1557 q 217 1585 218 1582 q 215 1589 217 1588 q 213 1597 215 1592 q 206 1618 211 1601 q 188 1667 200 1635 q 157 1758 176 1700 l 319 1758 z "},"":{"ha":746,"x_min":31,"x_max":710,"o":"m 31 679 q 84 943 31 819 q 230 1158 138 1067 q 446 1303 322 1250 q 710 1357 569 1357 l 710 1111 q 542 1077 621 1111 q 404 985 463 1043 q 312 848 346 926 q 278 679 278 769 q 312 511 278 590 q 404 373 346 432 q 542 280 463 314 q 710 246 621 246 l 710 0 q 446 53 569 0 q 230 199 322 107 q 84 415 138 292 q 31 679 31 539 m 319 1758 q 329 1728 321 1754 q 347 1675 338 1703 q 372 1600 358 1640 l 426 1758 l 588 1758 q 560 1673 571 1707 q 538 1608 549 1639 q 516 1543 528 1578 q 486 1456 504 1508 l 260 1456 q 235 1531 243 1504 q 222 1569 226 1557 q 217 1585 218 1582 q 215 1589 217 1588 q 213 1597 215 1592 q 206 1618 211 1601 q 188 1667 200 1635 q 157 1758 176 1700 l 319 1758 z "},"":{"ha":1122,"x_min":72,"x_max":1081,"o":"m 403 1357 q 667 1303 543 1357 q 882 1158 790 1250 q 1027 943 974 1067 q 1081 679 1081 819 q 1028 417 1081 540 q 884 201 975 293 q 670 56 793 110 q 407 0 547 1 l 72 0 l 72 1357 l 403 1357 m 319 246 l 406 246 q 572 282 494 247 q 708 375 650 317 q 800 512 767 433 q 833 679 833 590 q 799 848 833 769 q 707 985 765 926 q 570 1077 649 1043 q 401 1111 492 1111 l 319 1111 l 319 246 m 508 1758 q 518 1728 510 1754 q 536 1675 526 1703 q 561 1600 547 1640 l 615 1758 l 776 1758 q 749 1673 760 1707 q 727 1608 738 1639 q 705 1543 717 1578 q 675 1456 693 1508 l 449 1456 q 424 1531 432 1504 q 411 1569 415 1557 q 406 1585 407 1582 q 404 1589 406 1588 q 402 1597 404 1592 q 394 1618 400 1601 q 377 1667 389 1635 q 346 1758 365 1700 l 508 1758 z "},"":{"ha":1375,"x_min":72,"x_max":1361,"o":"m 403 1357 q 667 1303 543 1357 q 882 1158 790 1250 q 1027 943 974 1067 q 1081 679 1081 819 q 1028 417 1081 540 q 884 201 975 293 q 670 56 793 110 q 407 0 547 1 l 72 0 l 72 1357 l 403 1357 m 319 246 l 406 246 q 572 282 494 247 q 708 375 650 317 q 800 512 767 433 q 833 679 833 590 q 799 848 833 769 q 707 985 765 926 q 570 1077 649 1043 q 401 1111 492 1111 l 319 1111 l 319 246 m 1136 1236 q 1144 1282 1136 1260 q 1167 1321 1153 1304 q 1203 1348 1182 1338 q 1249 1358 1224 1358 q 1328 1322 1296 1358 q 1361 1236 1361 1288 q 1325 1099 1361 1161 q 1221 1006 1289 1038 q 1249 1113 1249 1053 q 1203 1123 1224 1113 q 1167 1150 1182 1133 q 1144 1189 1153 1167 q 1136 1236 1136 1211 z "},"":{"ha":1122,"x_min":40,"x_max":1081,"o":"m 403 1357 q 667 1303 543 1357 q 882 1158 790 1250 q 1027 943 974 1067 q 1081 679 1081 819 q 1028 417 1081 540 q 884 201 975 293 q 670 56 793 110 q 407 0 547 1 l 72 0 l 72 1357 l 403 1357 m 319 246 l 406 246 q 572 282 494 247 q 708 375 650 317 q 800 512 767 433 q 833 679 833 590 q 799 848 833 769 q 707 985 765 926 q 570 1077 649 1043 q 401 1111 492 1111 l 319 1111 l 319 246 m 40 603 l 40 726 l 356 726 l 356 603 l 40 603 z "},"":{"ha":1122,"x_min":44,"x_max":1081,"o":"m 403 1357 q 667 1303 543 1357 q 882 1158 790 1250 q 1027 943 974 1067 q 1081 679 1081 819 q 1028 417 1081 540 q 884 201 975 293 q 670 56 793 110 q 407 0 547 1 l 72 0 l 72 1357 l 403 1357 m 319 246 l 406 246 q 572 282 494 247 q 708 375 650 317 q 800 512 767 433 q 833 679 833 590 q 799 848 833 769 q 707 985 765 926 q 570 1077 649 1043 q 401 1111 492 1111 l 319 1111 l 319 246 m 44 588 l 44 711 l 360 711 l 360 588 l 44 588 z "},"":{"ha":890,"x_min":72,"x_max":843,"o":"m 843 1357 l 843 1111 l 318 1111 l 318 992 l 765 992 l 765 744 l 318 744 l 318 621 l 765 621 l 765 374 l 318 374 l 318 246 l 843 247 l 843 0 l 72 0 l 72 1357 l 843 1357 m 760 -33 q 678 -62 707 -39 q 649 -108 649 -86 q 663 -137 649 -125 q 715 -142 678 -149 q 758 -128 733 -139 q 797 -106 783 -117 l 843 -200 q 768 -234 807 -222 q 693 -246 729 -246 q 609 -227 646 -246 q 553 -169 572 -208 q 540 -117 540 -144 q 556 -60 539 -89 q 610 -2 572 -32 q 714 57 649 28 l 760 -33 z "},"":{"ha":890,"x_min":72,"x_max":843,"o":"m 843 1357 l 843 1111 l 318 1111 l 318 992 l 765 992 l 765 744 l 318 744 l 318 621 l 765 621 l 765 374 l 318 374 l 318 246 l 843 247 l 843 0 l 72 0 l 72 1357 l 843 1357 m 760 -33 q 678 -62 707 -39 q 649 -108 649 -86 q 663 -137 649 -125 q 715 -142 678 -149 q 758 -128 733 -139 q 797 -106 783 -117 l 843 -200 q 768 -234 807 -222 q 693 -246 729 -246 q 609 -227 646 -246 q 553 -169 572 -208 q 540 -117 540 -144 q 556 -60 539 -89 q 610 -2 572 -32 q 714 57 649 28 l 760 -33 z "},"":{"ha":890,"x_min":72,"x_max":843,"o":"m 843 1357 l 843 1111 l 318 1111 l 318 992 l 765 992 l 765 744 l 318 744 l 318 621 l 765 621 l 765 374 l 318 374 l 318 246 l 843 247 l 843 0 l 72 0 l 72 1357 l 843 1357 m 392 1758 q 401 1728 393 1754 q 419 1675 410 1703 q 444 1600 431 1640 l 499 1758 l 660 1758 q 632 1673 643 1707 q 610 1608 621 1639 q 588 1543 600 1578 q 558 1456 576 1508 l 332 1456 q 307 1531 315 1504 q 294 1569 299 1557 q 290 1585 290 1582 q 288 1589 289 1588 q 285 1597 288 1592 q 278 1618 283 1601 q 260 1667 272 1635 q 229 1758 249 1700 l 392 1758 z "},"":{"ha":890,"x_min":72,"x_max":843,"o":"m 843 1357 l 843 1111 l 318 1111 l 318 992 l 765 992 l 765 744 l 318 744 l 318 621 l 765 621 l 765 374 l 318 374 l 318 246 l 843 247 l 843 0 l 72 0 l 72 1357 l 843 1357 m 392 1758 q 401 1728 393 1754 q 419 1675 410 1703 q 444 1600 431 1640 l 499 1758 l 660 1758 q 632 1673 643 1707 q 610 1608 621 1639 q 588 1543 600 1578 q 558 1456 576 1508 l 332 1456 q 307 1531 315 1504 q 294 1569 299 1557 q 290 1585 290 1582 q 288 1589 289 1588 q 285 1597 288 1592 q 278 1618 283 1601 q 260 1667 272 1635 q 229 1758 249 1700 l 392 1758 z "},"":{"ha":1018,"x_min":72,"x_max":1003,"o":"m 72 1357 l 318 1357 l 318 618 l 1003 618 l 1003 371 l 318 371 l 318 246 l 1003 246 l 1003 0 l 72 0 l 72 1357 m 676 1708 l 482 1456 l 340 1456 l 482 1708 l 676 1708 z "},"":{"ha":1018,"x_min":72,"x_max":1003,"o":"m 72 1357 l 318 1357 l 318 618 l 1003 618 l 1003 371 l 318 371 l 318 246 l 1003 246 l 1003 0 l 72 0 l 72 1357 m 676 1708 l 482 1456 l 340 1456 l 482 1708 l 676 1708 z "},"":{"ha":1018,"x_min":72,"x_max":1003,"o":"m 72 1357 l 318 1357 l 318 618 l 1003 618 l 1003 371 l 318 371 l 318 246 l 1003 246 l 1003 0 l 72 0 l 72 1357 m 396 1236 q 404 1282 396 1260 q 427 1321 413 1304 q 463 1348 442 1338 q 508 1358 483 1358 q 588 1322 556 1358 q 621 1236 621 1288 q 585 1099 621 1161 q 481 1006 549 1038 q 508 1113 508 1053 q 463 1123 483 1113 q 427 1150 442 1133 q 404 1189 413 1167 q 396 1236 396 1211 z "},"":{"ha":1271,"x_min":72,"x_max":1257,"o":"m 72 1357 l 318 1357 l 318 618 l 1003 618 l 1003 371 l 318 371 l 318 246 l 1003 246 l 1003 0 l 72 0 l 72 1357 m 1032 1236 q 1040 1282 1032 1260 q 1063 1321 1049 1304 q 1099 1348 1078 1338 q 1144 1358 1119 1358 q 1224 1322 1192 1358 q 1257 1236 1257 1288 q 1221 1099 1257 1161 q 1117 1006 1185 1038 q 1144 1113 1144 1053 q 1099 1123 1119 1113 q 1063 1150 1078 1133 q 1040 1189 1049 1167 q 1032 1236 1032 1211 z "},"":{"ha":1018,"x_min":72,"x_max":1003,"o":"m 72 1357 l 318 1357 l 318 618 l 1003 618 l 1003 371 l 318 371 l 318 246 l 1003 246 l 1003 0 l 72 0 l 72 1357 m 667 463 l 667 586 l 351 586 l 351 463 l 667 463 z "},"":{"ha":1018,"x_min":72,"x_max":1003,"o":"m 72 1357 l 318 1357 l 318 618 l 1003 618 l 1003 371 l 318 371 l 318 246 l 1003 246 l 1003 0 l 72 0 l 72 1357 m 667 463 l 667 586 l 351 586 l 351 463 l 667 463 z "},"":{"ha":1251,"x_min":72,"x_max":1179,"o":"m 1179 1357 l 1179 0 l 608 0 l 436 1111 l 318 1111 l 318 0 l 72 0 l 72 1357 l 647 1357 l 821 247 l 932 247 l 932 1357 l 1179 1357 m 793 1708 l 599 1456 l 457 1456 l 599 1708 l 793 1708 z "},"":{"ha":1251,"x_min":72,"x_max":1179,"o":"m 1179 1357 l 1179 0 l 608 0 l 436 1111 l 318 1111 l 318 0 l 72 0 l 72 1357 l 647 1357 l 821 247 l 932 247 l 932 1357 l 1179 1357 m 793 1708 l 599 1456 l 457 1456 l 599 1708 l 793 1708 z "},"":{"ha":1251,"x_min":72,"x_max":1179,"o":"m 1179 1357 l 1179 0 l 608 0 l 436 1111 l 318 1111 l 318 0 l 72 0 l 72 1357 l 647 1357 l 821 247 l 932 247 l 932 1357 l 1179 1357 m 572 1758 q 582 1728 574 1754 q 600 1675 590 1703 q 625 1600 611 1640 l 679 1758 l 840 1758 q 813 1673 824 1707 q 791 1608 801 1639 q 769 1543 781 1578 q 739 1456 757 1508 l 513 1456 q 488 1531 496 1504 q 475 1569 479 1557 q 470 1585 471 1582 q 468 1589 469 1588 q 466 1597 468 1592 q 458 1618 464 1601 q 441 1667 453 1635 q 410 1758 429 1700 l 572 1758 z "},"":{"ha":1251,"x_min":72,"x_max":1179,"o":"m 1179 1357 l 1179 0 l 608 0 l 436 1111 l 318 1111 l 318 0 l 72 0 l 72 1357 l 647 1357 l 821 247 l 932 247 l 932 1357 l 1179 1357 m 572 1758 q 582 1728 574 1754 q 600 1675 590 1703 q 625 1600 611 1640 l 679 1758 l 840 1758 q 813 1673 824 1707 q 791 1608 801 1639 q 769 1543 781 1578 q 739 1456 757 1508 l 513 1456 q 488 1531 496 1504 q 475 1569 479 1557 q 470 1585 471 1582 q 468 1589 469 1588 q 466 1597 468 1592 q 458 1618 464 1601 q 441 1667 453 1635 q 410 1758 429 1700 l 572 1758 z "},"":{"ha":1456,"x_min":50,"x_max":1407,"o":"m 50 679 q 103 943 50 819 q 249 1158 157 1067 q 465 1303 342 1250 q 729 1357 589 1357 q 993 1303 869 1357 q 1208 1158 1117 1250 q 1353 943 1300 1067 q 1407 679 1407 819 q 1353 415 1407 539 q 1208 199 1300 292 q 993 53 1117 107 q 729 0 869 0 q 465 53 589 0 q 249 199 342 107 q 103 415 157 292 q 50 679 50 539 m 729 1111 q 561 1077 640 1111 q 423 985 482 1043 q 330 848 364 926 q 296 679 296 769 q 330 511 296 590 q 423 373 364 432 q 561 280 482 314 q 729 246 640 246 q 898 280 819 246 q 1035 373 976 314 q 1127 511 1093 432 q 1161 679 1161 590 q 1127 848 1161 769 q 1035 985 1093 926 q 898 1077 976 1043 q 729 1111 819 1111 m 729 567 q 649 599 682 567 q 617 679 617 632 q 649 759 617 726 q 729 792 682 792 q 809 759 776 792 q 842 679 842 726 q 809 599 842 632 q 729 567 776 567 m 656 679 q 677 627 656 649 q 729 606 699 606 q 780 627 758 606 q 801 679 801 649 q 780 730 801 708 q 729 751 758 751 q 677 730 699 751 q 656 679 656 708 m 678 1710 l 483 1457 l 342 1457 l 483 1710 l 678 1710 m 1113 1710 l 918 1457 l 776 1457 l 918 1710 l 1113 1710 z "},"":{"ha":1456,"x_min":50,"x_max":1407,"o":"m 50 679 q 103 943 50 819 q 249 1158 157 1067 q 465 1303 342 1250 q 729 1357 589 1357 q 993 1303 869 1357 q 1208 1158 1117 1250 q 1353 943 1300 1067 q 1407 679 1407 819 q 1353 415 1407 539 q 1208 199 1300 292 q 993 53 1117 107 q 729 0 869 0 q 465 53 589 0 q 249 199 342 107 q 103 415 157 292 q 50 679 50 539 m 729 1111 q 561 1077 640 1111 q 423 985 482 1043 q 330 848 364 926 q 296 679 296 769 q 330 511 296 590 q 423 373 364 432 q 561 280 482 314 q 729 246 640 246 q 898 280 819 246 q 1035 373 976 314 q 1127 511 1093 432 q 1161 679 1161 590 q 1127 848 1161 769 q 1035 985 1093 926 q 898 1077 976 1043 q 729 1111 819 1111 m 729 567 q 649 599 682 567 q 617 679 617 632 q 649 759 617 726 q 729 792 682 792 q 809 759 776 792 q 842 679 842 726 q 809 599 842 632 q 729 567 776 567 m 656 679 q 677 627 656 649 q 729 606 699 606 q 780 627 758 606 q 801 679 801 649 q 780 730 801 708 q 729 751 758 751 q 677 730 699 751 q 656 679 656 708 m 678 1710 l 483 1457 l 342 1457 l 483 1710 l 678 1710 m 1113 1710 l 918 1457 l 776 1457 l 918 1710 l 1113 1710 z "},"":{"ha":2346,"x_min":50,"x_max":2299,"o":"m 50 679 q 103 943 50 819 q 249 1158 157 1067 q 465 1303 342 1250 q 729 1357 589 1357 q 993 1303 869 1357 q 1208 1158 1117 1250 q 1353 943 1300 1067 q 1407 679 1407 819 q 1353 415 1407 539 q 1208 199 1300 292 q 993 53 1117 107 q 729 0 869 0 q 465 53 589 0 q 249 199 342 107 q 103 415 157 292 q 50 679 50 539 m 729 1111 q 561 1077 640 1111 q 423 985 482 1043 q 330 848 364 926 q 296 679 296 769 q 330 511 296 590 q 423 373 364 432 q 561 280 482 314 q 729 246 640 246 q 898 280 819 246 q 1035 373 976 314 q 1127 511 1093 432 q 1161 679 1161 590 q 1127 848 1161 769 q 1035 985 1093 926 q 898 1077 976 1043 q 729 1111 819 1111 m 729 567 q 649 599 682 567 q 617 679 617 632 q 649 759 617 726 q 729 792 682 792 q 809 759 776 792 q 842 679 842 726 q 809 599 842 632 q 729 567 776 567 m 656 679 q 677 627 656 649 q 729 606 699 606 q 780 627 758 606 q 801 679 801 649 q 780 730 801 708 q 729 751 758 751 q 677 730 699 751 q 656 679 656 708 m 2299 1357 l 2299 1111 l 1774 1111 l 1774 992 l 2221 992 l 2221 744 l 1774 744 l 1774 621 l 2221 621 l 2221 374 l 1774 374 l 1774 246 l 2299 247 l 2299 0 l 1528 0 l 1528 1357 l 2299 1357 z "},"":{"ha":2346,"x_min":50,"x_max":2299,"o":"m 50 679 q 103 943 50 819 q 249 1158 157 1067 q 465 1303 342 1250 q 729 1357 589 1357 q 993 1303 869 1357 q 1208 1158 1117 1250 q 1353 943 1300 1067 q 1407 679 1407 819 q 1353 415 1407 539 q 1208 199 1300 292 q 993 53 1117 107 q 729 0 869 0 q 465 53 589 0 q 249 199 342 107 q 103 415 157 292 q 50 679 50 539 m 729 1111 q 561 1077 640 1111 q 423 985 482 1043 q 330 848 364 926 q 296 679 296 769 q 330 511 296 590 q 423 373 364 432 q 561 280 482 314 q 729 246 640 246 q 898 280 819 246 q 1035 373 976 314 q 1127 511 1093 432 q 1161 679 1161 590 q 1127 848 1161 769 q 1035 985 1093 926 q 898 1077 976 1043 q 729 1111 819 1111 m 729 567 q 649 599 682 567 q 617 679 617 632 q 649 759 617 726 q 729 792 682 792 q 809 759 776 792 q 842 679 842 726 q 809 599 842 632 q 729 567 776 567 m 656 679 q 677 627 656 649 q 729 606 699 606 q 780 627 758 606 q 801 679 801 649 q 780 730 801 708 q 729 751 758 751 q 677 730 699 751 q 656 679 656 708 m 2299 1357 l 2299 1111 l 1774 1111 l 1774 992 l 2221 992 l 2221 744 l 1774 744 l 1774 621 l 2221 621 l 2221 374 l 1774 374 l 1774 246 l 2299 247 l 2299 0 l 1528 0 l 1528 1357 l 2299 1357 z "},"":{"ha":1163,"x_min":72,"x_max":1129,"o":"m 376 1111 l 592 793 q 664 851 638 804 q 690 950 690 897 q 682 1008 690 979 q 658 1059 674 1036 q 619 1097 642 1082 q 567 1111 596 1111 l 376 1111 m 318 0 l 72 0 l 72 1357 l 567 1357 q 714 1324 646 1357 q 831 1235 782 1292 q 908 1106 881 1179 q 936 950 936 1032 q 922 837 936 892 q 881 734 907 782 q 816 648 854 686 q 732 585 778 610 l 1129 0 l 849 0 q 708 206 774 110 q 583 390 642 303 q 486 534 533 465 q 401 658 439 603 q 358 722 379 690 q 318 781 338 753 l 318 0 m 749 1708 l 554 1456 l 413 1456 l 554 1708 l 749 1708 z "},"":{"ha":1163,"x_min":72,"x_max":1129,"o":"m 376 1111 l 592 793 q 664 851 638 804 q 690 950 690 897 q 682 1008 690 979 q 658 1059 674 1036 q 619 1097 642 1082 q 567 1111 596 1111 l 376 1111 m 318 0 l 72 0 l 72 1357 l 567 1357 q 714 1324 646 1357 q 831 1235 782 1292 q 908 1106 881 1179 q 936 950 936 1032 q 922 837 936 892 q 881 734 907 782 q 816 648 854 686 q 732 585 778 610 l 1129 0 l 849 0 q 708 206 774 110 q 583 390 642 303 q 486 534 533 465 q 401 658 439 603 q 358 722 379 690 q 318 781 338 753 l 318 0 m 749 1708 l 554 1456 l 413 1456 l 554 1708 l 749 1708 z "},"":{"ha":1163,"x_min":72,"x_max":1129,"o":"m 376 1111 l 592 793 q 664 851 638 804 q 690 950 690 897 q 682 1008 690 979 q 658 1059 674 1036 q 619 1097 642 1082 q 567 1111 596 1111 l 376 1111 m 318 0 l 72 0 l 72 1357 l 567 1357 q 714 1324 646 1357 q 831 1235 782 1292 q 908 1106 881 1179 q 936 950 936 1032 q 922 837 936 892 q 881 734 907 782 q 816 648 854 686 q 732 585 778 610 l 1129 0 l 849 0 q 708 206 774 110 q 583 390 642 303 q 486 534 533 465 q 401 658 439 603 q 358 722 379 690 q 318 781 338 753 l 318 0 m 528 1758 q 538 1728 529 1754 q 556 1675 546 1703 q 581 1600 567 1640 l 635 1758 l 796 1758 q 768 1673 779 1707 q 747 1608 757 1639 q 724 1543 736 1578 q 694 1456 713 1508 l 468 1456 q 443 1531 451 1504 q 431 1569 435 1557 q 426 1585 426 1582 q 424 1589 425 1588 q 422 1597 424 1592 q 414 1618 419 1601 q 397 1667 408 1635 q 365 1758 385 1700 l 528 1758 z "},"":{"ha":1163,"x_min":72,"x_max":1129,"o":"m 376 1111 l 592 793 q 664 851 638 804 q 690 950 690 897 q 682 1008 690 979 q 658 1059 674 1036 q 619 1097 642 1082 q 567 1111 596 1111 l 376 1111 m 318 0 l 72 0 l 72 1357 l 567 1357 q 714 1324 646 1357 q 831 1235 782 1292 q 908 1106 881 1179 q 936 950 936 1032 q 922 837 936 892 q 881 734 907 782 q 816 648 854 686 q 732 585 778 610 l 1129 0 l 849 0 q 708 206 774 110 q 583 390 642 303 q 486 534 533 465 q 401 658 439 603 q 358 722 379 690 q 318 781 338 753 l 318 0 m 528 1758 q 538 1728 529 1754 q 556 1675 546 1703 q 581 1600 567 1640 l 635 1758 l 796 1758 q 768 1673 779 1707 q 747 1608 757 1639 q 724 1543 736 1578 q 694 1456 713 1508 l 468 1456 q 443 1531 451 1504 q 431 1569 435 1557 q 426 1585 426 1582 q 424 1589 425 1588 q 422 1597 424 1592 q 414 1618 419 1601 q 397 1667 408 1635 q 365 1758 385 1700 l 528 1758 z "},"":{"ha":711,"x_min":19,"x_max":694,"o":"m 524 1708 l 329 1456 l 188 1456 l 329 1708 l 524 1708 m 19 253 q 120 297 85 261 q 174 389 156 332 q 198 522 192 446 q 211 690 204 599 q 224 842 215 765 q 253 991 233 919 q 307 1126 274 1063 q 392 1238 340 1189 q 519 1317 444 1286 q 694 1356 593 1349 l 694 1113 q 580 1072 622 1106 q 515 981 538 1038 q 482 849 492 925 q 465 679 472 772 q 452 524 460 603 q 428 372 444 446 q 382 234 411 299 q 306 119 353 169 q 188 38 258 69 q 19 0 118 7 l 19 253 z "},"":{"ha":711,"x_min":19,"x_max":694,"o":"m 524 1708 l 329 1456 l 188 1456 l 329 1708 l 524 1708 m 19 253 q 120 297 85 261 q 174 389 156 332 q 198 522 192 446 q 211 690 204 599 q 224 842 215 765 q 253 991 233 919 q 307 1126 274 1063 q 392 1238 340 1189 q 519 1317 444 1286 q 694 1356 593 1349 l 694 1113 q 580 1072 622 1106 q 515 981 538 1038 q 482 849 492 925 q 465 679 472 772 q 452 524 460 603 q 428 372 444 446 q 382 234 411 299 q 306 119 353 169 q 188 38 258 69 q 19 0 118 7 l 19 253 z "},"":{"ha":711,"x_min":19,"x_max":694,"o":"m 19 253 q 120 297 85 261 q 174 389 156 332 q 198 522 192 446 q 211 690 204 599 q 224 842 215 765 q 253 991 233 919 q 307 1126 274 1063 q 392 1238 340 1189 q 519 1317 444 1286 q 694 1356 593 1349 l 694 1113 q 580 1072 622 1106 q 515 981 538 1038 q 482 849 492 925 q 465 679 472 772 q 452 524 460 603 q 428 372 444 446 q 382 234 411 299 q 306 119 353 169 q 188 38 258 69 q 19 0 118 7 l 19 253 m 485 -214 q 428 -272 465 -253 q 344 -290 392 -290 q 269 -278 308 -290 q 194 -244 231 -267 l 240 -150 q 279 -172 254 -161 q 322 -186 304 -183 q 374 -181 360 -193 q 389 -153 389 -169 q 360 -107 389 -131 q 278 -78 331 -83 l 353 69 l 481 69 q 468 49 474 58 q 457 29 463 39 q 438 -4 447 13 q 421 -32 428 -21 q 468 -65 450 -44 q 494 -110 486 -86 q 499 -162 501 -135 q 485 -214 497 -189 z "},"":{"ha":711,"x_min":19,"x_max":694,"o":"m 19 253 q 120 297 85 261 q 174 389 156 332 q 198 522 192 446 q 211 690 204 599 q 224 842 215 765 q 253 991 233 919 q 307 1126 274 1063 q 392 1238 340 1189 q 519 1317 444 1286 q 694 1356 593 1349 l 694 1113 q 580 1072 622 1106 q 515 981 538 1038 q 482 849 492 925 q 465 679 472 772 q 452 524 460 603 q 428 372 444 446 q 382 234 411 299 q 306 119 353 169 q 188 38 258 69 q 19 0 118 7 l 19 253 m 485 -214 q 428 -272 465 -253 q 344 -290 392 -290 q 269 -278 308 -290 q 194 -244 231 -267 l 240 -150 q 279 -172 254 -161 q 322 -186 304 -183 q 374 -181 360 -193 q 389 -153 389 -169 q 360 -107 389 -131 q 278 -78 331 -83 l 353 69 l 481 69 q 468 49 474 58 q 457 29 463 39 q 438 -4 447 13 q 421 -32 428 -21 q 468 -65 450 -44 q 494 -110 486 -86 q 499 -162 501 -135 q 485 -214 497 -189 z "},"":{"ha":711,"x_min":19,"x_max":694,"o":"m 303 1758 q 313 1728 304 1754 q 331 1675 321 1703 q 356 1600 342 1640 l 410 1758 l 571 1758 q 556 1711 563 1732 q 543 1674 549 1690 q 541 1668 542 1671 q 539 1663 540 1665 l 539 1660 q 538 1657 538 1658 l 536 1654 l 536 1653 l 536 1651 q 535 1647 535 1649 q 533 1643 535 1646 l 532 1642 l 532 1640 l 532 1639 q 531 1635 531 1638 l 529 1632 q 528 1627 528 1629 q 526 1622 528 1625 l 525 1619 q 524 1615 524 1617 q 522 1610 524 1613 q 499 1543 511 1578 q 469 1456 488 1508 l 243 1456 q 218 1531 226 1504 q 206 1569 210 1557 q 201 1585 201 1582 q 199 1589 200 1588 q 197 1597 199 1592 q 189 1618 194 1601 q 172 1667 183 1635 q 140 1758 160 1700 l 303 1758 m 19 253 q 120 297 85 261 q 174 389 156 332 q 198 522 192 446 q 211 690 204 599 q 224 842 215 765 q 253 991 233 919 q 307 1126 274 1063 q 392 1238 340 1189 q 519 1317 444 1286 q 694 1356 593 1349 l 694 1113 q 580 1072 622 1106 q 515 981 538 1038 q 482 849 492 925 q 465 679 472 772 q 452 524 460 603 q 428 372 444 446 q 382 234 411 299 q 306 119 353 169 q 188 38 258 69 q 19 0 118 7 l 19 253 z "},"":{"ha":711,"x_min":19,"x_max":694,"o":"m 303 1758 q 313 1728 304 1754 q 331 1675 321 1703 q 356 1600 342 1640 l 410 1758 l 571 1758 q 556 1711 563 1732 q 543 1674 549 1690 q 541 1668 542 1671 q 539 1663 540 1665 l 539 1660 q 538 1657 538 1658 l 536 1654 l 536 1653 l 536 1651 q 535 1647 535 1649 q 533 1643 535 1646 l 532 1642 l 532 1640 l 532 1639 q 531 1635 531 1638 l 529 1632 q 528 1627 528 1629 q 526 1622 528 1625 l 525 1619 q 524 1615 524 1617 q 522 1610 524 1613 q 499 1543 511 1578 q 469 1456 488 1508 l 243 1456 q 218 1531 226 1504 q 206 1569 210 1557 q 201 1585 201 1582 q 199 1589 200 1588 q 197 1597 199 1592 q 189 1618 194 1601 q 172 1667 183 1635 q 140 1758 160 1700 l 303 1758 m 19 253 q 120 297 85 261 q 174 389 156 332 q 198 522 192 446 q 211 690 204 599 q 224 842 215 765 q 253 991 233 919 q 307 1126 274 1063 q 392 1238 340 1189 q 519 1317 444 1286 q 694 1356 593 1349 l 694 1113 q 580 1072 622 1106 q 515 981 538 1038 q 482 849 492 925 q 465 679 472 772 q 452 524 460 603 q 428 372 444 446 q 382 234 411 299 q 306 119 353 169 q 188 38 258 69 q 19 0 118 7 l 19 253 z "},"":{"ha":1157,"x_min":0,"x_max":0,"o":""},"":{"ha":1157,"x_min":0,"x_max":0,"o":""},"":{"ha":1106,"x_min":36,"x_max":1068,"o":"m 500 1758 q 510 1728 501 1754 q 528 1675 518 1703 q 553 1600 539 1640 l 607 1758 l 768 1758 q 753 1711 760 1732 q 740 1674 746 1690 q 738 1668 739 1671 q 736 1663 738 1665 l 736 1660 q 735 1657 735 1658 l 733 1654 l 733 1653 l 733 1651 q 732 1647 732 1649 q 731 1643 732 1646 l 729 1642 l 729 1640 l 729 1639 q 726 1631 728 1635 q 724 1622 725 1626 l 722 1619 q 721 1615 721 1617 q 719 1610 721 1613 q 697 1543 708 1578 q 667 1456 685 1508 l 440 1456 q 415 1531 424 1504 q 403 1569 407 1557 q 398 1585 399 1582 q 396 1589 397 1588 q 394 1597 396 1592 q 386 1618 392 1601 q 369 1667 381 1635 q 338 1758 357 1700 l 500 1758 m 36 1111 l 36 1357 l 1068 1357 l 1068 1111 l 36 1111 m 36 992 l 1068 992 l 1068 744 l 674 744 l 674 0 l 426 0 l 426 744 l 36 744 l 36 992 z "},"":{"ha":1358,"x_min":36,"x_max":1344,"o":"m 1119 1236 q 1128 1282 1119 1260 q 1151 1321 1136 1304 q 1186 1348 1165 1338 q 1232 1358 1207 1358 q 1311 1322 1279 1358 q 1344 1236 1344 1288 q 1308 1099 1344 1161 q 1204 1006 1272 1038 q 1232 1113 1232 1053 q 1186 1123 1207 1113 q 1151 1150 1165 1133 q 1128 1189 1136 1167 q 1119 1236 1119 1211 m 36 1111 l 36 1357 l 1068 1357 l 1068 1111 l 36 1111 m 36 992 l 1068 992 l 1068 744 l 674 744 l 674 0 l 426 0 l 426 744 l 36 744 l 36 992 z "},"":{"ha":993,"x_min":65,"x_max":929,"o":"m 65 1357 l 311 1357 l 311 451 q 326 374 311 411 q 365 309 340 338 q 424 264 390 281 q 497 247 458 247 q 571 264 538 247 q 629 309 604 281 q 668 374 654 338 q 682 451 682 411 l 682 1357 l 929 1357 l 929 475 q 897 293 929 379 q 806 142 864 207 q 668 38 747 76 q 497 0 589 0 q 326 38 406 0 q 189 142 247 76 q 98 293 131 207 q 65 475 65 379 l 65 1357 m 285 1519 q 301 1615 285 1571 q 347 1690 318 1658 q 414 1740 375 1722 q 499 1758 453 1758 q 587 1740 547 1758 q 653 1689 626 1721 q 695 1615 681 1657 q 710 1529 710 1574 q 692 1432 710 1475 q 644 1358 674 1389 q 575 1310 614 1326 q 494 1293 536 1293 q 409 1311 447 1293 q 343 1360 371 1329 q 300 1433 315 1392 q 285 1519 285 1474 m 497 1604 q 448 1578 464 1604 q 432 1522 432 1553 q 451 1469 432 1490 q 497 1447 469 1447 q 544 1469 525 1447 q 563 1526 563 1492 q 548 1578 563 1553 q 497 1604 533 1604 z "},"":{"ha":993,"x_min":65,"x_max":929,"o":"m 65 1357 l 311 1357 l 311 451 q 326 374 311 411 q 365 309 340 338 q 424 264 390 281 q 497 247 458 247 q 571 264 538 247 q 629 309 604 281 q 668 374 654 338 q 682 451 682 411 l 682 1357 l 929 1357 l 929 475 q 897 293 929 379 q 806 142 864 207 q 668 38 747 76 q 497 0 589 0 q 326 38 406 0 q 189 142 247 76 q 98 293 131 207 q 65 475 65 379 l 65 1357 m 285 1519 q 301 1615 285 1571 q 347 1690 318 1658 q 414 1740 375 1722 q 499 1758 453 1758 q 587 1740 547 1758 q 653 1689 626 1721 q 695 1615 681 1657 q 710 1529 710 1574 q 692 1432 710 1475 q 644 1358 674 1389 q 575 1310 614 1326 q 494 1293 536 1293 q 409 1311 447 1293 q 343 1360 371 1329 q 300 1433 315 1392 q 285 1519 285 1474 m 497 1604 q 448 1578 464 1604 q 432 1522 432 1553 q 451 1469 432 1490 q 497 1447 469 1447 q 544 1469 525 1447 q 563 1526 563 1492 q 548 1578 563 1553 q 497 1604 533 1604 z "},"":{"ha":993,"x_min":65,"x_max":929,"o":"m 65 1357 l 311 1357 l 311 451 q 326 374 311 411 q 365 309 340 338 q 424 264 390 281 q 497 247 458 247 q 571 264 538 247 q 629 309 604 281 q 668 374 654 338 q 682 451 682 411 l 682 1357 l 929 1357 l 929 475 q 897 293 929 379 q 806 142 864 207 q 668 38 747 76 q 497 0 589 0 q 326 38 406 0 q 189 142 247 76 q 98 293 131 207 q 65 475 65 379 l 65 1357 m 447 1710 l 253 1457 l 111 1457 l 253 1710 l 447 1710 m 882 1710 l 688 1457 l 546 1457 l 688 1710 l 882 1710 z "},"":{"ha":993,"x_min":65,"x_max":929,"o":"m 65 1357 l 311 1357 l 311 451 q 326 374 311 411 q 365 309 340 338 q 424 264 390 281 q 497 247 458 247 q 571 264 538 247 q 629 309 604 281 q 668 374 654 338 q 682 451 682 411 l 682 1357 l 929 1357 l 929 475 q 897 293 929 379 q 806 142 864 207 q 668 38 747 76 q 497 0 589 0 q 326 38 406 0 q 189 142 247 76 q 98 293 131 207 q 65 475 65 379 l 65 1357 m 447 1710 l 253 1457 l 111 1457 l 253 1710 l 447 1710 m 882 1710 l 688 1457 l 546 1457 l 688 1710 l 882 1710 z "},"":{"ha":1239,"x_min":29,"x_max":1210,"o":"m 300 1357 l 618 874 l 936 1357 l 1210 1357 l 743 650 l 1051 650 l 1051 403 l 743 403 l 743 0 l 496 0 l 496 403 l 188 403 l 188 650 l 496 650 l 29 1357 l 300 1357 m 390 1546 q 415 1609 390 1582 q 472 1636 439 1636 q 527 1610 504 1636 q 550 1546 550 1585 q 528 1483 550 1510 q 472 1456 507 1456 q 413 1483 436 1456 q 390 1546 390 1510 m 768 1456 q 710 1483 732 1456 q 689 1546 689 1510 q 712 1609 689 1582 q 768 1636 735 1636 q 825 1610 803 1636 q 847 1546 847 1585 q 826 1483 847 1510 q 768 1456 804 1456 z "},"":{"ha":1165,"x_min":71,"x_max":1093,"o":"m 750 1708 l 556 1456 l 414 1456 l 556 1708 l 750 1708 m 71 272 q 112 321 86 290 q 163 381 138 351 l 163 625 l 371 625 l 472 743 l 163 743 l 163 992 l 682 992 l 764 1086 l 83 1086 l 83 1357 l 1093 1357 l 1093 1085 q 1074 1063 1083 1074 q 1058 1043 1065 1053 q 1031 1013 1044 1028 q 1015 993 1018 997 l 1015 743 l 800 743 l 697 625 l 1015 625 l 1015 378 l 485 378 l 393 271 l 1081 271 l 1081 0 l 71 0 l 71 272 z "},"":{"ha":1165,"x_min":71,"x_max":1093,"o":"m 750 1708 l 556 1456 l 414 1456 l 556 1708 l 750 1708 m 71 272 q 112 321 86 290 q 163 381 138 351 l 163 625 l 371 625 l 472 743 l 163 743 l 163 992 l 682 992 l 764 1086 l 83 1086 l 83 1357 l 1093 1357 l 1093 1085 q 1074 1063 1083 1074 q 1058 1043 1065 1053 q 1031 1013 1044 1028 q 1015 993 1018 997 l 1015 743 l 800 743 l 697 625 l 1015 625 l 1015 378 l 485 378 l 393 271 l 1081 271 l 1081 0 l 71 0 l 71 272 z "},"":{"ha":1165,"x_min":71,"x_max":1093,"o":"m 71 272 q 112 321 86 290 q 163 381 138 351 l 163 625 l 371 625 l 472 743 l 163 743 l 163 992 l 682 992 l 764 1086 l 83 1086 l 83 1357 l 1093 1357 l 1093 1085 q 1074 1063 1083 1074 q 1058 1043 1065 1053 q 1031 1013 1044 1028 q 1015 993 1018 997 l 1015 743 l 800 743 l 697 625 l 1015 625 l 1015 378 l 485 378 l 393 271 l 1081 271 l 1081 0 l 71 0 l 71 272 m 503 1546 q 527 1609 503 1582 q 585 1636 551 1636 q 640 1610 617 1636 q 663 1546 663 1585 q 641 1483 663 1510 q 585 1456 619 1456 q 526 1483 549 1456 q 503 1546 503 1510 z "},"":{"ha":1165,"x_min":71,"x_max":1093,"o":"m 71 272 q 112 321 86 290 q 163 381 138 351 l 163 625 l 371 625 l 472 743 l 163 743 l 163 992 l 682 992 l 764 1086 l 83 1086 l 83 1357 l 1093 1357 l 1093 1085 q 1074 1063 1083 1074 q 1058 1043 1065 1053 q 1031 1013 1044 1028 q 1015 993 1018 997 l 1015 743 l 800 743 l 697 625 l 1015 625 l 1015 378 l 485 378 l 393 271 l 1081 271 l 1081 0 l 71 0 l 71 272 m 503 1546 q 527 1609 503 1582 q 585 1636 551 1636 q 640 1610 617 1636 q 663 1546 663 1585 q 641 1483 663 1510 q 585 1456 619 1456 q 526 1483 549 1456 q 503 1546 503 1510 z "},"":{"ha":1165,"x_min":71,"x_max":1093,"o":"m 529 1758 q 539 1728 531 1754 q 557 1675 547 1703 q 582 1600 568 1640 l 636 1758 l 797 1758 q 782 1711 789 1732 q 769 1674 775 1690 q 767 1668 768 1671 q 765 1663 767 1665 l 765 1660 q 764 1657 764 1658 l 763 1654 l 763 1653 l 763 1651 q 761 1647 761 1649 q 760 1643 761 1646 l 758 1642 l 758 1640 l 758 1639 q 756 1631 757 1635 q 753 1622 754 1626 l 751 1619 q 750 1615 750 1617 q 749 1610 750 1613 q 726 1543 738 1578 q 696 1456 714 1508 l 469 1456 q 444 1531 453 1504 q 432 1569 436 1557 q 427 1585 428 1582 q 425 1589 426 1588 q 423 1597 425 1592 q 415 1618 421 1601 q 398 1667 410 1635 q 367 1758 386 1700 l 529 1758 m 71 272 q 112 321 86 290 q 163 381 138 351 l 163 625 l 371 625 l 472 743 l 163 743 l 163 992 l 682 992 l 764 1086 l 83 1086 l 83 1357 l 1093 1357 l 1093 1085 q 1074 1063 1083 1074 q 1058 1043 1065 1053 q 1031 1013 1044 1028 q 1015 993 1018 997 l 1015 743 l 800 743 l 697 625 l 1015 625 l 1015 378 l 485 378 l 393 271 l 1081 271 l 1081 0 l 71 0 l 71 272 z "},"":{"ha":1165,"x_min":71,"x_max":1093,"o":"m 529 1758 q 539 1728 531 1754 q 557 1675 547 1703 q 582 1600 568 1640 l 636 1758 l 797 1758 q 782 1711 789 1732 q 769 1674 775 1690 q 767 1668 768 1671 q 765 1663 767 1665 l 765 1660 q 764 1657 764 1658 l 763 1654 l 763 1653 l 763 1651 q 761 1647 761 1649 q 760 1643 761 1646 l 758 1642 l 758 1640 l 758 1639 q 756 1631 757 1635 q 753 1622 754 1626 l 751 1619 q 750 1615 750 1617 q 749 1610 750 1613 q 726 1543 738 1578 q 696 1456 714 1508 l 469 1456 q 444 1531 453 1504 q 432 1569 436 1557 q 427 1585 428 1582 q 425 1589 426 1588 q 423 1597 425 1592 q 415 1618 421 1601 q 398 1667 410 1635 q 367 1758 386 1700 l 529 1758 m 71 272 q 112 321 86 290 q 163 381 138 351 l 163 625 l 371 625 l 472 743 l 163 743 l 163 992 l 682 992 l 764 1086 l 83 1086 l 83 1357 l 1093 1357 l 1093 1085 q 1074 1063 1083 1074 q 1058 1043 1065 1053 q 1031 1013 1044 1028 q 1015 993 1018 997 l 1015 743 l 800 743 l 697 625 l 1015 625 l 1015 378 l 485 378 l 393 271 l 1081 271 l 1081 0 l 71 0 l 71 272 z "},"":{"ha":542,"x_min":56,"x_max":485,"o":"m 56 1456 q 86 1547 75 1514 q 103 1597 97 1581 q 110 1619 108 1614 q 113 1626 111 1625 q 115 1631 114 1628 q 119 1646 115 1633 q 132 1685 124 1658 q 157 1758 140 1711 l 383 1758 q 413 1671 401 1706 q 435 1606 425 1636 q 457 1541 446 1575 q 485 1456 468 1507 l 324 1456 q 297 1536 313 1492 q 269 1617 282 1581 q 262 1591 269 1615 q 244 1538 254 1567 q 226 1485 235 1510 q 217 1456 218 1460 l 56 1456 z "},"":{"ha":543,"x_min":56,"x_max":486,"o":"m 218 1758 q 228 1728 219 1754 q 246 1675 236 1703 q 271 1600 257 1640 l 325 1758 l 486 1758 q 471 1711 478 1732 q 458 1674 464 1690 q 456 1668 457 1671 q 454 1663 456 1665 l 454 1660 q 453 1657 453 1658 l 451 1654 l 451 1653 l 451 1651 q 450 1647 450 1649 q 449 1643 450 1646 l 447 1642 l 447 1640 l 447 1639 q 446 1635 446 1638 l 444 1632 q 443 1627 443 1629 q 442 1622 443 1625 l 440 1619 q 439 1615 439 1617 q 438 1610 439 1613 q 415 1543 426 1578 q 385 1456 403 1508 l 158 1456 q 133 1531 142 1504 q 121 1569 125 1557 q 116 1585 117 1582 q 114 1589 115 1588 q 112 1597 114 1592 q 104 1618 110 1601 q 87 1667 99 1635 q 56 1758 75 1700 l 218 1758 z "},"":{"ha":543,"x_min":56,"x_max":486,"o":"m 218 1758 q 228 1728 219 1754 q 246 1675 236 1703 q 271 1600 257 1640 l 325 1758 l 486 1758 q 458 1673 469 1707 q 437 1608 447 1639 q 415 1543 426 1578 q 385 1456 403 1508 l 158 1456 q 133 1531 142 1504 q 121 1569 125 1557 q 116 1585 117 1582 q 114 1589 115 1588 q 112 1597 114 1592 q 104 1618 110 1601 q 87 1667 99 1635 q 56 1758 75 1700 l 218 1758 z "},"":{"ha":274,"x_min":56,"x_max":215,"o":"m 56 1546 q 80 1609 56 1582 q 138 1636 104 1636 q 192 1610 169 1636 q 215 1546 215 1585 q 194 1483 215 1510 q 138 1456 172 1456 q 78 1483 101 1456 q 56 1546 56 1510 z "},"":{"ha":558,"x_min":67,"x_max":492,"o":"m 67 1519 q 83 1615 67 1571 q 128 1690 100 1658 q 196 1740 157 1722 q 281 1758 235 1758 q 369 1740 329 1758 q 435 1689 408 1721 q 477 1615 463 1657 q 492 1529 492 1574 q 474 1432 492 1475 q 426 1358 456 1389 q 357 1310 396 1326 q 276 1293 318 1293 q 191 1311 229 1293 q 125 1360 153 1329 q 82 1433 97 1392 q 67 1519 67 1474 m 279 1604 q 230 1578 246 1604 q 214 1522 214 1553 q 233 1469 214 1490 q 279 1447 251 1447 q 326 1469 307 1447 q 344 1526 344 1492 q 330 1578 344 1553 q 279 1604 315 1604 z "},"":{"ha":329,"x_min":15,"x_max":319,"o":"m 236 -33 q 154 -62 183 -39 q 125 -108 125 -86 q 140 -137 125 -125 q 192 -142 154 -149 q 235 -128 210 -139 q 274 -106 260 -117 l 319 -200 q 244 -234 283 -222 q 169 -246 206 -246 q 85 -227 122 -246 q 29 -169 49 -208 q 16 -117 17 -144 q 32 -60 15 -89 q 87 -2 49 -32 q 190 57 125 28 l 236 -33 z "},"":{"ha":507,"x_min":53,"x_max":454,"o":"m 56 1456 q 82 1591 53 1543 q 164 1639 111 1639 q 207 1634 189 1639 q 240 1624 225 1629 q 269 1615 256 1619 q 299 1610 282 1610 q 319 1616 311 1610 q 331 1646 328 1622 l 451 1646 q 342 1468 454 1468 q 297 1472 315 1468 q 263 1481 278 1476 q 234 1490 247 1486 q 206 1494 221 1494 q 184 1486 190 1494 q 175 1456 178 1478 l 56 1456 z "},"":{"ha":869,"x_min":50,"x_max":821,"o":"m 386 1710 l 192 1457 l 50 1457 l 192 1710 l 386 1710 m 821 1710 l 626 1457 l 485 1457 l 626 1710 l 821 1710 z "},"":{"ha":418,"x_min":51,"x_max":367,"o":"m 51 463 l 51 586 l 367 586 l 367 463 l 51 463 z "},"":{"ha":251,"x_min":14,"x_max":238,"o":"m 238 1128 q 206 1042 238 1076 q 126 1006 174 1006 q 81 1016 101 1006 q 46 1043 61 1026 q 22 1082 31 1060 q 14 1128 14 1104 q 49 1265 14 1203 q 153 1358 85 1326 q 126 1251 126 1310 q 206 1215 174 1251 q 238 1128 238 1181 z "},"":{"ha":253,"x_min":14,"x_max":239,"o":"m 14 1236 q 22 1282 14 1260 q 45 1321 31 1304 q 81 1348 60 1338 q 126 1358 101 1358 q 206 1322 174 1358 q 239 1236 239 1288 q 203 1099 239 1161 q 99 1006 167 1038 q 126 1113 126 1053 q 81 1123 101 1113 q 45 1150 60 1133 q 22 1189 31 1167 q 14 1236 14 1211 z "},"":{"ha":253,"x_min":14,"x_max":239,"o":"m 14 221 q 22 267 14 244 q 45 306 31 289 q 81 333 60 322 q 126 343 101 343 q 206 307 174 343 q 239 221 239 272 q 203 84 239 146 q 99 -10 167 22 q 126 97 126 38 q 81 108 101 97 q 45 135 60 118 q 22 174 31 151 q 14 221 14 196 z "},"":{"ha":533,"x_min":14,"x_max":519,"o":"m 519 1128 q 511 1082 519 1104 q 488 1043 503 1060 q 453 1016 474 1026 q 407 1006 432 1006 q 328 1042 360 1006 q 294 1128 294 1078 q 331 1265 294 1203 q 435 1358 367 1326 q 407 1251 407 1311 q 453 1241 432 1251 q 488 1214 474 1231 q 511 1175 503 1197 q 519 1128 519 1153 m 238 1128 q 206 1042 238 1076 q 126 1006 174 1006 q 81 1016 101 1006 q 46 1043 61 1026 q 22 1082 31 1060 q 14 1128 14 1104 q 49 1265 14 1203 q 153 1358 85 1326 q 126 1251 126 1310 q 206 1215 174 1251 q 238 1128 238 1181 z "},"":{"ha":533,"x_min":14,"x_max":519,"o":"m 14 1236 q 22 1282 14 1260 q 45 1321 31 1304 q 81 1348 60 1338 q 126 1358 101 1358 q 206 1322 174 1358 q 239 1236 239 1288 q 203 1099 239 1161 q 99 1006 167 1038 q 126 1113 126 1053 q 81 1123 101 1113 q 45 1150 60 1133 q 22 1189 31 1167 q 14 1236 14 1211 m 296 1236 q 328 1322 296 1288 q 407 1358 360 1358 q 452 1348 432 1358 q 488 1321 472 1338 q 511 1282 503 1304 q 519 1236 519 1260 q 484 1099 519 1161 q 381 1006 449 1038 q 407 1113 407 1054 q 328 1149 360 1113 q 296 1236 296 1183 z "},"":{"ha":533,"x_min":14,"x_max":519,"o":"m 14 221 q 22 267 14 244 q 45 306 31 289 q 81 333 60 322 q 126 343 101 343 q 206 307 174 343 q 239 221 239 272 q 203 84 239 146 q 99 -10 167 22 q 126 97 126 38 q 81 108 101 97 q 45 135 60 118 q 22 174 31 151 q 14 221 14 196 m 296 221 q 328 307 296 272 q 407 343 360 343 q 452 333 432 343 q 488 306 472 322 q 511 267 503 289 q 519 221 519 244 q 484 84 519 146 q 381 -10 449 22 q 407 97 407 39 q 328 133 360 97 q 296 221 296 168 z "},"":{"ha":593,"x_min":139,"x_max":454,"o":"m 183 3 l 183 1357 l 408 1357 l 408 3 l 183 3 m 139 463 l 139 586 l 454 586 l 454 463 l 139 463 z "},"":{"ha":593,"x_min":139,"x_max":454,"o":"m 183 -97 l 183 1457 l 408 1457 l 408 -97 l 183 -97 m 454 493 l 454 369 l 139 369 l 139 493 l 454 493 m 139 556 l 139 679 l 454 679 l 454 556 l 139 556 z "},"":{"ha":1285,"x_min":50,"x_max":1235,"o":"m 50 679 q 97 943 50 819 q 224 1158 143 1067 q 413 1303 304 1250 q 643 1357 521 1357 q 873 1303 765 1357 q 1061 1158 981 1250 q 1188 943 1142 1067 q 1235 679 1235 819 q 1188 415 1235 539 q 1061 199 1142 292 q 873 53 981 107 q 643 0 765 0 q 413 53 521 0 q 224 199 304 107 q 97 415 143 292 q 50 679 50 539 m 643 1111 q 515 1080 578 1111 q 404 992 453 1049 q 326 855 356 935 q 296 679 296 775 q 325 504 296 583 q 403 367 354 425 q 514 278 451 310 q 643 246 576 246 q 770 277 708 246 q 881 365 832 308 q 959 502 929 422 q 989 679 989 582 q 960 853 989 774 q 882 990 931 932 q 771 1079 833 1047 q 643 1111 708 1111 m 643 567 q 563 600 596 567 q 531 679 531 633 q 563 759 531 726 q 643 792 596 792 q 723 759 690 792 q 756 679 756 726 q 723 600 756 633 q 643 567 690 567 m 643 751 q 591 730 613 751 q 569 679 569 708 q 591 627 569 649 q 643 606 613 606 q 694 627 672 606 q 715 679 715 649 q 694 730 715 708 q 643 751 672 751 m 800 493 l 800 369 l 485 369 l 485 493 l 800 493 m 485 556 l 485 679 l 800 679 l 800 556 l 485 556 z "},"":{"ha":1003,"x_min":64,"x_max":931,"o":"m 542 1357 l 669 1069 l 669 968 l 714 968 l 714 1071 l 843 1357 l 931 1357 l 931 881 l 843 881 l 843 1146 l 801 1053 l 801 881 l 583 881 l 583 1051 l 542 1144 l 542 881 l 456 881 l 456 1357 l 542 1357 m 64 1143 l 64 1229 l 428 1229 l 428 1143 l 288 1143 l 288 881 l 201 881 l 201 1143 l 64 1143 m 428 1357 l 428 1271 l 64 1271 l 64 1357 l 428 1357 z "},"":{"ha":1725,"x_min":51,"x_max":1668,"o":"m 51 0 q 66 63 53 4 q 100 215 79 121 q 147 427 121 308 q 201 670 174 546 q 256 915 229 794 q 303 1131 282 1035 q 337 1288 324 1226 q 351 1357 350 1349 l 739 1357 q 748 1313 739 1356 q 772 1201 757 1271 q 808 1039 788 1131 q 853 846 829 947 l 1200 1169 q 1326 1263 1253 1221 q 1474 1328 1389 1299 q 1668 1357 1560 1357 l 1668 1111 q 1499 1077 1578 1111 q 1363 984 1421 1043 q 1271 847 1304 925 q 1238 679 1238 768 q 1272 511 1238 590 q 1364 373 1306 432 q 1501 280 1422 314 q 1668 246 1579 246 l 1668 0 q 1413 49 1532 0 q 1202 185 1293 99 q 1056 389 1111 272 q 992 639 1000 506 l 914 567 q 962 355 939 457 q 1001 174 985 253 q 1028 49 1018 96 q 1039 0 1039 1 l 785 0 l 704 371 l 304 0 l 51 0 m 642 650 l 544 1086 l 399 425 l 642 650 z "},"":{"ha":2179,"x_min":56,"x_max":2122,"o":"m 56 0 l 356 1357 l 743 1357 l 821 1003 l 1117 1357 l 1443 1357 q 1707 1303 1583 1357 q 1923 1158 1831 1250 q 2069 943 2015 1067 q 2122 679 2122 819 q 2069 417 2122 540 q 1925 201 2017 293 q 1711 56 1833 110 q 1450 0 1589 1 l 1115 0 l 1114 968 l 889 697 l 1043 0 l 789 0 l 689 457 l 307 0 l 56 0 m 1361 246 q 1403 247 1382 247 q 1447 247 1425 247 q 1614 281 1536 247 q 1750 374 1692 315 q 1842 512 1808 433 q 1875 679 1875 590 q 1841 848 1875 769 q 1748 985 1807 926 q 1610 1077 1689 1043 q 1443 1111 1532 1111 l 1361 1111 l 1361 246 m 621 761 l 549 1086 l 425 528 l 621 761 z "},"":{"ha":2093,"x_min":56,"x_max":2053,"o":"m 56 0 q 70 63 57 4 q 104 216 83 122 q 151 428 125 310 q 204 672 178 547 q 257 915 231 796 q 305 1131 283 1035 q 340 1288 326 1226 q 356 1357 354 1349 l 743 1357 q 758 1288 743 1354 q 795 1117 772 1222 q 847 882 818 1013 q 906 618 876 751 l 1122 618 l 1122 1357 l 1368 1357 l 1368 618 l 2053 618 l 2053 371 l 1368 371 l 1368 246 l 2053 246 l 2053 0 l 1122 0 l 1122 371 l 961 371 q 971 326 964 358 q 987 252 978 293 q 1006 167 996 211 q 1024 87 1017 124 q 1038 26 1032 50 q 1043 0 1043 1 l 789 0 l 707 371 l 392 371 q 342 152 364 251 q 308 0 319 53 l 56 0 m 653 618 l 549 1086 q 533 1019 542 1054 q 517 944 525 983 q 483 794 501 878 q 444 618 465 711 l 653 618 z "},"":{"ha":2686,"x_min":33,"x_max":2614,"o":"m 33 0 q 235 292 138 151 q 425 568 333 433 q 583 799 503 682 q 737 1021 664 915 q 870 1214 810 1126 q 968 1357 931 1301 l 1404 1357 l 1404 247 l 1506 247 l 1506 1357 l 2082 1357 l 2256 246 l 2367 246 l 2367 1357 l 2614 1357 l 2614 0 l 2043 0 l 1871 1111 l 1754 1111 l 1754 0 l 1156 0 l 1156 744 l 846 744 l 332 0 l 33 0 m 1156 992 l 1156 1111 l 1099 1111 l 1017 992 l 1156 992 z "},"":{"ha":2147,"x_min":51,"x_max":2096,"o":"m 51 0 q 67 58 51 0 q 110 213 83 117 q 172 430 138 308 q 241 678 206 551 q 310 927 276 806 q 372 1144 344 1049 q 415 1299 399 1240 q 431 1357 431 1357 l 938 1357 l 938 1219 l 1040 1357 l 1533 1357 q 1681 1324 1613 1357 q 1799 1235 1749 1292 q 1876 1106 1849 1179 q 1904 950 1904 1032 q 1890 837 1904 892 q 1849 734 1875 782 q 1784 648 1822 686 q 1700 585 1746 610 l 2096 0 l 1817 0 l 1288 781 l 1288 0 l 1040 0 l 1040 963 l 938 828 l 938 0 l 690 0 l 690 504 l 306 0 l 51 0 m 1343 1111 l 1558 793 q 1631 851 1604 804 q 1657 950 1657 897 q 1649 1008 1657 979 q 1624 1059 1640 1036 q 1585 1097 1608 1082 q 1533 1111 1563 1111 l 1343 1111 m 475 600 q 541 690 504 640 q 611 785 578 740 q 651 838 631 811 q 690 890 671 864 l 690 1111 l 618 1111 l 475 600 z "},"":{"ha":1597,"x_min":50,"x_max":1550,"o":"m 350 1357 l 738 1357 q 749 1298 738 1354 q 781 1151 761 1242 q 827 943 801 1060 q 880 703 853 826 q 934 461 907 581 q 983 246 961 342 l 1232 246 q 1265 255 1251 246 q 1288 276 1279 264 q 1301 302 1297 289 q 1303 325 1304 315 q 1270 435 1300 379 q 1197 549 1240 492 q 1104 667 1154 607 q 1012 788 1054 726 q 942 912 969 849 q 914 1040 914 975 q 939 1163 914 1106 q 1007 1264 964 1221 q 1108 1332 1050 1307 q 1232 1357 1165 1357 l 1232 1111 q 1182 1090 1203 1111 q 1161 1040 1161 1069 l 1161 1036 q 1190 959 1161 1004 q 1262 860 1218 914 q 1356 743 1306 806 q 1449 611 1406 681 q 1522 468 1493 542 q 1550 318 1550 394 l 1550 315 q 1523 192 1549 250 q 1455 92 1497 135 q 1355 25 1413 50 q 1232 0 1297 0 l 783 0 l 686 443 l 303 0 l 50 0 l 350 1357 m 417 507 l 619 743 l 543 1086 l 417 507 z "},"":{"ha":2151,"x_min":43,"x_max":2099,"o":"m 43 0 l 807 1111 l 508 1111 l 508 1357 l 1354 1357 l 1354 0 l 1107 0 l 1107 744 l 856 744 l 342 0 l 43 0 m 1457 992 l 2099 992 l 2099 744 l 1704 744 l 1704 0 l 1457 0 l 1457 992 m 2099 1357 l 2099 1111 l 1457 1111 l 1457 1357 l 2099 1357 m 1107 992 l 1107 1111 l 1025 992 l 1107 992 z "},"":{"ha":2014,"x_min":54,"x_max":1944,"o":"m 54 0 q 69 63 56 4 q 103 216 82 122 q 150 428 124 310 q 203 672 176 547 q 256 915 229 796 q 303 1131 282 1035 q 339 1288 325 1226 q 354 1357 353 1349 l 742 1357 q 748 1326 742 1356 q 766 1244 754 1296 q 793 1124 778 1193 q 826 975 808 1054 q 860 1012 835 983 q 919 1078 885 1040 q 991 1160 953 1117 q 1063 1244 1029 1204 q 1123 1314 1097 1283 q 1158 1357 1149 1344 l 1329 1357 l 1329 451 q 1343 374 1329 411 q 1382 309 1357 338 q 1441 264 1407 281 q 1514 247 1475 247 q 1588 264 1554 247 q 1646 309 1621 281 q 1685 374 1671 338 q 1699 451 1699 411 l 1699 1357 l 1944 1357 l 1944 475 q 1912 293 1944 379 q 1822 142 1879 207 q 1685 38 1764 76 q 1514 0 1606 0 q 1343 38 1422 0 q 1206 142 1264 76 q 1114 293 1147 207 q 1081 475 1081 379 l 1081 893 l 893 675 q 947 429 921 550 q 994 214 974 308 q 1028 61 1015 119 q 1042 0 1042 3 l 788 0 l 690 443 l 306 0 l 54 0 m 419 507 l 624 743 l 547 1086 l 419 507 z "},"":{"ha":2811,"x_min":49,"x_max":2776,"o":"m 49 0 l 814 1111 l 515 1111 l 515 1357 l 1360 1357 l 1360 0 l 1114 0 l 1114 744 l 861 744 l 347 0 l 49 0 m 1464 1357 l 1710 1357 l 1710 247 q 1867 478 1804 386 q 1974 631 1931 569 q 2044 733 2017 693 q 2097 810 2072 774 q 2149 885 2121 846 q 2218 985 2176 925 q 2322 1133 2260 1044 q 2476 1357 2383 1222 l 2776 1357 q 2360 753 2550 1031 q 2196 517 2278 635 q 2043 297 2114 399 q 1919 116 1972 194 q 1840 0 1865 38 l 1464 0 l 1464 1357 m 1114 992 l 1114 1111 l 1031 992 l 1114 992 z "},"":{"ha":1936,"x_min":65,"x_max":1875,"o":"m 1008 1357 l 1008 0 l 435 0 q 288 33 356 0 q 170 122 219 65 q 93 251 121 178 q 65 407 65 325 q 81 526 65 469 q 126 629 97 582 q 192 714 154 676 q 275 775 231 751 l 65 1357 l 1008 1357 m 1875 1357 l 1875 1111 l 1350 1111 l 1350 992 l 1794 992 l 1794 744 l 1350 744 l 1350 621 l 1794 621 l 1794 374 l 1350 374 l 1350 247 l 1875 247 l 1875 0 l 1104 0 l 1104 1357 l 1875 1357 m 435 568 q 383 553 406 568 q 344 516 360 539 q 319 465 328 493 q 311 407 311 436 q 320 349 311 378 q 345 298 329 321 q 384 261 361 275 q 435 247 407 247 l 557 247 q 665 247 608 247 q 761 246 721 246 l 761 568 l 435 568 m 521 815 l 761 815 l 761 1111 l 414 1111 l 521 815 z "},"":{"ha":1876,"x_min":54,"x_max":1824,"o":"m 1136 1357 l 1524 1357 l 1824 0 l 1571 0 l 1188 443 l 1163 331 l 908 331 l 1136 1357 m 54 679 q 108 943 54 819 q 253 1158 161 1067 q 468 1303 344 1250 q 732 1357 592 1357 l 1032 1357 q 1006 1238 1019 1299 q 978 1111 992 1178 l 732 1111 q 564 1077 643 1111 q 426 985 485 1043 q 334 848 368 926 q 300 679 300 769 q 334 511 300 590 q 426 373 368 432 q 564 280 485 314 q 732 246 643 246 l 1231 246 l 1446 0 l 732 0 q 468 53 592 0 q 253 199 344 107 q 108 415 161 292 q 54 679 54 539 m 1457 507 l 1331 1086 l 1254 743 l 1457 507 z "},"":{"ha":1665,"x_min":53,"x_max":1606,"o":"m 556 621 l 835 621 l 835 744 l 556 744 l 556 992 l 835 992 l 835 1357 l 1606 1357 l 1606 1111 l 1081 1111 l 1081 992 l 1526 992 l 1526 744 l 1081 744 l 1081 621 l 1526 621 l 1526 374 l 1081 374 l 1081 246 l 1606 247 l 1606 0 l 835 0 l 835 374 l 556 374 l 556 621 m 731 0 q 467 53 590 0 q 251 199 343 107 q 106 415 160 292 q 53 679 53 539 q 106 943 53 819 q 251 1158 160 1067 q 467 1303 343 1250 q 731 1357 590 1357 l 731 1111 q 563 1077 642 1111 q 426 985 485 1043 q 333 848 367 926 q 299 679 299 769 q 333 511 299 590 q 426 374 367 432 q 563 281 485 315 q 731 247 642 247 l 731 0 z "},"":{"ha":1843,"x_min":54,"x_max":1769,"o":"m 836 992 l 836 1357 l 1082 1357 l 1082 992 l 1524 992 l 1524 1357 l 1769 1357 l 1769 0 l 1524 0 l 1524 374 l 1082 374 l 1082 0 l 836 0 l 836 374 l 549 374 l 549 621 l 836 621 l 836 744 l 549 744 l 549 992 l 836 992 m 732 0 q 468 53 592 0 q 253 199 344 107 q 108 415 161 292 q 54 679 54 539 q 108 943 54 819 q 253 1158 161 1067 q 468 1303 344 1250 q 732 1357 592 1357 l 732 1111 q 564 1077 643 1111 q 426 985 485 1043 q 334 848 368 926 q 300 679 300 769 q 334 511 300 590 q 426 374 368 432 q 564 281 485 315 q 732 247 643 247 l 732 0 m 1082 744 l 1082 621 l 1524 621 l 1524 744 l 1082 744 z "},"":{"ha":1917,"x_min":72,"x_max":1861,"o":"m 72 246 q 240 279 161 246 q 376 371 318 313 q 469 507 435 429 q 506 672 504 585 l 506 685 q 559 946 506 824 q 704 1160 613 1068 q 919 1304 796 1251 q 1182 1357 1043 1357 q 1446 1303 1322 1357 q 1662 1158 1569 1250 q 1808 943 1754 1067 q 1861 679 1861 819 q 1808 415 1861 539 q 1662 199 1754 292 q 1446 53 1569 107 q 1182 0 1322 0 q 913 55 1039 0 q 696 206 788 110 q 767 319 736 260 q 818 446 799 379 q 972 300 876 354 q 1182 246 1068 246 q 1351 280 1272 246 q 1488 373 1429 314 q 1581 511 1547 432 q 1615 679 1615 590 q 1581 848 1615 769 q 1488 985 1547 926 q 1351 1077 1429 1043 q 1182 1111 1272 1111 q 1015 1078 1093 1111 q 879 986 938 1044 q 787 850 821 928 q 751 685 753 772 q 699 418 751 543 q 554 201 646 293 q 339 54 463 108 q 72 0 215 0 l 72 246 m 72 1357 q 342 1302 218 1357 q 560 1151 467 1247 q 436 911 481 1047 q 283 1057 378 1003 q 72 1111 189 1111 l 72 1357 m 1182 556 q 1135 565 1157 556 q 1096 592 1113 575 q 1069 631 1079 608 q 1060 679 1060 654 q 1069 726 1060 704 q 1096 765 1079 749 q 1135 792 1113 782 q 1182 801 1157 801 q 1231 792 1208 801 q 1269 765 1253 782 q 1296 726 1286 749 q 1306 679 1306 704 q 1297 631 1306 654 q 1271 592 1288 608 q 1231 565 1254 575 q 1182 556 1208 556 m 1104 679 q 1127 622 1104 646 q 1182 599 1150 599 q 1240 622 1217 599 q 1263 679 1263 646 q 1240 735 1263 711 q 1182 758 1217 758 q 1127 735 1150 758 q 1104 679 1104 711 z "},"":{"ha":1518,"x_min":50,"x_max":1474,"o":"m 50 679 q 103 944 50 821 q 249 1160 157 1068 q 465 1304 342 1251 q 729 1357 589 1357 l 1474 1357 l 1474 1111 l 729 1111 q 561 1077 640 1111 q 423 985 482 1043 q 330 848 364 926 q 296 679 296 769 q 330 511 296 590 q 423 373 364 432 q 561 280 482 314 q 729 246 640 246 l 729 0 q 465 53 589 0 q 249 199 342 107 q 103 415 157 292 q 50 679 50 539 m 481 992 l 1474 992 l 1474 744 l 1079 744 l 1079 0 l 832 0 l 832 744 l 481 744 l 481 992 z "}}}
